<?xml version="1.0" standalone="no"?>
<!DOCTYPE svg PUBLIC "-//W3C//DTD SVG 1.1//EN" "http://www.w3.org/Graphics/SVG/1.1/DTD/svg11.dtd" >
<svg xmlns="http://www.w3.org/2000/svg" xmlns:xlink="http://www.w3.org/1999/xlink" version="1.1">
<metadata>
Created by FontForge 20170731 at Wed Aug 23 16:33:54 2023
 By Aleksey,,,
Copyleft 2002, 2003, 2005, 2008, 2009, 2010 Free Software Foundation.
</metadata>
<defs>
<font id="FreeMonoBoldOblique" horiz-adv-x="1228" >
  <font-face 
    font-family="FreeMono"
    font-weight="700"
    font-style="oblique"
    font-stretch="normal"
    units-per-em="2048"
    panose-1="2 7 8 9 2 2 5 9 4 4"
    ascent="1638"
    descent="-410"
    x-height="895"
    cap-height="1194"
    bbox="-1315 -410 1707 1638"
    underline-thickness="102"
    underline-position="-307"
    slope="-12"
    unicode-range="U+0020-FFFD"
  />
<missing-glyph 
d="M205 0l254 1196h819l-254 -1196h-819zM453 205h410l167 786h-410z" />
    <glyph glyph-name="yodyodpatahhebrew" unicode="&#x5f2;&#x5b7;" 
d="M635 319h276q20 0 37 -16.5t17 -36.5q0 -21 -18 -38t-36 -17h-276q-21 0 -38 17t-17 38q0 20 17.5 36.5t37.5 16.5zM270 860q0 44 37 83.5t90 39.5h353l-105 -491q-9 -43 -45.5 -73t-79.5 -30q-35 0 -58.5 23t-23.5 57q0 15 2 23l62 286h-148q-38 0 -61 23t-23 59z
M827 860q0 44 37 83.5t90 39.5h353l-105 -491q-9 -43 -45.5 -73t-79.5 -30q-35 0 -58.5 23t-23.5 57q0 15 2 23l62 286h-148q-38 0 -61 23t-23 59z" />
    <glyph glyph-name=".notdef" 
d="M205 0l254 1196h819l-254 -1196h-819zM453 205h410l167 786h-410z" />
    <glyph glyph-name=".null" horiz-adv-x="0" 
 />
    <glyph glyph-name="nonmarkingreturn" 
 />
    <glyph glyph-name="space" unicode=" " 
 />
    <glyph glyph-name="exclam" unicode="!" 
d="M1004 1075l-189 -608q-15 -47 -47.5 -73.5t-75.5 -26.5q-38 0 -60 22t-22 60q0 12 2 18l70 608q13 114 67 173t142 59q60 0 97.5 -34.5t37.5 -90.5q0 -37 -22 -107zM625 -31h-35q-49 0 -80 30.5t-31 78.5q0 62 52 112t116 50h35q49 0 80 -30.5t31 -76.5q0 -63 -51 -113.5
t-117 -50.5z" />
    <glyph glyph-name="quotedbl" unicode="&#x22;" 
d="M541 1233h262l-176 -520q-23 -74 -80 -74q-22 0 -35.5 13.5t-13.5 33.5q0 1 1 10t1 15zM950 1233h262l-174 -520q-14 -40 -32.5 -57t-49.5 -17q-22 0 -35.5 13.5t-13.5 33.5l1 10q1 9 1 15z" />
    <glyph glyph-name="numbersign" unicode="#" 
d="M338 786q0 20 6 38.5t22 39t50 33t82 12.5h55l96 344q35 129 133 129q34 0 58 -22t24 -53q0 -21 -12 -68l-94 -330h147l96 344q31 129 134 129q34 0 58 -23.5t24 -58.5q0 -6 -15 -61l-94 -330h51q57 0 87 -16t30 -66q0 -48 -37 -85t-123 -37h-65l-62 -218h39
q59 0 89 -15.5t30 -63.5t-37.5 -85.5t-124.5 -37.5h-53l-96 -344q-39 -129 -136 -129q-34 0 -56.5 22.5t-22.5 54.5q0 17 14 66l94 330h-147l-99 -344q-39 -129 -131 -129q-34 0 -58 22.5t-24 54.5q0 21 13 66l94 330h-53q-63 0 -90 19t-27 63q0 19 6.5 37.5t22.5 38.5
t49.5 32t81.5 12h67l62 218h-41q-59 0 -88 15.5t-29 65.5zM848 705h-148l-61 -218h145z" />
    <glyph glyph-name="dollar" unicode="$" 
d="M997 1323q0 -21 -20 -111q9 -2 18 -3t15.5 -2t13.5 -3l20 -6q45 -18 64 -22q35 14 59 14q35 0 58.5 -22t23.5 -54q0 -26 -8 -59l-14 -66q-28 -135 -131 -135q-88 0 -88 88q0 28 -48.5 50t-109.5 22q-100 0 -166 -41.5t-66 -104.5q0 -69 132 -96l127 -29
q149 -32 213.5 -92.5t64.5 -169.5q0 -155 -117 -273t-307 -153l-37 -170q-17 -70 -44 -101q-34 -36 -85 -36q-35 0 -58.5 22t-23.5 54q0 20 9 61l36 170q-62 14 -85 21.5t-66 29.5q-48 -36 -88 -36q-37 0 -60.5 21.5t-23.5 55.5q0 16 8 60l27 125q9 44 27 74t39 42.5
t36 16.5t31 4q12 0 22.5 -2t18 -4.5t14 -8t10.5 -9.5t7 -12.5t4.5 -12.5t3 -13.5t1.5 -12.5t0.5 -13.5t0.5 -11.5q3 -47 66.5 -81t150.5 -34q109 0 187.5 54t78.5 130q0 40 -33.5 65t-107.5 40l-144 30q-252 53 -252 252q0 138 107.5 249.5t265.5 137.5l12 54
q25 135 132 135q34 0 56.5 -22t22.5 -56z" />
    <glyph glyph-name="percent" unicode="%" 
d="M737 1264q103 0 167.5 -63.5t64.5 -164.5q0 -133 -109.5 -238.5t-247.5 -105.5q-98 0 -162.5 65t-64.5 163q0 132 108.5 238t243.5 106zM709 1130q-72 0 -130.5 -56.5t-58.5 -125.5q0 -54 34.5 -88.5t88.5 -34.5q73 0 132 57t59 128q0 53 -35 86.5t-90 33.5zM1151 678
l-795 -242q-21 -8 -43 -8q-20 0 -32.5 15t-12.5 38q0 53 76 76l793 242q27 8 43 8q21 0 34 -14.5t13 -38.5q0 -56 -76 -76zM870 541q103 0 167.5 -63.5t64.5 -164.5q0 -133 -109.5 -238.5t-247.5 -105.5q-98 0 -162.5 65t-64.5 163q0 132 108.5 238t243.5 106zM842 408
q-71 0 -129 -57.5t-58 -127.5q0 -53 34.5 -87t86.5 -34q74 0 132.5 56.5t58.5 126.5q0 55 -34.5 89t-90.5 34z" />
    <glyph glyph-name="ampersand" unicode="&#x26;" 
d="M1065 123q0 -48 -37 -85.5t-123 -37.5h-125l-16 31q-53 -32 -108 -46t-134 -14q-146 0 -229.5 66t-83.5 180q0 123 72.5 230.5t201.5 173.5q-34 86 -34 145q0 86 56 170t145.5 137t180.5 53q71 0 138 -34q35 14 61 14q31 0 54.5 -24.5t23.5 -55.5q0 -43 -23.5 -70.5
t-85.5 -58.5l-96 -45q-34 39 -59 54.5t-56 15.5q-49 0 -90 -37.5t-41 -81.5q0 -25 35 -101l142 -296l84 167h106q60 0 88.5 -15.5t28.5 -63.5q0 -47 -34 -84.5t-79 -40.5q-53 -111 -96 -164h16q57 0 87 -16t30 -66zM682 205l-119 246q-68 -29 -106.5 -79t-38.5 -108
q0 -88 145 -88q65 0 119 29z" />
    <glyph glyph-name="quotesingle" unicode="'" 
d="M745 1233h263l-174 -520q-14 -40 -32.5 -57t-49.5 -17q-22 0 -36 13.5t-14 33.5q0 1 1.5 10t1.5 15z" />
    <glyph glyph-name="parenleft" unicode="(" 
d="M852 287q0 -97 16 -182t36 -131.5t36 -91t16 -70.5q0 -49 -38.5 -87t-88.5 -38q-51 0 -71 39q-57 95 -96 251.5t-39 290.5q0 212 82.5 417.5t259.5 434.5q82 105 123 139.5t83 34.5q37 0 60.5 -22.5t23.5 -57.5q0 -41 -41 -90q-189 -227 -275.5 -427.5t-86.5 -409.5z" />
    <glyph glyph-name="parenright" unicode=")" 
d="M596 696q0 97 -16 182t-36 131.5t-36 90.5t-16 69q0 50 37.5 87.5t88.5 37.5q52 0 72 -39q57 -95 96 -251.5t39 -290.5q0 -213 -81.5 -416.5t-260.5 -435.5q-80 -103 -122 -138.5t-85 -35.5q-37 0 -60 22.5t-23 57.5q0 42 40 90q192 232 277.5 429.5t85.5 409.5z" />
    <glyph glyph-name="asterisk" unicode="*" 
d="M610 762l-164 57q-46 15 -63.5 33.5t-17.5 50.5q0 48 37.5 86.5t84.5 38.5q16 0 64 -14l164 -58l39 183q30 135 131 135q35 0 58.5 -22t23.5 -56q0 -16 -9 -57l-38 -183l188 58q53 14 72 14q32 0 54.5 -24t22.5 -58q0 -46 -30.5 -76.5t-96.5 -50.5l-188 -57l76 -146
q22 -45 22 -69q0 -44 -40 -82.5t-87 -38.5q-31 0 -48.5 14t-39.5 56l-73 147l-140 -147q-40 -43 -61.5 -56.5t-52.5 -13.5q-37 0 -60.5 23.5t-23.5 58.5q0 26 12 48t47 60z" />
    <glyph glyph-name="plus" unicode="+" 
d="M1268 594q0 -47 -37.5 -85t-122.5 -38h-291l-69 -336q-30 -135 -132 -135q-35 0 -58 22t-23 54q0 23 8 59l69 336h-288q-63 0 -90 19t-27 63q0 20 6.5 39.5t22.5 39.5t49.5 32t81.5 12h290l70 336q30 135 133 135q35 0 58.5 -22t23.5 -56q0 -8 -10 -57l-70 -336h289
q63 0 90 -15.5t27 -66.5z" />
    <glyph glyph-name="comma" unicode="," 
d="M504 274h272l-405 -548q-38 -50 -76 -50q-22 0 -37.5 13t-15.5 32t16 52z" />
    <glyph glyph-name="hyphen" unicode="-" 
d="M1268 594q0 -48 -37 -86.5t-123 -38.5h-784q-63 0 -90 19t-27 63q0 48 37 85.5t123 37.5h784q59 0 88 -16t29 -64z" />
    <glyph glyph-name="period" unicode="." 
d="M625 -31h-35q-49 0 -80 30.5t-31 78.5q0 62 52 112t116 50h35q49 0 80 -30.5t31 -76.5q0 -63 -51.5 -113.5t-116.5 -50.5z" />
    <glyph glyph-name="slash" unicode="/" 
d="M1303 1249l-953 -1390q-35 -52 -61.5 -71t-63.5 -19q-35 0 -59.5 22.5t-24.5 56.5q0 35 43 97l953 1388q35 52 61.5 71t63.5 19q35 0 58 -23t23 -57q0 -35 -40 -94z" />
    <glyph glyph-name="zero" unicode="0" 
d="M1214 735l-40 -194q-30 -142 -91 -253.5t-138.5 -180t-164 -103.5t-174.5 -35q-163 0 -251.5 103.5t-88.5 294.5q0 84 19 174l41 194q30 142 90.5 253.5t138 180t163.5 103.5t175 35q163 0 251.5 -103.5t88.5 -294.5q0 -84 -19 -174zM532 750l-45 -224q-14 -57 -14 -127
q0 -106 47 -165.5t131 -59.5q108 0 194 96.5t120 255.5l47 224q14 57 14 127q0 107 -46.5 166t-131.5 59q-109 0 -196.5 -96.5t-119.5 -255.5z" />
    <glyph glyph-name="one" unicode="1" 
d="M349 205h207l186 876l-194 -119q-38 -26 -89 -26q-30 0 -50.5 17.5t-20.5 46.5q0 69 87 119l317 188h203l-235 -1102h207q117 0 117 -74q0 -16 -3 -31t-13 -34t-26.5 -33t-47 -23.5t-70.5 -9.5h-619q-116 0 -116 78q0 22 6 41.5t21.5 40.5t49.5 33t83 12z" />
    <glyph glyph-name="two" unicode="2" 
d="M354 942q0 24 19.5 66t62.5 94t101.5 97.5t147 76.5t187.5 31q160 0 260.5 -88t100.5 -228q0 -37 -8 -74t-19 -67.5t-34.5 -65t-41.5 -59t-54.5 -59t-59 -55t-69 -56.5t-71 -54t-78 -57t-77.5 -57l-254 -182h414q30 110 125 110q35 0 58 -21.5t23 -55.5q0 -23 -8 -58
l-39 -180h-929l45 215l561 401q139 100 204.5 158.5t84 94t18.5 83.5q0 65 -56.5 107.5t-142.5 42.5q-66 0 -115.5 -17.5t-76.5 -44t-50.5 -57.5t-40 -57.5t-43 -44t-61.5 -17.5q-34 0 -59 23t-25 55z" />
    <glyph glyph-name="three" unicode="3" 
d="M586 174q91 0 161 16t109.5 40t64 57t32.5 63t8 62q0 29 -11.5 56t-39.5 54t-84.5 44.5t-135.5 21.5q-88 6 -88 76q0 47 39 83.5t90 36.5h84q86 0 154.5 59.5t68.5 133.5q0 58 -53 91.5t-145 33.5q-70 0 -119.5 -13t-75 -31t-45 -36.5t-42.5 -31.5t-54 -13q-34 0 -58 23
t-24 57q0 62 67.5 120.5t178.5 94t229 35.5q161 0 255.5 -79.5t94.5 -213.5q0 -201 -235 -326q-6 0 -15 -6q172 -93 172 -250q0 -74 -44 -162t-113 -151q-86 -80 -194.5 -115t-268.5 -35q-171 0 -278 42t-107 108q0 51 38 89t89 38q18 0 31 -7.5t28 -18t38.5 -21t74.5 -18
t123 -7.5z" />
    <glyph glyph-name="four" unicode="4" 
d="M516 82q0 47 37.5 85t122.5 38h78l16 78h-557l37 170l668 821h268l-168 -787q56 0 81 -19t25 -62q0 -18 -6.5 -37t-22 -39.5t-46.5 -33.5t-74 -13l-17 -78q107 0 107 -82q0 -20 -7.5 -39.5t-24 -39.5t-50.5 -32t-80 -12h-270q-62 0 -89.5 19.5t-27.5 62.5zM813 487
l107 496l-412 -496h305z" />
    <glyph glyph-name="five" unicode="5" 
d="M1249 1194q0 -49 -36.5 -87t-122.5 -38h-414l-49 -235q118 34 213 34q155 0 249.5 -94.5t94.5 -251.5q0 -43 -7.5 -89.5t-27 -101.5t-49.5 -105t-80 -97.5t-112.5 -82.5t-152 -56t-194.5 -21q-167 0 -279 51t-112 127q0 49 38.5 87t88.5 38q21 0 36.5 -10t32 -24.5
t41 -29t75 -24.5t122.5 -10q90 0 159 20.5t108 51.5t63.5 74t32.5 81.5t8 81.5q0 83 -49.5 132t-132.5 49q-61 0 -131.5 -21.5t-123 -43t-69.5 -21.5q-34 0 -58 22.5t-24 54.5v4q0 9 4 33l125 582h617q59 0 87.5 -15.5t28.5 -64.5z" />
    <glyph glyph-name="six" unicode="6" 
d="M1229 1069q-25 0 -60.5 13.5t-56.5 13.5q-164 0 -316 -121.5t-231 -310.5q91 77 162.5 110t149.5 33q134 0 223.5 -92t89.5 -228q0 -27 -6 -64t-22 -87t-40.5 -99.5t-66 -98.5t-93.5 -86t-127 -60t-163 -23q-357 0 -357 400q0 145 38 275t91.5 218t127 164.5t129.5 117.5
t114 73q164 90 330 90q97 0 155 -31t58 -82q0 -47 -40 -86t-89 -39zM821 602q-55 0 -123.5 -34.5t-115.5 -83.5t-47 -87q0 -223 186 -223q62 0 110.5 23t75 55t44 71.5t23 67.5t5.5 47q0 70 -45 117t-113 47z" />
    <glyph glyph-name="seven" unicode="7" 
d="M1051 1069h-467q-30 -111 -125 -111q-35 0 -58.5 22t-23.5 56q0 22 8 58l39 180h887l-43 -203l-533 -973q-31 -55 -60.5 -77.5t-70.5 -22.5q-34 0 -59 23.5t-25 54.5q0 30 33 90z" />
    <glyph glyph-name="eight" unicode="8" 
d="M379 879q0 67 37.5 141.5t102.5 138.5t163.5 106t208.5 42q156 0 255 -86t99 -220q0 -104 -61 -189t-187 -159q142 -101 142 -247q0 -67 -32 -142.5t-85 -132.5q-69 -74 -182.5 -118t-235.5 -44q-172 0 -271.5 79t-99.5 216q0 117 70.5 216t204.5 173q-68 53 -98.5 106.5
t-30.5 119.5zM846 1102q-110 0 -186 -62t-76 -153q0 -63 51 -102.5t135 -39.5q109 0 186.5 61.5t77.5 147.5q0 69 -50 108.5t-138 39.5zM731 539q-114 0 -199.5 -64.5t-85.5 -150.5q0 -69 55.5 -109.5t149.5 -40.5q117 0 200 61.5t83 147.5q0 67 -57.5 111.5t-145.5 44.5z
" />
    <glyph glyph-name="nine" unicode="9" 
d="M365 207q26 0 60 -13.5t56 -13.5q160 0 314 120.5t233 311.5q-92 -78 -162.5 -110.5t-148.5 -32.5q-134 0 -224 91.5t-90 227.5q0 26 5.5 62.5t21.5 87t40.5 99.5t65.5 98.5t93 87t128 61t165 23.5q356 0 356 -400q0 -145 -38 -275t-91.5 -218t-127 -164.5t-129.5 -117.5
t-114 -73q-164 -90 -329 -90q-95 0 -154 31t-59 82q0 47 40 86t89 39zM772 674q56 0 125.5 36.5t115.5 84.5t46 82q0 125 -50.5 175t-136.5 50q-62 0 -110.5 -23t-75 -55.5t-44 -72t-23 -67.5t-5.5 -48q0 -69 45.5 -115.5t112.5 -46.5z" />
    <glyph glyph-name="colon" unicode=":" 
d="M625 -31h-35q-49 0 -80 30.5t-31 78.5q0 62 52 112t116 50h35q49 0 80 -30.5t31 -76.5q0 -63 -51 -113.5t-117 -50.5zM764 623h-35q-49 0 -80 30.5t-31 77.5q0 63 51.5 113.5t116.5 50.5h35q49 0 80 -30.5t31 -78.5q0 -63 -51.5 -113t-116.5 -50z" />
    <glyph glyph-name="semicolon" unicode=";" 
d="M506 274h270l-405 -548q-38 -50 -76 -50q-22 0 -37.5 13t-15.5 32t16 52zM754 895q63 0 96 -28t33 -81q0 -69 -54.5 -116t-132.5 -47q-60 0 -93.5 28t-33.5 80q0 68 54.5 116t130.5 48z" />
    <glyph glyph-name="less" unicode="&#x3c;" 
d="M1247 1026q19 0 43.5 -19.5t24.5 -58.5q0 -65 -86 -104l-592 -273l475 -278q28 -17 38.5 -32t10.5 -38q0 -37 -34 -74.5t-74 -37.5q-28 0 -58 18l-786 444l973 435q40 18 65 18z" />
    <glyph glyph-name="equal" unicode="=" 
d="M246 741q0 20 6.5 39.5t22.5 39.5t49.5 32t81.5 12h784q63 0 90 -15.5t27 -66.5q0 -47 -37.5 -85t-122.5 -38h-785q-63 0 -89.5 19t-26.5 63zM166 365q0 20 6.5 39t22.5 39t49.5 32t81.5 12h784q63 0 90 -15.5t27 -65.5q0 -48 -37 -85.5t-123 -37.5h-784q-63 0 -90 19
t-27 63z" />
    <glyph glyph-name="greater" unicode="&#x3e;" 
d="M223 109q-19 0 -43 19t-24 58q0 66 86 105l592 272l-476 281q-28 15 -38.5 29.5t-10.5 37.5q0 42 37 77.5t72 35.5q27 0 57 -18l787 -445l-973 -434q-41 -18 -66 -18z" />
    <glyph glyph-name="question" unicode="?" 
d="M1245 922q0 -75 -24 -138t-60.5 -108t-96 -85.5t-113.5 -67t-130 -56.5q-37 -111 -127 -111q-34 0 -58 22.5t-24 53.5q0 6 11 60l22 114q158 56 240.5 97t116.5 81t34 93q0 68 -48.5 105.5t-137.5 37.5q-117 0 -227 -49l-7 -29q-17 -72 -48 -102q-33 -33 -83 -33
q-34 0 -58 22t-24 54q0 19 9 59l34 162q168 73 257 97t190 24q164 0 258 -81t94 -222zM631 -31h-37q-49 0 -80 30.5t-31 78.5q0 62 52 112t116 50h37q47 0 78 -30.5t31 -76.5q0 -63 -51 -113.5t-115 -50.5z" />
    <glyph glyph-name="at" unicode="@" 
d="M1094 250q0 -40 -29 -71.5t-104 -31.5h-150q-123 0 -198.5 70t-75.5 184q0 158 137.5 279.5t333.5 134.5q18 88 18 123q0 78 -46.5 124t-125.5 46q-129 0 -243.5 -131.5t-155.5 -327.5l-68 -319q-20 -90 -20 -170q0 -312 225 -312q71 0 125 16t79 34.5t49.5 34.5t43.5 16
q29 0 47 -18.5t18 -47.5q0 -50 -56 -95t-149.5 -72t-197.5 -27q-72 0 -129 19.5t-94 54t-63 76t-39.5 92.5t-19 96.5t-5.5 93.5q0 100 20 194l74 347q57 264 224 436t368 172q140 0 222.5 -81.5t82.5 -219.5q0 -38 -10 -90l-123 -576q20 -9 27.5 -20.5t7.5 -32.5zM901 317
l70 330q-114 -11 -191.5 -72.5t-77.5 -142.5q0 -52 40.5 -85.5t103.5 -33.5q26 0 55 4z" />
    <glyph glyph-name="A" unicode="A" 
d="M737 82q0 49 37 86t123 37h47l-22 119h-488l-74 -119h48q57 0 86.5 -16t29.5 -66q0 -47 -37 -85t-122 -38h-271q-63 0 -90 19t-27 63q0 49 37.5 86t124.5 37l484 784h-129q-63 0 -90 19t-27 63q0 20 6 38.5t22 39t50 33t82 12.5h442l199 -989q59 0 88.5 -15.5t29.5 -66.5
q0 -48 -36.5 -85.5t-122.5 -37.5h-285q-62 0 -88.5 19t-26.5 63zM881 528l-78 394l-244 -394h322z" />
    <glyph glyph-name="B" unicode="B" 
d="M45 82q0 48 37 85.5t123 37.5h31l165 784h-30q-63 0 -89 19t-26 63q0 49 37 86t123 37h516q77 0 138.5 -19t97.5 -47.5t60 -66.5t33 -73t9 -70q0 -170 -187 -293q162 -87 162 -238q0 -65 -33 -135.5t-88 -122.5q-135 -129 -358 -129h-604q-62 0 -89.5 19.5t-27.5 62.5z
M545 700h231q121 0 203 52.5t82 130.5q0 51 -47.5 78.5t-134.5 27.5h-273zM440 205h359q114 0 173.5 34.5t59.5 100.5q0 72 -68.5 114t-185.5 42h-276z" />
    <glyph glyph-name="C" unicode="C" 
d="M1102 827l2 47q0 57 -76.5 100.5t-177.5 43.5q-84 0 -154.5 -27t-118.5 -69.5t-85.5 -99t-59.5 -111.5t-36 -111.5t-18.5 -95.5t-4.5 -66q0 -122 90.5 -192t247.5 -70q80 0 144 15.5t100.5 37.5t64.5 44t52.5 37.5t47.5 15.5q35 0 59.5 -24.5t24.5 -59.5q0 -39 -40 -85.5
t-107.5 -88t-172.5 -69.5t-220 -28q-227 0 -363.5 117t-136.5 311q0 55 12 111l29 135q35 162 135.5 294.5t244.5 208t300 75.5q79 0 142.5 -16t152.5 -62q49 49 96 49q35 0 58.5 -22t23.5 -56q0 -22 -8 -57l-37 -172q-30 -135 -131 -135q-35 0 -57.5 20.5t-22.5 54.5z" />
    <glyph glyph-name="D" unicode="D" 
d="M47 82q0 42 35.5 82.5t114.5 40.5l165 784q-104 0 -104 82q0 20 6.5 39.5t22.5 39.5t49.5 32t81.5 12h436q188 0 304 -121t116 -317q0 -155 -49.5 -293t-138 -240.5t-219 -162.5t-283.5 -60h-420q-62 0 -89.5 19.5t-27.5 62.5zM1065 717q0 37 -7 72.5t-26.5 72.5
t-49 64.5t-78.5 45t-111 17.5h-226l-166 -784h226q24 0 45.5 1.5t59.5 8.5t69.5 19.5t70 37t68 58.5t56 86.5t40.5 118.5l21 94q8 39 8 88z" />
    <glyph glyph-name="E" unicode="E" 
d="M721 700q2 14 5 29t13 38.5t23.5 41t37.5 30.5t54 13q35 0 58.5 -22t23.5 -56q0 -18 -8 -59l-51 -232q-28 -135 -129 -135q-35 0 -58.5 22t-23.5 54q0 34 12 74h-174l-62 -293h523l24 106q27 138 129 138q35 0 59.5 -22t24.5 -54q0 -25 -8 -62l-68 -311h-962
q-61 0 -89 19.5t-28 62.5q0 49 36.5 86t123.5 37h31l165 784h-30q-63 0 -90 19t-27 63q0 21 6.5 40t22.5 39t50.5 32t82.5 12h917l-65 -307q-27 -137 -131 -137q-34 0 -58 22t-24 55t30 162h-479l-61 -289h174z" />
    <glyph glyph-name="F" unicode="F" 
d="M719 700q0 1 4 17.5t6 23t8.5 23.5t12 26t16.5 22.5t22.5 20t28.5 12t37 5.5q35 0 58.5 -22t23.5 -56q0 -8 -10 -57l-49 -232q-27 -137 -132 -137q-34 0 -56.5 22t-22.5 54q0 36 12 76h-174l-62 -293h203q59 0 88 -16t29 -64q0 -47 -37.5 -86t-122.5 -39h-438
q-62 0 -89.5 19.5t-27.5 62.5q0 47 37.5 85t122.5 38h31l165 784h-30q-63 0 -90 19t-27 63q0 21 6.5 40t22.5 39t50.5 32t82.5 12h962l-65 -309q-4 -18 -6 -25.5t-12.5 -32.5t-22.5 -38.5t-36 -26t-54 -12.5q-34 0 -58 21.5t-24 53.5q0 22 5 49.5t14.5 66t11.5 48.5h-525
l-61 -289h172z" />
    <glyph glyph-name="G" unicode="G" 
d="M1198 573q59 0 88 -15.5t29 -63.5q0 -44 -30 -77.5t-81 -47.5l-57 -271q-154 -74 -254 -100.5t-223 -26.5q-47 0 -92 4.5t-97 16t-96.5 30.5t-86.5 51t-71 73t-47 100.5t-18 130.5q0 52 14 127l31 145q23 111 84.5 213.5t150.5 183t211 129t256 48.5q168 0 285 -66
q25 37 46 51.5t50 14.5q34 0 55 -21t21 -55q0 -21 -8 -60l-35 -159q-17 -72 -48 -102q-33 -33 -83 -33q-18 0 -31 3t-21.5 13t-13 15t-7 23.5t-3 24t-2.5 29.5q-3 54 -69.5 85.5t-178.5 31.5q-169 0 -294.5 -102t-159.5 -267q-4 -18 -13 -56.5t-14 -62t-9.5 -58t-4.5 -64.5
q0 -111 85.5 -171.5t243.5 -60.5q143 0 271 51l28 142h-202q-63 0 -90 19t-27 63q0 20 6.5 39t22.5 39t49.5 32t81.5 12h358z" />
    <glyph glyph-name="H" unicode="H" 
d="M690 82q0 47 37.5 85t122.5 38h31l61 289h-438l-62 -289h29q59 0 88 -15.5t29 -66.5q0 -47 -37.5 -85t-122.5 -38h-248q-62 0 -88 19t-26 63q0 48 36.5 85.5t122.5 37.5h13l165 784q-86 6 -86 82q0 20 6.5 39.5t22.5 39.5t49.5 32t81.5 12h205q58 0 87.5 -15.5
t29.5 -64.5t-37 -87t-123 -38h-31l-61 -291h438l62 291h-31q-58 0 -86.5 16t-28.5 66q0 20 6.5 39.5t22.5 39.5t49.5 32t81.5 12h205q58 0 87 -15.5t29 -64.5q0 -51 -36.5 -86t-94.5 -39l-166 -784h13q58 0 86 -16t28 -66q0 -47 -36 -85t-121 -38h-248q-63 0 -90 19t-27 63z
" />
    <glyph glyph-name="I" unicode="I" 
d="M1294 1114q0 -49 -36.5 -87t-122.5 -38h-207l-166 -784h205q58 0 87 -15.5t29 -64.5q0 -48 -37 -86.5t-122 -38.5h-617q-63 0 -90 19t-27 63q0 49 37 86t123 37h207l166 784h-207q-63 0 -89 19t-26 63q0 49 37 86t123 37h617q60 0 88 -15.5t28 -64.5z" />
    <glyph glyph-name="J" unicode="J" 
d="M1489 1112q0 -48 -37 -85.5t-123 -37.5h-117l-129 -606q-18 -84 -61 -154t-98.5 -117t-122.5 -79.5t-131 -47t-125 -14.5q-171 0 -414 133l70 332q3 18 9.5 36t20.5 43.5t40.5 41.5t62.5 16q35 0 58.5 -21.5t23.5 -53.5q0 -23 -8 -62l-43 -196q131 -64 225 -64
q24 0 48 3.5t55 11.5t59 25t54 41t46.5 62.5t30.5 86.5l125 583h-244q-63 0 -90 19t-27 63q0 20 6.5 39.5t22.5 39.5t49.5 32t81.5 12h565q38 0 60 -4t39.5 -23t17.5 -55z" />
    <glyph glyph-name="K" unicode="K" 
d="M1257 125q0 -21 -7.5 -41.5t-24 -40t-50 -31.5t-79.5 -12h-224q-26 220 -89.5 360.5t-151.5 169.5l-144 -104l-47 -221h72q58 0 86.5 -16t28.5 -66q0 -46 -37.5 -84.5t-122.5 -38.5h-305q-62 0 -89.5 19.5t-27.5 62.5q0 49 37 86t123 37h31l165 784h-30q-63 0 -89 19
t-26 63q0 20 6.5 39.5t22.5 39.5t49.5 32t81.5 12h305q38 0 60 -4t39.5 -23t17.5 -55q0 -48 -37 -85.5t-123 -37.5h-72l-63 -305l430 313q-47 17 -47 68q0 52 36.5 90.5t122.5 38.5h207q58 0 86.5 -16t28.5 -64q0 -46 -35.5 -85.5t-116.5 -39.5l-428 -313
q85 -50 149.5 -172.5t98.5 -298.5h66q59 0 87.5 -16.5t28.5 -63.5z" />
    <glyph glyph-name="L" unicode="L" 
d="M1010 1112q0 -48 -37 -85.5t-123 -37.5h-117l-166 -784h441l41 188q25 137 131 137q35 0 58.5 -21.5t23.5 -55.5q0 -13 -9 -60l-84 -393h-966q-62 0 -89.5 19.5t-27.5 62.5q0 49 37 86t123 37h116l166 784h-114q-63 0 -90 19t-27 63q0 20 6 38.5t22 39t50 33t82 12.5h436
q38 0 60 -4t39.5 -23t17.5 -55z" />
    <glyph glyph-name="M" unicode="M" 
d="M758 82q0 49 37 86t123 37h71l125 592l-336 -514h-186l-133 514l-125 -592h72q58 0 86 -15.5t28 -64.5q0 -47 -37.5 -86t-122.5 -39h-264q-63 0 -89.5 19t-26.5 63q0 18 7 37.5t22.5 39.5t46.5 33t73 13l166 784q-44 5 -65 24.5t-21 57.5q0 20 6.5 39.5t22.5 39.5
t49.5 32t81.5 12h221l153 -608l408 608h223q58 0 87.5 -15.5t29.5 -64.5q0 -14 -5 -31t-17.5 -38t-41 -37t-67.5 -19l-166 -784q54 0 79 -19.5t25 -60.5q0 -48 -37 -86.5t-122 -38.5h-265q-63 0 -89.5 19t-26.5 63z" />
    <glyph glyph-name="N" unicode="N" 
d="M1446 1112q0 -42 -35.5 -82.5t-114.5 -40.5l-211 -989h-200l-361 807l-127 -602h72q58 0 86.5 -16t28.5 -64q0 -47 -37.5 -86t-122.5 -39h-264q-63 0 -90 19t-27 63q0 18 7 37t22.5 39.5t46.5 33.5t74 13l165 784h-30q-63 0 -89 19t-26 63q0 48 37 85.5t123 37.5h233
l359 -803l127 598h-72q-63 0 -89 19t-26 63q0 49 36 86t122 37h266q38 0 60 -4t39.5 -23t17.5 -55z" />
    <glyph glyph-name="O" unicode="O" 
d="M154 451q0 132 45 255t120 215t168.5 161.5t193 105t191.5 35.5q196 0 326.5 -135t130.5 -338q0 -135 -45 -259.5t-120 -217t-168.5 -162t-194 -105t-193.5 -35.5q-195 0 -324.5 137t-129.5 343zM829 1018q-86 0 -171.5 -45t-149.5 -116.5t-103.5 -167t-39.5 -191.5
q0 -138 80.5 -230t203.5 -92q117 0 226.5 74.5t176 196.5t66.5 253q0 137 -82.5 227.5t-206.5 90.5z" />
    <glyph glyph-name="P" unicode="P" 
d="M256 1071q0 20 6.5 39.5t22.5 39.5t49.5 32t81.5 12h477q172 0 271.5 -83t99.5 -228q0 -73 -31.5 -150t-89.5 -141q-86 -98 -191 -140t-266 -42h-201l-43 -205h201q60 0 88.5 -15.5t28.5 -64.5q0 -47 -37.5 -86t-122.5 -39h-436q-62 0 -89.5 19.5t-27.5 62.5
q0 48 37 85.5t123 37.5h31l165 784h-30q-64 0 -90.5 18.5t-26.5 63.5zM608 989l-80 -375h242q120 0 196 65.5t76 168.5q0 66 -51.5 103.5t-140.5 37.5h-242z" />
    <glyph glyph-name="Q" unicode="Q" 
d="M410 14q-3 2 -11 7q-36 23 -58 39t-62 55.5t-63.5 81t-42.5 109t-19 145.5q0 145 61 287t159.5 248t231 171.5t268.5 65.5q196 0 325.5 -137t129.5 -343q0 -184 -92.5 -349.5t-261.5 -284.5q-92 -66 -183 -94.5t-206 -28.5q-19 0 -35 2l-16 -49q64 10 104 10
q61 0 146 -20.5t104 -20.5q41 0 97.5 32.5t86.5 32.5q37 0 60.5 -22t23.5 -57q0 -51 -55 -97t-126 -70t-130 -24q-52 0 -121 28.5t-121 28.5q-70 0 -190 -26.5t-140 -26.5q-32 0 -54.5 23.5t-22.5 56.5q0 32 12.5 54t46.5 50zM829 1018q-115 0 -224 -75t-176 -196.5
t-67 -250.5q0 -138 82 -230t205 -92q88 0 174 44.5t150.5 117t104.5 169t40 195.5q0 137 -82.5 227.5t-206.5 90.5z" />
    <glyph glyph-name="R" unicode="R" 
d="M1292 123q0 -46 -37 -84.5t-122 -38.5h-160q-47 151 -134 291.5t-147 163.5h-196l-54 -250h72q58 0 86.5 -16.5t28.5 -65.5q0 -46 -37.5 -84.5t-122.5 -38.5h-305q-63 0 -90 19t-27 63q0 47 37.5 85t122.5 38h31l165 784h-30q-63 0 -89 19t-26 63q0 20 6.5 39.5
t22.5 39.5t49.5 32t81.5 12h456q177 0 278 -79.5t101 -217.5q0 -233 -292 -377q106 -115 188 -315h27q65 0 90.5 -18t25.5 -64zM539 659h155q140 0 239 59t99 142q0 58 -53 93.5t-141 35.5h-230z" />
    <glyph glyph-name="S" unicode="S" 
d="M559 842q0 -43 34 -72t89 -44.5t121.5 -29t132.5 -32.5t121 -47.5t89 -81.5t34 -127q0 -123 -71.5 -223.5t-198.5 -157t-283 -56.5q-167 0 -303 80q-32 -29 -51 -39t-44 -10q-35 0 -58.5 22t-23.5 54q0 21 9 59l28 135q15 70 47 103t86 33q26 0 42 -6.5t23.5 -22t10 -29
t4.5 -41.5q4 -55 80 -94t176 -39q128 0 219 52.5t91 125.5q0 44 -34.5 72t-93 42t-122.5 24.5t-136 31t-120 51.5q-53 35 -84 92.5t-31 120.5q0 88 42 168.5t113 138.5t169 93t204 35q160 0 252 -68q25 38 45.5 53t49.5 15q36 0 58.5 -20.5t22.5 -53.5q0 -25 -8 -62
l-39 -180q-3 -13 -6.5 -26.5t-14 -34.5t-24 -37t-36 -27.5t-50.5 -11.5q-17 0 -29.5 4t-21 7t-14 14.5t-8.5 15.5t-4.5 22.5t-1.5 21.5t-1 26q0 61 -59 99t-154 38q-107 0 -187.5 -53t-80.5 -123z" />
    <glyph glyph-name="T" unicode="T" 
d="M262 82q0 49 37 86t123 37h131l168 784h-219l-41 -190q-17 -72 -48 -102q-33 -33 -83 -33q-34 0 -58 22t-24 53q0 27 8 60l84 395h1057l-84 -395q-28 -135 -131 -135q-35 0 -58.5 21.5t-23.5 53.5q0 24 8 60l41 190h-223l-168 -784h135q59 0 88 -16t29 -64
q0 -47 -37.5 -86t-122.5 -39h-473q-61 0 -88 19.5t-27 62.5z" />
    <glyph glyph-name="U" unicode="U" 
d="M1327 1194q58 0 87.5 -15.5t29.5 -64.5q0 -54 -40 -89.5t-110 -35.5l-120 -569q-40 -190 -203 -319.5t-361 -129.5q-167 0 -276 100t-109 253q0 48 11 96l120 569q-55 0 -79.5 19.5t-24.5 62.5q0 20 6.5 39.5t22.5 39.5t49.5 32t81.5 12h266q38 0 59.5 -4t38.5 -22.5
t17 -53.5q0 -50 -36.5 -87.5t-123.5 -37.5h-72l-125 -588q-4 -28 -4 -41q0 -79 63 -131.5t158 -52.5q109 0 200.5 65.5t111.5 159.5l125 588h-72q-63 0 -89 19t-26 63q0 20 6.5 39.5t22.5 39.5t49.5 32t81.5 12h264z" />
    <glyph glyph-name="V" unicode="V" 
d="M733 1112q0 -48 -37 -85.5t-123 -37.5h-38l147 -694l444 694h-51q-58 0 -86 16t-28 66q0 20 6 38.5t21.5 39t49.5 33t82 12.5h269q28 0 45.5 -2.5t35.5 -10t26.5 -25t8.5 -44.5q0 -21 -6.5 -40t-23 -39t-51 -32t-83.5 -12l-630 -989h-201l-205 989h-24q-95 6 -95 82
q0 20 6.5 39.5t22.5 39.5t49.5 32t81.5 12h272q63 0 89 -19t26 -63z" />
    <glyph glyph-name="W" unicode="W" 
d="M1368 1194q58 0 87.5 -15.5t29.5 -64.5q0 -47 -32.5 -81.5t-86.5 -43.5l-334 -989h-225l-72 567l-307 -567h-227l84 989q-76 9 -76 74q0 22 6.5 42.5t22.5 41.5t49.5 34t81.5 13h270q38 0 60 -4t39.5 -23t17.5 -55q0 -48 -37.5 -85.5t-124.5 -37.5h-98l-43 -557l254 463
h211l57 -463l192 557h-110q-63 0 -89 19t-26 63q0 20 6 38.5t22 39t50 33t82 12.5h266z" />
    <glyph glyph-name="X" unicode="X" 
d="M1300 1194q58 0 87.5 -15.5t29.5 -64.5q0 -54 -39.5 -88.5t-101.5 -36.5l-402 -381l256 -403q101 0 101 -82q0 -47 -37.5 -85t-122.5 -38h-225q-63 0 -90 19t-27 63q0 10 2 21.5t10.5 29.5t22 32t40.5 25.5t62 14.5l-155 246l-262 -246q92 -3 92 -82q0 -48 -37 -85.5
t-123 -37.5h-225q-63 0 -90 19t-27 63q0 54 40 88.5t103 34.5l428 405l-243 379q-99 3 -99 82q0 20 6.5 39.5t22.5 39.5t49.5 32t81.5 12h186q60 0 88.5 -15.5t28.5 -64.5q0 -41 -23.5 -69.5t-76.5 -53.5l145 -223l238 223q-36 20 -47 35.5t-11 44.5q0 48 36.5 85.5
t123.5 37.5h184z" />
    <glyph glyph-name="Y" unicode="Y" 
d="M1421 1114q0 -19 -7 -39t-22.5 -40t-47 -33t-74.5 -13h-6l-441 -487l-61 -297h133q59 0 88 -16t29 -64q0 -47 -37.5 -86t-122.5 -39h-473q-62 0 -89.5 19.5t-27.5 62.5q0 49 36.5 86t123.5 37h135l61 297l-233 487h-12q-47 0 -73 21t-26 61q0 48 36.5 85.5t123.5 37.5
h184q58 0 86.5 -16t28.5 -64q0 -84 -102 -125l135 -276l252 276q-34 13 -48 32t-14 50q0 49 37 86t123 37h191q58 0 86 -15.5t28 -64.5z" />
    <glyph glyph-name="Z" unicode="Z" 
d="M455 205h463l32 147q26 135 131 135q35 0 58.5 -21.5t23.5 -55.5q0 -19 -8 -58l-76 -352h-929l43 205l784 784h-365l-30 -143q-30 -135 -133 -135q-34 0 -58 22t-24 53q0 11 10 60l74 348h835l-43 -199z" />
    <glyph glyph-name="bracketleft" unicode="[" 
d="M1225 1204q0 -48 -37 -86.5t-123 -38.5h-119l-250 -1177h121q59 0 88 -16t29 -64t-37 -86.5t-123 -38.5h-325l337 1587h324q58 0 86.5 -16t28.5 -64z" />
    <glyph glyph-name="backslash" unicode="\" 
d="M659 1333l363 -1388q10 -38 10 -56q0 -46 -39 -83t-86 -37q-38 0 -56 18.5t-32 71.5l-360 1390q-10 34 -10 54q0 46 38.5 83t85.5 37q37 0 54.5 -18.5t31.5 -71.5z" />
    <glyph glyph-name="bracketright" unicode="]" 
d="M213 -223q0 48 37 86.5t123 38.5h119l249 1177h-120q-59 0 -88 16t-29 64t37 86.5t123 38.5h325l-338 -1587h-323q-58 0 -86.5 16t-28.5 64z" />
    <glyph glyph-name="asciicircum" unicode="^" 
d="M827 1012l-301 -283q-43 -40 -63 -51.5t-49 -11.5q-37 0 -60.5 23.5t-23.5 58.5q0 29 13 51t52 59l502 477l299 -477q29 -44 29 -72q0 -44 -40 -82t-87 -38q-29 0 -45 11.5t-41 49.5z" />
    <glyph glyph-name="underscore" unicode="_" 
d="M1184 -205l-43 -205h-1229l43 205h1229z" />
    <glyph glyph-name="grave" unicode="`" 
d="M711 1331l163 -166q35 -35 35 -75q0 -27 -28.5 -50.5t-61.5 -23.5q-26 0 -59 33l-164 168q-35 35 -35 73q0 31 27 52.5t61 21.5q17 0 28.5 -6t33.5 -27z" />
    <glyph glyph-name="a" unicode="a" 
d="M1194 125q0 -49 -37 -87t-123 -38h-239l10 47q-171 -80 -356 -80q-137 0 -226.5 66.5t-89.5 167.5q0 19 7.5 46.5t26.5 65t47.5 74.5t75 74t103.5 65.5t139 46t177 17.5q86 0 206 -21q13 54 13 68q0 80 -172 80q-81 0 -193.5 -23.5t-138.5 -23.5q-34 0 -56 22.5t-22 57.5
q0 49 45 85t117.5 53.5t144 25.5t144.5 8q160 0 252 -62.5t92 -169.5q0 -39 -8 -72l-89 -413h35q58 0 86.5 -16t28.5 -64zM655 401q-121 0 -210 -52.5t-89 -106.5q0 -29 40 -49.5t98 -20.5q170 0 362 104l21 103q-123 22 -222 22z" />
    <glyph glyph-name="b" unicode="b" 
d="M231 1155q0 20 6.5 39t22.5 39t49.5 32.5t81.5 12.5h238l-99 -457q150 103 326 103q96 0 172 -24.5t121.5 -62.5t75 -89.5t40.5 -99t11 -97.5q0 -34 -8 -78t-29 -100.5t-51.5 -111t-80.5 -107.5t-112 -93.5t-149.5 -65t-188.5 -24.5q-89 0 -152.5 22.5t-131.5 78.5
l-17 -72h-237q-62 0 -88.5 19t-26.5 63q0 48 37 85.5t123 37.5h33l184 868h-33q-64 0 -90.5 18.5t-26.5 63.5zM702 176q59 0 110.5 14.5t87.5 37.5t65.5 53.5t47.5 61.5t30 62t17 54.5t5 40.5q0 102 -66 160.5t-190 58.5q-81 0 -147.5 -27t-105 -66t-65 -86t-36 -83.5
t-9.5 -61.5q0 -103 67.5 -161t188.5 -58z" />
    <glyph glyph-name="c" unicode="c" 
d="M190 319q0 34 8.5 78.5t29.5 103t53 116t84 113t116 98t155.5 68.5t197.5 26q171 0 280 -62q29 62 90 62q37 0 57.5 -20.5t20.5 -57.5q0 -14 -8 -58l-33 -157q-35 -135 -133 -135q-49 0 -65.5 25t-16.5 73q0 47 -39.5 76.5t-89.5 39t-109 9.5q-92 0 -165 -30
t-113.5 -72.5t-67 -94.5t-35 -90t-8.5 -65q0 -193 314 -193q86 0 151 12t100.5 28.5t60.5 33.5t46.5 29t44.5 12q35 0 58.5 -23.5t23.5 -60.5q0 -18 -11.5 -43t-48 -60t-93.5 -63.5t-160.5 -49t-235.5 -20.5q-94 0 -169 16t-123.5 44.5t-82.5 62.5t-51.5 75.5t-25 78
t-7.5 75.5z" />
    <glyph glyph-name="d" unicode="d" 
d="M963 1157q0 19 6.5 37.5t22 38.5t49 32.5t81.5 12.5h238l-227 -1073h32q57 0 86 -16t29 -66q0 -48 -37 -85.5t-123 -37.5h-237l16 72q-92 -56 -166.5 -78.5t-163.5 -22.5q-96 0 -171 24.5t-120.5 63t-74.5 90t-40 99t-11 96.5q0 104 44.5 208.5t122.5 184.5
q184 187 455 187q176 0 285 -103l53 254h-33q-63 0 -89.5 18.5t-26.5 63.5zM985 500q0 28 -5.5 54.5t-22.5 57.5t-44.5 54t-76 38t-111.5 15q-68 0 -125.5 -19t-95.5 -49.5t-67 -67t-44.5 -74t-23 -66t-7.5 -48.5q0 -103 68 -161t188 -58q82 0 148.5 27t106 65.5t66 85.5
t36.5 83.5t10 62.5z" />
    <glyph glyph-name="e" unicode="e" 
d="M666 172q101 0 244 34t171 34q35 0 56.5 -22t21.5 -56q0 -69 -67 -105q-66 -35 -216 -62.5t-274 -27.5q-209 0 -329.5 102t-120.5 277q0 112 53 218.5t140 184.5t205 125.5t243 47.5q199 0 317.5 -106.5t118.5 -285.5q0 -28 -4 -56.5t-12.5 -70t-10.5 -51.5h-837
q17 -92 91 -136t210 -44zM410 532h604q-7 83 -79.5 134t-182.5 51q-114 0 -206.5 -50t-135.5 -135z" />
    <glyph glyph-name="f" unicode="f" 
d="M1227 813q0 -47 -37.5 -85t-122.5 -38h-309l-103 -485h285q59 0 88 -16t29 -64q0 -47 -37.5 -86t-122.5 -39h-610q-61 0 -88 19.5t-27 62.5q0 49 37 86t123 37h119l102 485h-94q-64 0 -91.5 19t-27.5 63q0 49 35.5 86t126.5 37h94l16 76q31 141 155 223t308 82
q183 0 261.5 -28t78.5 -81q0 -47 -37.5 -86t-83.5 -39q-12 0 -104 14.5t-178 14.5q-177 0 -195 -100l-14 -76h307q59 0 88 -15t29 -67z" />
    <glyph glyph-name="g" unicode="g" 
d="M219 -328q0 48 36.5 85.5t123.5 37.5h223q88 0 150 47t79 127l23 103q-160 -101 -311 -101q-175 0 -284 103.5t-109 269.5q0 150 83 284.5t221.5 215t293.5 80.5q166 0 266 -103l14 74h240q56 0 85 -15.5t29 -66.5q0 -48 -36.5 -85.5t-122.5 -37.5h-33l-154 -721
q-34 -163 -169 -271t-304 -108h-227q-63 0 -90 19t-27 63zM707 719q-132 0 -239.5 -100t-107.5 -224q0 -96 65 -157.5t167 -61.5q135 0 241.5 99.5t106.5 224.5q0 97 -65 158t-168 61z" />
    <glyph glyph-name="h" unicode="h" 
d="M274 1155q0 20 6.5 39t22.5 39t49.5 32.5t81.5 12.5h238l-103 -481q149 125 308 125q135 0 217 -69.5t82 -186.5q0 -40 -9 -84l-82 -377h13q28 0 45.5 -2.5t35.5 -10t26.5 -25t8.5 -44.5q0 -47 -37 -85t-122 -38h-230q-63 0 -89.5 19t-26.5 63q0 48 37 85.5t124 37.5h13
l73 350q9 38 9 63q0 45 -42 72t-112 27q-74 0 -129 -26t-158 -111l-80 -375h13q58 0 87 -16.5t29 -65.5t-37 -86t-124 -37h-230q-62 0 -88 19t-26 63q0 47 37 85t122 38h13l184 868h-33q-64 0 -90.5 18.5t-26.5 63.5z" />
    <glyph glyph-name="i" unicode="i" 
d="M381 772q0 21 6.5 40t22.5 39t50.5 32t82.5 12h364l-145 -690h248q57 0 86.5 -16t29.5 -66q0 -19 -7 -38.5t-23 -39.5t-49.5 -32.5t-79.5 -12.5h-703q-63 0 -90 19t-27 63q0 49 37 86t123 37h250l102 485h-159q-64 0 -91.5 19t-27.5 63zM961 1276l-48 -215h-241l47 215
h242z" />
    <glyph glyph-name="j" unicode="j" 
d="M172 -328q0 48 37 85.5t123 37.5h225q89 0 151.5 47t79.5 127l154 721h-414q-63 0 -89.5 19t-26.5 63q0 48 36.5 85.5t122.5 37.5h619l-197 -926q-34 -161 -170 -270t-303 -109h-231q-63 0 -90 19t-27 63zM1153 1276l-47 -215h-244l45 215h246z" />
    <glyph glyph-name="k" unicode="k" 
d="M1192 123q0 -47 -37.5 -85t-122.5 -38h-241q-63 0 -90 19t-27 63q0 51 51 96l-172 187l-43 -29l-70 -336h-239q-62 0 -88.5 19t-26.5 63q0 48 37 85.5t123 37.5h33l184 868h-33q-63 0 -90 18t-27 62q0 21 6.5 40.5t22.5 40t49.5 32.5t81.5 12h238l-148 -690l189 129
q-17 33 -17 53q0 50 37 87.5t123 37.5h229q63 0 90 -18.5t27 -61.5q0 -48 -37 -86.5t-123 -38.5h-55l-285 -196l267 -289h67q59 0 88 -15.5t29 -66.5z" />
    <glyph glyph-name="l" unicode="l" 
d="M463 1155q0 49 36.5 86t125.5 37h364l-227 -1073h248q57 0 86.5 -16t29.5 -66q0 -19 -7 -38.5t-23 -39.5t-49.5 -32.5t-79.5 -12.5h-703q-63 0 -90 19t-27 63q0 49 37 86t123 37h250l184 868h-161q-56 0 -86.5 16.5t-30.5 65.5z" />
    <glyph glyph-name="m" unicode="m" 
d="M127 772q0 47 37.5 85t124.5 38h190l-10 -49q64 43 104.5 59.5t85.5 16.5q120 0 187 -101q115 101 233 101q97 0 158 -57t61 -148q0 -29 -6 -64l-96 -448q104 0 104 -82q0 -47 -37 -85t-122 -38h-193l135 637q4 14 4 39q-3 41 -57 41q-41 0 -76.5 -18.5t-99.5 -73.5
l-88 -420q102 0 102 -82q0 -47 -37 -85t-122 -38h-193l135 637q6 21 6 37q0 43 -57 43q-43 0 -82.5 -20t-95.5 -72l-88 -420q104 0 104 -82q0 -47 -37 -85t-122 -38h-181q-63 0 -89.5 19t-26.5 63q0 54 41 88.5t106 34.5l102 485q-104 0 -104 82z" />
    <glyph glyph-name="n" unicode="n" 
d="M236 772q0 48 37 85.5t124 37.5h193l-21 -98q89 71 156 98t152 27q135 0 218 -69t83 -181q0 -34 -11 -94l-80 -373q107 0 107 -82q0 -47 -37.5 -85t-122.5 -38h-182q-63 0 -90 19t-27 63q0 42 35.5 82.5t114.5 40.5l76 364q6 27 6 47q0 49 -41.5 75t-118.5 26
q-71 0 -133.5 -30.5t-151.5 -108.5l-78 -373h13q57 0 85.5 -16.5t28.5 -65.5q0 -47 -37 -85t-122 -38h-230q-62 0 -88 19t-26 63q0 48 36.5 85.5t122.5 37.5h13l102 485q-106 0 -106 82z" />
    <glyph glyph-name="o" unicode="o" 
d="M172 356q0 70 27.5 147t83 151.5t130.5 134t180.5 96.5t223.5 37q190 0 310 -109t120 -281q0 -145 -89.5 -276.5t-237.5 -210t-312 -78.5q-196 0 -316 107t-120 282zM770 717q-103 0 -193 -44.5t-143 -119.5t-53 -160q0 -97 76 -159t194 -62q155 0 271 97.5t116 226.5
q0 97 -75.5 159t-192.5 62z" />
    <glyph glyph-name="p" unicode="p" 
d="M150 772q0 48 36.5 85.5t122.5 37.5h238l-21 -92q89 65 167 92t173 27q187 0 298.5 -101t111.5 -270q0 -143 -81 -265.5t-220 -194t-301 -71.5q-87 0 -154.5 27t-134.5 88l-72 -340h119q58 0 86.5 -16t28.5 -64q0 -49 -37 -87t-123 -38h-356q-62 0 -88.5 19t-26.5 63
q0 48 37 85.5t123 37.5h33l190 895h-35q-63 0 -88.5 18.5t-25.5 63.5zM709 225q82 0 148 24t104 58t64 76.5t35 75.5t9 57q0 92 -69 146.5t-185 54.5q-86 0 -153.5 -25t-105.5 -60t-62.5 -78t-32.5 -74.5t-8 -53.5q0 -33 12 -65t38.5 -64t79.5 -52t126 -20z" />
    <glyph glyph-name="q" unicode="q" 
d="M559 -330q0 49 37 87t123 38h119l71 340q-92 -62 -171.5 -88.5t-170.5 -26.5q-183 0 -298 95t-115 247q0 31 8 73t28.5 96t50.5 107.5t79.5 105t110 91t147 63.5t186.5 24q95 0 161 -27t128 -92l18 92h240q58 0 86 -16t28 -66q0 -48 -36.5 -85.5t-122.5 -37.5h-33
l-191 -895h33q59 0 88 -16t29 -66q0 -47 -37.5 -85t-122.5 -38h-356q-59 0 -88 16t-29 64zM625 225q81 0 147 24t105 58t65 75.5t35.5 73.5t9.5 54q0 98 -68 152.5t-190 54.5q-82 0 -148.5 -24t-105 -58t-64.5 -76.5t-35 -75.5t-9 -57q0 -92 70 -146.5t188 -54.5z" />
    <glyph glyph-name="r" unicode="r" 
d="M326 772q0 46 36 84.5t121 38.5h277l-27 -131q149 93 224.5 124.5t150.5 31.5q81 0 152 -49t71 -103q0 -46 -40 -85.5t-87 -39.5q-31 0 -70.5 37t-74.5 37q-47 0 -131.5 -46.5t-249.5 -162.5l-64 -303h285q57 0 87 -16t30 -66q0 -19 -7 -38.5t-23.5 -39.5t-50 -32.5
t-79.5 -12.5h-610q-62 0 -88.5 19t-26.5 63q0 48 36 85.5t122 37.5h121l102 487h-72q-61 0 -87.5 18.5t-26.5 61.5z" />
    <glyph glyph-name="s" unicode="s" 
d="M1057 575q-32 0 -49 14.5t-27.5 35.5t-28 42t-63 35.5t-119.5 14.5q-84 0 -151.5 -24.5t-67.5 -53.5t54.5 -46t126.5 -23.5t162 -27t144 -53.5q101 -66 101 -182q0 -94 -68.5 -172t-189 -123t-265.5 -45q-176 0 -290 60q-40 -25 -72 -25q-37 0 -60.5 21.5t-23.5 56.5
q0 16 8 57l15 68q15 71 47 104t86 33q77 0 86 -90q71 -80 239 -80q104 0 181 29t77 67q0 44 -61 65.5t-176 33.5q-188 20 -270.5 72.5t-82.5 152.5q0 138 141.5 234t346.5 96q147 0 252 -54q20 31 36.5 42.5t41.5 11.5q34 0 54.5 -20t20.5 -54q0 -23 -8 -62l-16 -75
q-26 -136 -131 -136z" />
    <glyph glyph-name="t" unicode="t" 
d="M1116 813q0 -47 -37.5 -85t-122.5 -38h-370l-86 -401q-6 -27 -6 -49q0 -68 157 -68q79 0 148.5 14.5t107.5 31.5t74.5 31.5t58.5 14.5q35 0 57.5 -22.5t22.5 -59.5q0 -56 -65 -101t-157 -68t-172 -34.5t-130 -11.5q-51 0 -101.5 10.5t-100.5 33.5t-81.5 69t-31.5 108
q0 32 6 62l94 440h-72q-63 0 -89.5 19t-26.5 63q0 20 6 38.5t21.5 39t49.5 33t82 12.5h72l39 180q25 135 131 135q35 0 58.5 -21.5t23.5 -55.5q0 -19 -8 -58l-39 -180h370q38 0 60 -4t39.5 -23t17.5 -55z" />
    <glyph glyph-name="u" unicode="u" 
d="M799 772q0 49 36.5 86t122.5 37h277l-148 -690q107 0 107 -80q0 -48 -37.5 -86.5t-124.5 -38.5h-192l20 98q-93 -72 -157 -98.5t-150 -26.5q-135 0 -218 69t-83 183q0 39 10 94l78 373h-33q-62 0 -88 19t-26 63q0 48 36 84.5t123 36.5h238l-121 -569q-6 -24 -6 -47
q0 -48 40 -74.5t113 -26.5q77 0 136 28t155 111l80 375h-72q-63 0 -89.5 18.5t-26.5 61.5z" />
    <glyph glyph-name="v" unicode="v" 
d="M711 813q0 -47 -36.5 -85t-121.5 -38h-12l129 -440l315 440h-20q-63 0 -90 19t-27 63q0 48 37 85.5t123 37.5h274q59 0 88 -16t29 -64q0 -49 -37 -87t-123 -38h-33l-489 -690h-211l-197 690h-26q-63 0 -90 19t-27 63q0 48 37 85.5t123 37.5h270q58 0 86.5 -16t28.5 -66z
" />
    <glyph glyph-name="w" unicode="w" 
d="M1284 895q38 0 60 -4t39.5 -23t17.5 -55q0 -12 -5 -28.5t-17.5 -37t-41 -36.5t-67.5 -19l-318 -692h-188l-68 371l-217 -371h-192l-27 692q-92 3 -92 80q0 48 36.5 85.5t123.5 37.5h188q58 0 86.5 -16t28.5 -64q0 -49 -35.5 -86t-118.5 -37l12 -313l191 323h182l56 -323
l149 313h-14q-59 0 -88 16t-29 64t37 85.5t123 37.5h188z" />
    <glyph glyph-name="x" unicode="x" 
d="M1196 895q59 0 88 -16t29 -64q0 -51 -36.5 -85t-96.5 -40l-318 -225l254 -260q92 -3 92 -82q0 -47 -37 -85t-122 -38h-230q-63 0 -90 19t-27 63q0 42 30 76.5t77 46.5l-127 125l-178 -125q36 -17 48.5 -33t12.5 -45q0 -51 -37.5 -89t-124.5 -38h-225q-63 0 -90 19t-27 63
q0 12 5.5 28.5t19 38t42.5 37.5t69 19l352 262l-215 223q-88 9 -88 82q0 48 37 85.5t123 37.5h190q58 0 86.5 -16t28.5 -66q0 -31 -20.5 -62t-55.5 -51l104 -100l146 102q-37 32 -37 68q0 48 37 86.5t123 38.5h188z" />
    <glyph glyph-name="y" unicode="y" 
d="M-25 -328q0 47 37.5 85t122.5 38h205l158 211l-207 684q-82 12 -82 82q0 48 37 85.5t123 37.5h184q58 0 86.5 -16t28.5 -64q0 -55 -40.5 -89t-105.5 -36l140 -457l339 457h-10q-100 0 -100 82q0 48 37 85.5t123 37.5h188q38 0 60 -4t39.5 -23t17.5 -55q0 -49 -36 -83
t-93 -40l-664 -895h10q59 0 88 -16t29 -64t-37 -86.5t-123 -38.5h-438q-63 0 -90 19t-27 63z" />
    <glyph glyph-name="z" unicode="z" 
d="M551 690q0 -2 -3 -16t-5.5 -22.5t-8 -24.5t-11.5 -26.5t-16.5 -23.5t-23 -21t-30 -13.5t-37.5 -5.5q-35 0 -58.5 21.5t-23.5 53.5q0 24 8 60l47 223h838l-35 -166l-649 -524h360q31 110 125 110q35 0 58.5 -21.5t23.5 -53.5q0 -19 -8 -60l-39 -180h-889l37 170l643 520
h-303z" />
    <glyph glyph-name="braceleft" unicode="{" 
d="M715 10q-2 -7 -2 -22q0 -37 23 -65t59 -29q39 -3 64.5 -26.5t25.5 -58.5q0 -53 -46 -87.5t-103 -34.5q-111 0 -174.5 63t-63.5 168q0 38 9 78l54 256q2 12 2 19q0 39 -29 68.5t-75 29.5q-43 0 -67 21t-24 57q0 53 40.5 90.5t94.5 37.5q53 0 98 37t54 82l58 273
q27 126 131.5 217.5t231.5 91.5q46 0 74.5 -22.5t28.5 -59.5q0 -52 -43.5 -87t-91.5 -38q-43 -3 -81.5 -39t-47.5 -78l-51 -239q-16 -74 -68.5 -143.5t-103.5 -98.5q32 -25 55.5 -74.5t23.5 -102.5q0 -19 -5 -42z" />
    <glyph glyph-name="bar" unicode="|" 
d="M958 1139l-280 -1317q-9 -43 -26 -72.5t-38 -41.5t-36.5 -16.5t-30.5 -4.5q-35 0 -58.5 21.5t-23.5 53.5q0 24 8 60l281 1317q3 17 9.5 35t20.5 43t40.5 41t60.5 16q35 0 58.5 -22t23.5 -56q0 -14 -9 -57z" />
    <glyph glyph-name="braceright" unicode="}" 
d="M518 10l52 242q13 62 64 125.5t103 93.5q-31 23 -53 74t-22 111q0 28 6 57l51 239q2 7 2 22q0 37 -23 64.5t-59 30.5q-40 3 -65.5 26.5t-25.5 58.5q0 44 40.5 83t106.5 39q108 0 173.5 -69t65.5 -173q0 -30 -8 -67l-58 -273q-2 -14 -2 -20q0 -40 28.5 -69.5t75.5 -29.5
q41 0 66 -22t25 -59q0 -43 -34.5 -84t-100.5 -41q-52 0 -97.5 -37t-54.5 -80l-54 -256q-29 -136 -129.5 -222.5t-231.5 -86.5q-47 0 -76 22.5t-29 59.5q0 52 43.5 87t91.5 38q42 1 81 37t48 79z" />
    <glyph glyph-name="asciitilde" unicode="~" 
d="M920 582q22 0 52 25.5t56 56t61.5 56t67.5 25.5q36 0 60 -23t24 -58q0 -52 -72 -127q-99 -99 -160 -134.5t-132 -35.5q-46 0 -90.5 21.5t-77.5 52t-61.5 61t-52.5 52t-40 21.5q-18 0 -48.5 -25.5t-59 -56t-64.5 -56t-64 -25.5q-35 0 -60.5 24t-25.5 56q0 37 36.5 88.5
t90 97t121 78t123.5 32.5q50 0 94.5 -21t74.5 -51.5t55.5 -61t49 -51.5t42.5 -21z" />
    <glyph glyph-name="nonbreakingspace" unicode="&#xa0;" 
 />
    <glyph glyph-name="exclamdown" unicode="&#xa1;" 
d="M403 -178l189 608q15 47 47.5 73.5t75.5 26.5q38 0 60 -21.5t22 -59.5q0 -13 -2 -19l-70 -608q-13 -114 -67 -173t-142 -59q-60 0 -97.5 34.5t-37.5 90.5q0 37 22 107zM782 928h35q49 0 80 -30.5t31 -78.5q0 -62 -52 -112t-116 -50h-35q-49 0 -80 30.5t-31 76.5
q0 63 51 113.5t117 50.5z" />
    <glyph glyph-name="cent" unicode="&#xa2;" 
d="M719 403q52 0 102.5 15.5t83.5 34t66.5 34t54.5 15.5q34 0 58 -24.5t24 -59.5q0 -70 -96 -129.5t-250 -85.5l-33 -158q-10 -44 -28 -73.5t-38.5 -41.5t-35.5 -16t-31 -4q-34 0 -58 22.5t-24 53.5q0 18 8 59l37 166q-126 32 -195 119t-69 213q0 177 127 325t317 191
q6 22 13 60t12 66.5t16 62t25.5 55.5t40 36.5t59.5 14.5q35 0 58.5 -22t23.5 -56q0 -8 -10 -59l-29 -138q86 -11 139 -49q24 8 43 8q37 0 60.5 -21.5t23.5 -55.5q0 -38 -21.5 -126t-43.5 -110q-40 -43 -92 -43q-27 0 -44 8t-24 23.5t-9 30t-3 35.5v7q-2 46 -34.5 67
t-102.5 21q-135 0 -235.5 -84.5t-100.5 -199.5q0 -82 60.5 -134.5t154.5 -52.5z" />
    <glyph glyph-name="sterling" unicode="&#xa3;" 
d="M909 621q0 -47 -37 -85t-122 -38h-95q-17 -97 -39.5 -158.5t-68.5 -134.5h418q35 94 120 94q37 0 60.5 -21.5t23.5 -56.5q0 -98 -72 -159.5t-192 -61.5h-657q-63 0 -90 19t-27 63q0 105 127 123q68 9 118 85t73 208h-142q-60 0 -88.5 16t-28.5 66q0 47 35.5 84.5
t126.5 37.5h90q-8 49 -8 86q0 183 126.5 310t309.5 127q110 0 196.5 -58.5t86.5 -132.5q0 -47 -40 -86t-87 -39q-23 0 -39.5 11.5t-28.5 27.5t-26.5 32.5t-41 28t-63.5 11.5q-82 0 -132 -50t-50 -132q0 -54 8 -136h140q59 0 87.5 -15.5t28.5 -65.5z" />
    <glyph glyph-name="currency" unicode="&#xa4;" 
d="M436 795q-1 2 -15.5 20t-20 25t-17.5 25t-17.5 28.5t-10.5 25t-5 25.5q0 43 41.5 81t87.5 38q26 0 41 -9.5t43 -43.5l53 -64q114 53 209 53q58 0 98.5 -11.5t90.5 -43.5l76 62q41 33 61 43t47 10q37 0 60.5 -23.5t23.5 -60.5q0 -31 -16 -54.5t-60 -60.5l-78 -65
q21 -77 21 -127q0 -128 -105 -267l52 -69q37 -47 37 -78q0 -45 -42.5 -84t-91.5 -39q-24 0 -39 10t-42 43l-56 66q-62 -29 -107.5 -40t-99.5 -11q-55 0 -95.5 11.5t-90.5 41.5l-80 -66q-43 -36 -62 -45.5t-46 -9.5q-36 0 -60 24t-24 60q0 31 15.5 55t59.5 62l82 69
q-20 73 -20 127q0 128 102 267zM782 795q-92 0 -164.5 -72.5t-72.5 -163.5q0 -66 43.5 -111t109.5 -45q92 0 167 73.5t75 164.5q0 67 -44.5 110.5t-113.5 43.5z" />
    <glyph glyph-name="yen" unicode="&#xa5;" 
d="M621 1188q59 0 87.5 -14.5t28.5 -65.5q0 -43 -29.5 -78.5t-72.5 -44.5l133 -272l252 272q-64 18 -64 80q0 49 37 86t123 37h187q63 0 89.5 -16t26.5 -66q0 -45 -35.5 -84t-117.5 -39h-4l-371 -408h147q29 0 41.5 -10t12.5 -35q0 -31 -22 -50t-56 -19h-199l-14 -70h198
q29 0 41.5 -10t12.5 -33q0 -32 -21.5 -52t-56.5 -20h-199l-14 -71h94q30 0 47 -2t35.5 -9.5t26.5 -24.5t8 -44q0 -47 -37.5 -86t-122.5 -39h-395q-63 0 -90 19t-27 63q0 20 6.5 39.5t22.5 39.5t49.5 32t81.5 12h96l14 71h-198q-29 0 -41.5 10.5t-12.5 35.5q0 31 21.5 50
t56.5 19h199l14 70h-198q-28 0 -40 10t-12 35q0 31 21 50t55 19h148l-197 408h-16q-47 0 -73 21t-26 61q0 49 37 86t123 37h189z" />
    <glyph glyph-name="brokenbar" unicode="&#xa6;" 
d="M958 1139l-88 -416q-4 -18 -6 -25.5t-12.5 -32.5t-22.5 -38.5t-36 -26t-54 -12.5q-35 0 -58.5 22t-23.5 54q0 18 9 59l88 416q3 17 9.5 35t20.5 43t40.5 41t60.5 16q35 0 58.5 -22t23.5 -56q0 -14 -9 -57zM766 238l-88 -416q-17 -72 -48 -102q-33 -33 -83 -33
q-35 0 -58.5 21.5t-23.5 53.5q0 24 8 60l88 416q35 135 133 135q34 0 57 -22t23 -54q0 -23 -8 -59z" />
    <glyph glyph-name="section" unicode="&#xa7;" 
d="M455 850q0 40 17 86t52 91.5t81.5 83t112.5 60.5t138 23h461l-55 -260q-23 -113 -115 -113q-29 0 -50.5 19t-21.5 45q0 18 3.5 38.5t11 50.5t8.5 36h-295q-65 0 -116.5 -38t-51.5 -85q0 -71 178 -187l166 -104q140 -90 189 -147.5t49 -133.5q0 -106 -73.5 -187.5
t-193.5 -107.5q2 -6 2 -14q0 -28 -10 -67.5t-38 -91t-69 -94t-111.5 -72t-158.5 -29.5h-473l55 260q24 113 115 113q32 0 53 -19t21 -47q0 -12 -5 -35.5t-11.5 -52t-8.5 -39.5h297q61 0 111.5 39t50.5 86q0 71 -174 184l-190 125q-115 73 -165.5 134.5t-50.5 129.5
q0 102 73 182t194 111q-2 12 -2 27zM535 668h-29q-46 -2 -78.5 -26.5t-32.5 -59.5q0 -37 33.5 -74.5t108.5 -87.5l184 -119q118 -85 149 -121h37q44 1 74.5 24t30.5 54q0 73 -158 180l-180 117q-70 46 -139 113z" />
    <glyph glyph-name="dieresis" unicode="&#xa8;" 
d="M686 1339q44 0 72 -27.5t28 -70.5q0 -57 -46.5 -102t-106.5 -45q-41 0 -69.5 28.5t-28.5 69.5q0 55 47 101t104 46zM1112 1339q44 0 72 -27.5t28 -70.5q0 -57 -46.5 -102t-106.5 -45q-41 0 -69.5 28.5t-28.5 69.5q0 55 47 101t104 46z" />
    <glyph glyph-name="copyright" unicode="&#xa9;" 
d="M705 387q58 0 95 13t49.5 28t31.5 28t45 13t42.5 -16.5t16.5 -42.5q0 -63 -98.5 -115.5t-216.5 -52.5q-126 0 -204.5 67.5t-78.5 177.5q0 24 3.5 47t10.5 51t9 40q29 141 140.5 235t248.5 94q82 0 153 -39q20 39 66 39q24 0 39.5 -14.5t15.5 -36.5q0 -3 -6 -39
q-2 -9 -7.5 -39.5t-9.5 -46t-13 -41t-19 -39t-27 -24t-39 -10.5q-32 0 -44.5 17.5t-12.5 61.5q0 26 -37 46t-86 20q-48 0 -87 -17.5t-63.5 -46t-42 -60.5t-26.5 -67t-12.5 -59.5t-3.5 -42.5q3 -63 46.5 -96t121.5 -33zM879 1225q218 0 360.5 -141.5t142.5 -356.5
q0 -143 -65.5 -282.5t-172.5 -243.5t-251 -168t-293 -64q-217 0 -359.5 141.5t-142.5 356.5q0 144 66 283.5t173 243.5t250.5 167.5t291.5 63.5zM844 1075q-112 0 -221 -48.5t-190 -127.5t-131 -185t-50 -216q0 -164 108.5 -271.5t274.5 -107.5q150 0 288 81t222 215.5
t84 280.5q0 164 -109 271.5t-276 107.5z" />
    <glyph glyph-name="ordfeminine" unicode="&#xaa;" 
d="M545 1090q0 36 30.5 62.5t80 40.5t100.5 20t104 6q114 0 179 -43.5t65 -120.5q0 -33 -4 -51l-58 -263h15q49 0 68.5 -14t19.5 -49q0 -43 -33 -69.5t-88 -26.5h-174l4 22q-120 -45 -229 -45q-98 0 -162 47t-64 119q0 23 10.5 54t40 70t73.5 71.5t119 54.5t169 22
q54 0 125 -10q4 16 4 25q0 26 -25.5 36.5t-83.5 10.5q-55 0 -134.5 -16.5t-90.5 -16.5q-26 0 -43.5 18t-17.5 46zM893 784l12 56q-77 14 -133 14q-69 0 -125.5 -29.5t-56.5 -66.5q0 -15 23 -26t55 -11q51 0 113 17.5t112 45.5zM1087 469q0 -39 -27.5 -67.5t-94.5 -28.5h-525
q-56 0 -74 8.5t-18 36.5q0 65 27 88.5t100 23.5h520q51 0 71.5 -13.5t20.5 -47.5z" />
    <glyph glyph-name="guillemotleft" unicode="&#xab;" 
d="M455 446l247 -288q23 -23 23 -45q0 -26 -25.5 -49t-56.5 -23q-22 0 -51 27l-428 378l588 377q41 27 63 27q25 0 40 -13.5t15 -35.5q0 -34 -45 -68zM924 446l247 -288q23 -26 23 -47q0 -25 -26 -47.5t-56 -22.5q-22 0 -51 27l-428 378l588 377q41 27 63 27q25 0 40 -13.5
t15 -35.5q0 -34 -45 -68z" />
    <glyph glyph-name="logicalnot" unicode="&#xac;" 
d="M256 788q0 20 6 38.5t22 39t50 33t82 12.5h731l-115 -540q-4 -18 -6 -25.5t-12.5 -32.5t-22.5 -38.5t-36 -26t-54 -12.5q-35 0 -58.5 21.5t-23.5 53.5q0 14 8 60l72 336h-526q-63 0 -90 18.5t-27 62.5z" />
    <glyph glyph-name="softhyphen" unicode="&#xad;" 
d="M1268 594q0 -48 -37 -86.5t-123 -38.5h-784q-63 0 -90 19t-27 63q0 48 37 85.5t123 37.5h784q59 0 88 -16t29 -64z" />
    <glyph glyph-name="registered" unicode="&#xae;" 
d="M657 504l-20 -101q72 0 72 -57q0 -38 -30.5 -63t-76.5 -25h-141q-78 0 -78 57q0 38 29.5 63t76.5 25l82 390q-39 2 -56 15.5t-17 43.5q0 39 29.5 62.5t78.5 23.5h191q102 0 160.5 -46.5t58.5 -127.5q0 -67 -45.5 -127t-120.5 -92q29 -33 42.5 -58t35.5 -84
q31 -3 45 -16.5t14 -40.5q0 -38 -29.5 -63t-76.5 -25h-82q-3 75 -37 150.5t-74 95.5h-31zM688 647h53q51 0 89 27.5t38 62.5q0 26 -26 41t-72 15h-51zM879 1225q219 0 361 -141t142 -357q0 -144 -65.5 -283.5t-172.5 -243.5t-251 -167.5t-293 -63.5q-217 0 -359.5 141.5
t-142.5 356.5q0 144 66 283.5t173 243.5t250.5 167.5t291.5 63.5zM846 1075q-150 0 -288 -81t-222 -215.5t-84 -280.5q0 -164 108.5 -271.5t274.5 -107.5q150 0 288 81t222 215.5t84 280.5q0 164 -108.5 271.5t-274.5 107.5z" />
    <glyph glyph-name="macron" unicode="&#xaf;" 
d="M637 1282h500q51 0 71.5 -15.5t20.5 -52.5q0 -41 -36 -68.5t-91 -27.5h-500q-51 0 -71.5 15t-20.5 53q0 43 35 69.5t92 26.5z" />
    <glyph glyph-name="degree" unicode="&#xb0;" 
d="M877 1221q124 0 205 -81t81 -204q0 -83 -38 -164t-99 -140.5t-143 -96.5t-166 -37q-125 0 -206 81t-81 205q0 111 63 212.5t167 163t217 61.5zM848 1096q-113 0 -202 -87.5t-89 -197.5q0 -82 52 -135t134 -53q114 0 203.5 88t89.5 198q0 82 -53 134.5t-135 52.5z" />
    <glyph glyph-name="plusminus" unicode="&#xb1;" 
d="M1311 799q0 -47 -37.5 -85t-122.5 -38h-291l-43 -205q-17 -72 -48 -102q-33 -33 -83 -33q-35 0 -58.5 22t-23.5 54q0 20 8 59l45 205h-290q-63 0 -90 19t-27 63q0 20 6.5 39.5t22.5 39.5t49.5 32t81.5 12h290l56 262q27 135 131 135q35 0 58.5 -22t23.5 -56q0 -13 -8 -57
l-56 -262h289q63 0 90 -15.5t27 -66.5zM106 82q0 20 6.5 39.5t22.5 39.5t49.5 32t81.5 12h785q63 0 89.5 -15.5t26.5 -66.5q0 -47 -37 -85t-122 -38h-785q-63 0 -90 19t-27 63z" />
    <glyph glyph-name="twosuperior" unicode="&#xb2;" 
d="M561 1077q0 15 13 41t40 58.5t63.5 61t90.5 48t113 19.5q98 0 159.5 -54.5t61.5 -140.5q0 -42 -9.5 -73t-32.5 -65.5t-77.5 -81.5t-127 -102t-198.5 -145h224q21 66 80 66q23 0 39 -15t16 -37q0 -12 -4 -36l-25 -115h-573l30 139q361 255 440 322t79 116q0 37 -32 60.5
t-81 23.5q-38 0 -67 -10.5t-45 -26.5t-30.5 -34.5t-25 -34.5t-27.5 -26.5t-39 -10.5q-23 0 -39 15t-16 38z" />
    <glyph glyph-name="threesuperior" unicode="&#xb3;" 
d="M530 668q13 0 25 -6.5t23 -15t45.5 -15t87.5 -6.5q102 0 157.5 33t55.5 94q0 40 -22 62t-54 28.5t-63.5 11t-53.5 17t-22 38.5q0 32 26.5 57t61.5 25h49q49 0 88 33.5t39 73.5q0 32 -30 50.5t-83 18.5q-51 0 -84 -11.5t-45.5 -26t-30.5 -26t-43 -11.5q-23 0 -39 15.5
t-16 37.5q0 62 90.5 111t204.5 49q99 0 157 -49.5t58 -133.5q0 -45 -18.5 -82.5t-39.5 -56t-49.5 -38.5t-35.5 -27q94 -54 94 -152q0 -118 -105 -198.5t-272 -80.5q-107 0 -173.5 27t-66.5 70q0 32 26 58t58 26z" />
    <glyph glyph-name="acute" unicode="&#xb4;" 
d="M1040 1204l-202 -155q-40 -33 -62 -33q-31 0 -51 22t-20 58q0 21 59 69l203 154q29 21 41 27t28 6q31 0 47.5 -20.5t16.5 -55.5q0 -17 -13 -31.5t-47 -40.5z" />
    <glyph glyph-name="micro" unicode="&#xb5;" 
d="M1194 125q0 -47 -37.5 -86t-124.5 -39h-192l10 47q-182 -80 -340 -80q-53 0 -115 19l-35 -164q-9 -43 -26.5 -72.5t-38.5 -41.5t-36 -16.5t-30 -4.5q-35 0 -58.5 21.5t-23.5 53.5q0 20 9 60l184 870h-33q-61 0 -87.5 18.5t-26.5 61.5q0 44 38.5 84.5t81.5 40.5h6l31 -2
h240l-129 -600q-6 -30 -6 -49q0 -34 29.5 -54t80.5 -20q128 0 334 111l88 409h-72q-63 0 -89.5 18.5t-26.5 61.5q0 49 36.5 86t122.5 37h277l-148 -690q55 0 81 -19.5t26 -60.5z" />
    <glyph glyph-name="paragraph" unicode="&#xb6;" 
d="M1376 1130q0 -39 -29 -67.5t-98 -28.5h-71l-263 -1231h76q51 0 71.5 -14t20.5 -49q0 -37 -27.5 -66.5t-99.5 -29.5h-190q-32 0 -47 15.5t-21 53.5q-28 -44 -46.5 -56.5t-55.5 -12.5h-281q-51 0 -72.5 14.5t-21.5 48.5q0 38 29.5 67t99.5 29h160l123 576
q-172 19 -276.5 102t-104.5 203q0 114 50 210.5t135.5 161.5t200 101.5t241.5 36.5h403q51 0 72.5 -15t21.5 -49zM668 545l102 479q-102 -19 -175.5 -73.5t-86.5 -121.5l-19 -90q-4 -20 -4 -28q0 -60 47.5 -103t135.5 -63zM1022 1034h-90l-262 -1231q19 -9 26.5 -20.5
t8.5 -36.5q21 41 55 57z" />
    <glyph glyph-name="middot" unicode="&#xb7;" 
d="M745 618q44 0 72.5 -27.5t28.5 -70.5q0 -57 -47 -102t-107 -45q-41 0 -69.5 28.5t-28.5 69.5q0 57 46 102t105 45z" />
    <glyph glyph-name="cedilla" unicode="&#xb8;" 
d="M397 -209q11 0 65 -28.5t99 -28.5q40 0 63 17t23 46q0 58 -94 58q-16 0 -47 -5l31 150h143l-4 -25q65 -14 92 -45t27 -92q0 -103 -78.5 -175.5t-188.5 -72.5q-40 0 -89 11.5t-90.5 39t-41.5 62.5q0 34 27.5 61t62.5 27z" />
    <glyph glyph-name="onesuperior" unicode="&#xb9;" 
d="M961 1307l-142 -664h117q41 0 58.5 -12t17.5 -41q0 -38 -29 -61t-76 -23h-372q-76 0 -76 55q0 38 28.5 60t77.5 22h117l102 485l-102 -24q-33 -8 -45 -8q-22 0 -35.5 15t-13.5 40q0 33 21 53.5t67 32.5z" />
    <glyph glyph-name="ordmasculine" unicode="&#xba;" 
d="M874 1219q125 0 205 -76.5t80 -194.5q0 -100 -59 -190.5t-157.5 -144.5t-207.5 -54q-125 0 -205.5 73t-80.5 187q0 98 61 191.5t160 151t204 57.5zM842 1059q-85 0 -156.5 -65t-71.5 -142q0 -55 45.5 -94t108.5 -39q86 0 155.5 59t69.5 133q0 65 -42.5 106.5t-108.5 41.5
zM1081 469q0 -39 -28.5 -67.5t-96.5 -28.5h-522q-47 0 -68.5 14.5t-21.5 48.5q0 38 28.5 66t96.5 28h522q50 0 70 -13.5t20 -47.5z" />
    <glyph glyph-name="guillemotright" unicode="&#xbb;" 
d="M975 444l-248 289q-22 22 -22 45q0 26 25.5 49t55.5 23q23 0 52 -27l426 -379l-586 -376q-41 -27 -64 -27q-25 0 -40 13.5t-15 35.5q0 34 45 68zM504 444l-248 289q-23 26 -23 47q0 25 26 47.5t56 22.5q23 0 52 -27l426 -379l-586 -376q-41 -27 -64 -27q-25 0 -40 13.5
t-15 35.5q0 34 45 68z" />
    <glyph glyph-name="onequarter" unicode="&#xbc;" 
d="M537 1307l-142 -664h117q41 0 58.5 -12t17.5 -41q0 -38 -29.5 -61t-75.5 -23h-372q-76 0 -76 55q0 38 28.5 60t77.5 22h117l102 485l-102 -24q-33 -8 -45 -8q-22 0 -35.5 15t-13.5 40q0 66 88 86zM1243 1081l-731 -923q-24 -30 -41.5 -42t-40.5 -12q-25 0 -40 15.5
t-15 40.5q0 15 6 26.5t27 38.5l731 924q25 31 42 42t40 11t39 -16t16 -39q0 -24 -33 -66zM1378 778l-100 -471q63 -3 63 -53q0 -35 -25.5 -58t-66.5 -26l-8 -33q64 -3 64 -55q0 -37 -30 -59.5t-77 -22.5h-162q-38 0 -55.5 13t-17.5 42q0 38 27.5 60t74.5 22h39l8 33h-334
l23 113l405 495h172zM1141 307l55 264l-217 -264h162z" />
    <glyph glyph-name="onehalf" unicode="&#xbd;" 
d="M553 1307l-141 -664h116q41 0 58.5 -12t17.5 -41q0 -38 -29 -61t-75 -23h-373q-76 0 -76 55q0 38 28.5 60t78.5 22h116l103 485l-103 -24q-33 -8 -45 -8q-22 0 -35.5 15t-13.5 40q0 66 88 86zM1198 1081l-729 -923q-43 -54 -82 -54q-25 0 -40 15.5t-15 40.5t33 65
l731 924q23 30 40.5 41.5t41.5 11.5q23 0 39 -16t16 -39t-35 -66zM862 571q0 21 21.5 57t59 75t102 67.5t137.5 28.5q98 0 159.5 -54.5t61.5 -140.5q0 -52 -13 -88t-64.5 -90.5t-131.5 -116t-236 -172.5h224q21 66 80 66q23 0 39 -14.5t16 -36.5q0 -13 -4 -37l-25 -115h-573
l28 139q132 93 207.5 146.5t141 103t94 73.5t49.5 48t25 37t4 31q0 37 -32 60.5t-81 23.5q-45 0 -77 -15t-49 -36t-30.5 -42t-32 -36t-44.5 -15q-24 0 -40 15t-16 38z" />
    <glyph glyph-name="threequarters" unicode="&#xbe;" 
d="M121 668q14 0 25.5 -6.5t21.5 -15t44 -15t89 -6.5q102 0 157.5 33t55.5 94q0 40 -22 62t-54 28.5t-63.5 11t-53.5 17t-22 38.5q0 32 26.5 57t61.5 25h49q49 0 88 33.5t39 73.5q0 32 -30 50.5t-82 18.5q-51 0 -84 -11.5t-45.5 -26t-30.5 -26t-43 -11.5q-23 0 -39 15.5
t-16 37.5q0 62 90 111t204 49q99 0 157 -49.5t58 -133.5q0 -45 -18.5 -82.5t-39.5 -56t-49.5 -38.5t-35.5 -27q94 -54 94 -152q0 -118 -103.5 -198.5t-273.5 -80.5q-107 0 -173 27t-66 70q0 32 26 58t58 26zM1198 1081l-729 -923q-43 -54 -84 -54q-23 0 -39 16t-16 40
q0 15 6.5 26.5t28.5 38.5l729 924q25 31 42 42t40 11t39 -16t16 -39q0 -27 -33 -66zM1378 778l-100 -471q63 -3 63 -53q0 -35 -25.5 -58t-66.5 -26l-6 -33q62 -3 62 -55q0 -37 -30 -59.5t-77 -22.5h-162q-75 0 -75 55q0 38 28 60t76 22h41l6 33h-336l25 113l405 495h172z
M1141 307l57 264l-221 -264h164z" />
    <glyph glyph-name="questiondown" unicode="&#xbf;" 
d="M154 -106q0 75 24 138t60.5 107.5t96 85t113.5 67t130 56.5q38 111 127 111q34 0 57.5 -22.5t23.5 -53.5q0 -10 -10 -59l-22 -115q-232 -82 -312 -137t-80 -133q0 -68 49 -106t138 -38q117 0 227 49l6 29q17 72 48 102q33 33 83 33q34 0 58 -22t24 -54q0 -23 -8 -59
l-35 -162q-169 -73 -257.5 -97t-188.5 -24q-164 0 -258 81.5t-94 222.5zM768 846h37q49 0 79.5 -30.5t30.5 -78.5q0 -62 -51.5 -112t-115.5 -50h-37q-47 0 -78 30.5t-31 76.5q0 63 51 113.5t115 50.5z" />
    <glyph glyph-name="Agrave" unicode="&#xc0;" 
d="M805 1606l164 -166q35 -35 35 -76q0 -27 -29 -50.5t-62 -23.5q-26 0 -59 33l-164 168q-35 35 -35 74q0 31 27 52t61 21q17 0 28.5 -6t33.5 -26zM737 82q0 49 37 86t123 37h47l-22 119h-488l-74 -119h48q57 0 86.5 -16t29.5 -66q0 -47 -37 -85t-122 -38h-271q-63 0 -90 19
t-27 63q0 49 37.5 86t124.5 37l484 784h-129q-63 0 -90 19t-27 63q0 20 6 38.5t22 39t50 33t82 12.5h442l199 -989q59 0 88.5 -15.5t29.5 -66.5q0 -48 -36.5 -85.5t-122.5 -37.5h-285q-62 0 -88.5 19t-26.5 63zM881 528l-78 394l-244 -394h322z" />
    <glyph glyph-name="Aacute" unicode="&#xc1;" 
d="M1018 1489l-203 -156q-40 -33 -61 -33q-31 0 -51.5 22t-20.5 58q0 22 59 70l203 154q28 21 40.5 26.5t29.5 5.5q63 0 63 -75q0 -17 -13 -31.5t-46 -40.5zM737 82q0 49 37 86t123 37h47l-22 119h-488l-74 -119h48q57 0 86.5 -16t29.5 -66q0 -47 -37 -85t-122 -38h-271
q-63 0 -90 19t-27 63q0 49 37.5 86t124.5 37l484 784h-129q-63 0 -90 19t-27 63q0 20 6 38.5t22 39t50 33t82 12.5h442l199 -989q59 0 88.5 -15.5t29.5 -66.5q0 -48 -36.5 -85.5t-122.5 -37.5h-285q-62 0 -88.5 19t-26.5 63zM881 528l-78 394l-244 -394h322z" />
    <glyph glyph-name="Acircumflex" unicode="&#xc2;" 
d="M852 1456l-254 -127q-8 -4 -18.5 -10t-16.5 -8.5t-13 -5t-13 -2.5q-26 0 -44 18t-18 43q0 17 5.5 30.5t18.5 24.5t18.5 14.5t21.5 12.5l346 192l291 -206q20 -20 20 -46q0 -32 -26 -57.5t-56 -25.5q-6 0 -13.5 2.5t-11.5 5t-15 9t-15 9.5zM737 82q0 49 37 86t123 37h47
l-22 119h-488l-74 -119h48q57 0 86.5 -16t29.5 -66q0 -47 -37 -85t-122 -38h-271q-63 0 -90 19t-27 63q0 49 37.5 86t124.5 37l484 784h-129q-63 0 -90 19t-27 63q0 20 6 38.5t22 39t50 33t82 12.5h442l199 -989q59 0 88.5 -15.5t29.5 -66.5q0 -48 -36.5 -85.5t-122.5 -37.5
h-285q-62 0 -88.5 19t-26.5 63zM881 528l-78 394l-244 -394h322z" />
    <glyph glyph-name="Atilde" unicode="&#xc3;" 
d="M928 1503q34 0 90 49.5t90 49.5q24 0 40.5 -15.5t16.5 -34.5q0 -26 -37 -70.5t-99 -82t-120 -37.5q-45 0 -102 24.5t-107 49t-79 24.5q-28 0 -54 -14.5t-42.5 -31.5t-40 -31.5t-46.5 -14.5t-38 14.5t-15 36.5q0 46 81.5 114.5t174.5 68.5q45 0 102 -25t107 -49.5
t78 -24.5zM737 82q0 49 37 86t123 37h47l-22 119h-488l-74 -119h48q57 0 86.5 -16t29.5 -66q0 -47 -37 -85t-122 -38h-271q-63 0 -90 19t-27 63q0 49 37.5 86t124.5 37l484 784h-129q-63 0 -90 19t-27 63q0 20 6 38.5t22 39t50 33t82 12.5h442l199 -989q59 0 88.5 -15.5
t29.5 -66.5q0 -48 -36.5 -85.5t-122.5 -37.5h-285q-62 0 -88.5 19t-26.5 63zM881 528l-78 394l-244 -394h322z" />
    <glyph glyph-name="Adieresis" unicode="&#xc4;" 
d="M629 1542q44 0 72 -27.5t28 -70.5q0 -57 -47 -102.5t-107 -45.5q-41 0 -69.5 29t-28.5 70q0 55 47.5 101t104.5 46zM1055 1542q44 0 72 -27.5t28 -70.5q0 -57 -47 -102.5t-107 -45.5q-41 0 -69.5 29t-28.5 70q0 55 47.5 101t104.5 46zM737 82q0 49 37 86t123 37h47
l-22 119h-488l-74 -119h48q57 0 86.5 -16t29.5 -66q0 -47 -37 -85t-122 -38h-271q-63 0 -90 19t-27 63q0 49 37.5 86t124.5 37l484 784h-129q-63 0 -90 19t-27 63q0 20 6 38.5t22 39t50 33t82 12.5h442l199 -989q59 0 88.5 -15.5t29.5 -66.5q0 -48 -36.5 -85.5t-122.5 -37.5
h-285q-62 0 -88.5 19t-26.5 63zM881 528l-78 394l-244 -394h322z" />
    <glyph glyph-name="Aring" unicode="&#xc5;" 
d="M887 1636q72 0 117 -43.5t45 -109.5q0 -91 -72.5 -154t-155.5 -63q-69 0 -114 44.5t-45 110.5q0 88 71 151.5t154 63.5zM864 1509q-26 0 -48.5 -19.5t-22.5 -47.5q0 -22 14.5 -35.5t36.5 -13.5q28 0 51 19.5t23 47.5q0 22 -15.5 35.5t-38.5 13.5zM737 82q0 49 37 86
t123 37h47l-22 119h-488l-74 -119h48q57 0 86.5 -16t29.5 -66q0 -47 -37 -85t-122 -38h-271q-63 0 -90 19t-27 63q0 49 37.5 86t124.5 37l484 784h-129q-63 0 -90 19t-27 63q0 20 6 38.5t22 39t50 33t82 12.5h442l199 -989q59 0 88.5 -15.5t29.5 -66.5q0 -48 -36.5 -85.5
t-122.5 -37.5h-285q-62 0 -88.5 19t-26.5 63zM881 528l-78 394l-244 -394h322z" />
    <glyph glyph-name="AE" unicode="&#xc6;" 
d="M-20 82q0 50 36 86.5t123 36.5h15l401 784h-29q-63 0 -88.5 18.5t-25.5 63.5q0 21 6.5 39.5t22 39t49 32.5t81.5 12h897l-71 -338q-28 -135 -133 -135q-32 0 -56 22.5t-24 53.5q0 23 8 59l29 133h-258l-62 -289h39q15 54 48 83.5t79 29.5q34 0 58 -22.5t24 -53.5
q0 -8 -10 -59l-33 -160q-4 -18 -6 -25.5t-12.5 -32.5t-22.5 -38.5t-36 -26t-54 -12.5q-35 0 -58.5 22.5t-23.5 55.5q0 17 4 37h-39l-61 -293h299l10 47q10 44 28 73.5t38.5 41.5t35 16t29.5 4q37 0 60.5 -22t23.5 -56q0 -8 -10 -57l-54 -252h-712q-46 0 -71 21.5t-25 62.5
q0 48 37 84.5t87 36.5h19l24 119h-190l-61 -119q67 -9 67 -72q0 -59 -40 -96t-103 -37h-193q-62 0 -89 19.5t-27 62.5zM659 530l93 435l-224 -435h131z" />
    <glyph glyph-name="Ccedilla" unicode="&#xc7;" 
d="M711 176q80 0 144 15.5t100.5 37.5t64.5 44t52.5 37.5t47.5 15.5q35 0 59.5 -24.5t24.5 -59.5q0 -17 -15 -44t-53.5 -64.5t-94.5 -70t-150 -59t-207 -33.5q63 -12 85 -41.5t22 -93.5q0 -100 -78 -173t-185 -73q-88 0 -156.5 34.5t-68.5 78.5q0 34 27.5 61t62.5 27
q11 0 65 -28.5t99 -28.5q40 0 63 17t23 46q0 26 -23 42t-61 16q-11 0 -55 -5l39 132q-180 36 -279.5 142t-99.5 275q0 55 12 111l29 135q35 162 135.5 294.5t244.5 208t300 75.5q79 0 142.5 -16t152.5 -62q49 49 96 49q35 0 58.5 -22t23.5 -56q0 -22 -8 -57l-37 -172
q-35 -135 -131 -135q-35 0 -57.5 20.5t-22.5 54.5v4l2 39v4q0 57 -76 100.5t-178 43.5q-84 0 -154.5 -27t-118.5 -69.5t-85.5 -99t-59.5 -111.5t-36 -111.5t-18.5 -95.5t-4.5 -66q0 -122 90.5 -192t247.5 -70z" />
    <glyph glyph-name="Egrave" unicode="&#xc8;" 
d="M801 1606l164 -166q34 -34 34 -76q0 -27 -28.5 -50.5t-61.5 -23.5q-26 0 -59 33l-164 168q-35 35 -35 74q0 31 27 52t61 21q17 0 28.5 -6t33.5 -26zM721 700q2 14 5 29t13 38.5t23.5 41t37.5 30.5t54 13q35 0 58.5 -22t23.5 -56q0 -18 -8 -59l-51 -232
q-28 -135 -129 -135q-35 0 -58.5 22t-23.5 54q0 34 12 74h-174l-62 -293h523l24 106q27 138 129 138q35 0 59.5 -22t24.5 -54q0 -25 -8 -62l-68 -311h-962q-61 0 -89 19.5t-28 62.5q0 49 36.5 86t123.5 37h31l165 784h-30q-63 0 -90 19t-27 63q0 21 6.5 40t22.5 39t50.5 32
t82.5 12h917l-65 -307q-27 -137 -131 -137q-34 0 -58 22t-24 55t30 162h-479l-61 -289h174z" />
    <glyph glyph-name="Eacute" unicode="&#xc9;" 
d="M1024 1491l-203 -156q-39 -32 -61 -32q-31 0 -51.5 21.5t-20.5 57.5q0 21 60 70l202 154q28 21 40.5 26.5t29.5 5.5q63 0 63 -75q0 -17 -13 -31.5t-46 -40.5zM721 700q2 14 5 29t13 38.5t23.5 41t37.5 30.5t54 13q35 0 58.5 -22t23.5 -56q0 -18 -8 -59l-51 -232
q-28 -135 -129 -135q-35 0 -58.5 22t-23.5 54q0 34 12 74h-174l-62 -293h523l24 106q27 138 129 138q35 0 59.5 -22t24.5 -54q0 -25 -8 -62l-68 -311h-962q-61 0 -89 19.5t-28 62.5q0 49 36.5 86t123.5 37h31l165 784h-30q-63 0 -90 19t-27 63q0 21 6.5 40t22.5 39t50.5 32
t82.5 12h917l-65 -307q-27 -137 -131 -137q-34 0 -58 22t-24 55t30 162h-479l-61 -289h174z" />
    <glyph glyph-name="Ecircumflex" unicode="&#xca;" 
d="M864 1456l-254 -127q-8 -4 -18.5 -10t-16.5 -8.5t-13 -5t-13 -2.5q-26 0 -44 18t-18 43q0 17 5.5 30.5t18.5 24.5t18.5 14.5t21.5 12.5l346 192l291 -206q20 -20 20 -46q0 -32 -26 -57.5t-56 -25.5q-6 0 -13.5 2.5t-11.5 5t-15 9t-15 9.5zM721 700q2 14 5 29t13 38.5
t23.5 41t37.5 30.5t54 13q35 0 58.5 -22t23.5 -56q0 -18 -8 -59l-51 -232q-28 -135 -129 -135q-35 0 -58.5 22t-23.5 54q0 34 12 74h-174l-62 -293h523l24 106q27 138 129 138q35 0 59.5 -22t24.5 -54q0 -25 -8 -62l-68 -311h-962q-61 0 -89 19.5t-28 62.5q0 49 36.5 86
t123.5 37h31l165 784h-30q-63 0 -90 19t-27 63q0 21 6.5 40t22.5 39t50.5 32t82.5 12h917l-65 -307q-27 -137 -131 -137q-34 0 -58 22t-24 55t30 162h-479l-61 -289h174z" />
    <glyph glyph-name="Edieresis" unicode="&#xcb;" 
d="M748 1591q44 0 72 -27.5t28 -70.5q0 -57 -47 -102t-107 -45q-41 0 -69.5 28.5t-28.5 69.5q0 55 47.5 101t104.5 46zM1174 1591q44 0 72 -27.5t28 -70.5q0 -57 -47 -102t-107 -45q-41 0 -69.5 28.5t-28.5 69.5q0 55 47.5 101t104.5 46zM721 700q2 14 5 29t13 38.5t23.5 41
t37.5 30.5t54 13q35 0 58.5 -22t23.5 -56q0 -18 -8 -59l-51 -232q-28 -135 -129 -135q-35 0 -58.5 22t-23.5 54q0 34 12 74h-174l-62 -293h523l24 106q27 138 129 138q35 0 59.5 -22t24.5 -54q0 -25 -8 -62l-68 -311h-962q-61 0 -89 19.5t-28 62.5q0 49 36.5 86t123.5 37h31
l165 784h-30q-63 0 -90 19t-27 63q0 21 6.5 40t22.5 39t50.5 32t82.5 12h917l-65 -307q-27 -137 -131 -137q-34 0 -58 22t-24 55t30 162h-479l-61 -289h174z" />
    <glyph glyph-name="Igrave" unicode="&#xcc;" 
d="M829 1604l164 -166q35 -35 35 -76q0 -27 -28.5 -50.5t-61.5 -23.5q-26 0 -59 33l-164 168q-35 35 -35 74q0 31 27 52t61 21q17 0 28 -6t33 -26zM1294 1114q0 -49 -36.5 -87t-122.5 -38h-207l-166 -784h205q58 0 87 -15.5t29 -64.5q0 -48 -37 -86.5t-122 -38.5h-617
q-63 0 -90 19t-27 63q0 49 37 86t123 37h207l166 784h-207q-63 0 -89 19t-26 63q0 49 37 86t123 37h617q60 0 88 -15.5t28 -64.5z" />
    <glyph glyph-name="Iacute" unicode="&#xcd;" 
d="M1016 1489l-203 -156q-40 -33 -61 -33q-31 0 -51.5 22t-20.5 58q0 22 59 70l203 154q28 21 40.5 26.5t29.5 5.5q63 0 63 -75q0 -17 -13 -31.5t-46 -40.5zM1294 1114q0 -49 -36.5 -87t-122.5 -38h-207l-166 -784h205q58 0 87 -15.5t29 -64.5q0 -48 -37 -86.5t-122 -38.5
h-617q-63 0 -90 19t-27 63q0 49 37 86t123 37h207l166 784h-207q-63 0 -89 19t-26 63q0 49 37 86t123 37h617q60 0 88 -15.5t28 -64.5z" />
    <glyph glyph-name="Icircumflex" unicode="&#xce;" 
d="M881 1454l-254 -127q-8 -4 -19 -10l-16.5 -9t-13 -5.5t-13.5 -2.5q-26 0 -43.5 18.5t-17.5 43.5q0 23 12.5 41t21.5 24t29 17l346 192l291 -206q21 -21 21 -46q0 -32 -26 -58t-56 -26q-6 0 -13.5 2.5t-12 5t-15 9.5t-15.5 10zM1294 1114q0 -49 -36.5 -87t-122.5 -38h-207
l-166 -784h205q58 0 87 -15.5t29 -64.5q0 -48 -37 -86.5t-122 -38.5h-617q-63 0 -90 19t-27 63q0 49 37 86t123 37h207l166 784h-207q-63 0 -89 19t-26 63q0 49 37 86t123 37h617q60 0 88 -15.5t28 -64.5z" />
    <glyph glyph-name="Idieresis" unicode="&#xcf;" 
d="M754 1540q44 0 72 -27.5t28 -70.5q0 -57 -47 -102.5t-107 -45.5q-41 0 -69.5 29t-28.5 70q0 55 47.5 101t104.5 46zM1180 1540q44 0 72 -27.5t28 -70.5q0 -57 -47 -102.5t-107 -45.5q-41 0 -69.5 29t-28.5 70q0 55 47.5 101t104.5 46zM1294 1114q0 -49 -36.5 -87
t-122.5 -38h-207l-166 -784h205q58 0 87 -15.5t29 -64.5q0 -48 -37 -86.5t-122 -38.5h-617q-63 0 -90 19t-27 63q0 49 37 86t123 37h207l166 784h-207q-63 0 -89 19t-26 63q0 49 37 86t123 37h617q60 0 88 -15.5t28 -64.5z" />
    <glyph glyph-name="Eth" unicode="&#xd0;" 
d="M47 82q0 42 35.5 82.5t114.5 40.5l61 293h-14q-63 0 -90 19t-27 63q0 48 37 85t123 37h14l61 287q-104 0 -104 82q0 20 6.5 39.5t22.5 39.5t49.5 32t81.5 12h436q188 0 304 -121t116 -317q0 -155 -49.5 -293t-138 -240.5t-219 -162.5t-283.5 -60h-420q-62 0 -89.5 19.5
t-27.5 62.5zM774 623q0 -49 -37 -87t-123 -38h-151l-62 -293h226q24 0 45.5 1.5t59.5 8.5t69.5 19.5t70 37t68 58.5t56 86.5t40.5 118.5l21 94q8 39 8 88q0 37 -7 72.5t-26.5 72.5t-49 64.5t-78.5 45t-111 17.5h-226l-61 -287h151q60 0 88.5 -15.5t28.5 -63.5z" />
    <glyph glyph-name="Ntilde" unicode="&#xd1;" 
d="M1022 1503q34 0 90 49.5t90 49.5q24 0 41 -15.5t17 -34.5q0 -26 -37 -70.5t-99 -82t-120 -37.5q-45 0 -102 24.5t-107.5 49t-79.5 24.5q-28 0 -54 -14.5t-42.5 -31.5t-40 -31.5t-46.5 -14.5t-38 14.5t-15 36.5q0 46 81.5 114.5t174.5 68.5q45 0 102 -25t107 -49.5
t78 -24.5zM1446 1112q0 -42 -35.5 -82.5t-114.5 -40.5l-211 -989h-200l-361 807l-127 -602h72q58 0 86.5 -16t28.5 -64q0 -47 -37.5 -86t-122.5 -39h-264q-63 0 -90 19t-27 63q0 18 7 37t22.5 39.5t46.5 33.5t74 13l165 784h-30q-63 0 -89 19t-26 63q0 48 37 85.5t123 37.5
h233l359 -803l127 598h-72q-63 0 -89 19t-26 63q0 49 36 86t122 37h266q38 0 60 -4t39.5 -23t17.5 -55z" />
    <glyph glyph-name="Ograve" unicode="&#xd2;" 
d="M840 1606l164 -166q34 -34 34 -76q0 -27 -28.5 -50.5t-61.5 -23.5q-26 0 -59 33l-164 168q-35 35 -35 74q0 31 27 52t61 21q17 0 28.5 -6t33.5 -26zM154 451q0 132 45 255t120 215t168.5 161.5t193 105t191.5 35.5q196 0 326.5 -135t130.5 -338q0 -135 -45 -259.5
t-120 -217t-168.5 -162t-194 -105t-193.5 -35.5q-195 0 -324.5 137t-129.5 343zM829 1018q-86 0 -171.5 -45t-149.5 -116.5t-103.5 -167t-39.5 -191.5q0 -138 80.5 -230t203.5 -92q117 0 226.5 74.5t176 196.5t66.5 253q0 137 -82.5 227.5t-206.5 90.5z" />
    <glyph glyph-name="Oacute" unicode="&#xd3;" 
d="M1047 1491l-203 -156q-39 -32 -62 -32q-31 0 -51 21.5t-20 57.5q0 22 59 70l203 154q28 21 40 26.5t29 5.5q31 0 47.5 -20t16.5 -55q0 -17 -13 -31.5t-46 -40.5zM154 451q0 132 45 255t120 215t168.5 161.5t193 105t191.5 35.5q196 0 326.5 -135t130.5 -338
q0 -135 -45 -259.5t-120 -217t-168.5 -162t-194 -105t-193.5 -35.5q-195 0 -324.5 137t-129.5 343zM829 1018q-86 0 -171.5 -45t-149.5 -116.5t-103.5 -167t-39.5 -191.5q0 -138 80.5 -230t203.5 -92q117 0 226.5 74.5t176 196.5t66.5 253q0 137 -82.5 227.5t-206.5 90.5z
" />
    <glyph glyph-name="Ocircumflex" unicode="&#xd4;" 
d="M879 1456l-254 -127q-8 -4 -19 -10t-16.5 -8.5t-13 -5t-13.5 -2.5q-26 0 -43.5 18t-17.5 43q0 23 12.5 41t21.5 24t29 17l346 192l291 -206q21 -21 21 -46q0 -32 -26 -57.5t-56 -25.5q-5 0 -10 1t-11 4t-10 5.5t-12.5 8t-12.5 7.5zM154 451q0 132 45 255t120 215
t168.5 161.5t193 105t191.5 35.5q196 0 326.5 -135t130.5 -338q0 -135 -45 -259.5t-120 -217t-168.5 -162t-194 -105t-193.5 -35.5q-195 0 -324.5 137t-129.5 343zM829 1018q-86 0 -171.5 -45t-149.5 -116.5t-103.5 -167t-39.5 -191.5q0 -138 80.5 -230t203.5 -92
q117 0 226.5 74.5t176 196.5t66.5 253q0 137 -82.5 227.5t-206.5 90.5z" />
    <glyph glyph-name="Otilde" unicode="&#xd5;" 
d="M1036 1503q34 0 90.5 49.5t90.5 49.5q24 0 40.5 -15.5t16.5 -34.5q0 -26 -37 -70.5t-99 -82t-120 -37.5q-45 0 -102 24.5t-107.5 49t-79.5 24.5q-35 0 -66 -23t-59 -46t-57 -23q-23 0 -38 14.5t-15 36.5q0 46 81.5 114.5t174.5 68.5q45 0 101.5 -25t106.5 -49.5t78 -24.5
zM154 451q0 132 45 255t120 215t168.5 161.5t193 105t191.5 35.5q196 0 326.5 -135t130.5 -338q0 -135 -45 -259.5t-120 -217t-168.5 -162t-194 -105t-193.5 -35.5q-195 0 -324.5 137t-129.5 343zM829 1018q-86 0 -171.5 -45t-149.5 -116.5t-103.5 -167t-39.5 -191.5
q0 -138 80.5 -230t203.5 -92q117 0 226.5 74.5t176 196.5t66.5 253q0 137 -82.5 227.5t-206.5 90.5z" />
    <glyph glyph-name="Odieresis" unicode="&#xd6;" 
d="M737 1542q44 0 72.5 -27.5t28.5 -70.5q0 -57 -47 -102.5t-107 -45.5q-41 0 -69.5 29t-28.5 70q0 55 47 101t104 46zM1163 1542q44 0 72.5 -27.5t28.5 -70.5q0 -57 -47 -102.5t-107 -45.5q-41 0 -69.5 29t-28.5 70q0 55 47 101t104 46zM154 451q0 132 45 255t120 215
t168.5 161.5t193 105t191.5 35.5q196 0 326.5 -135t130.5 -338q0 -135 -45 -259.5t-120 -217t-168.5 -162t-194 -105t-193.5 -35.5q-195 0 -324.5 137t-129.5 343zM829 1018q-86 0 -171.5 -45t-149.5 -116.5t-103.5 -167t-39.5 -191.5q0 -138 80.5 -230t203.5 -92
q117 0 226.5 74.5t176 196.5t66.5 253q0 137 -82.5 227.5t-206.5 90.5z" />
    <glyph glyph-name="multiply" unicode="&#xd7;" 
d="M705 428l-256 -211q-37 -32 -59.5 -42.5t-47.5 -10.5q-37 0 -60.5 23.5t-23.5 58.5q0 32 15.5 55.5t60.5 60.5l256 211l-166 211q-23 27 -30 42t-7 36q0 44 41 82.5t88 38.5q23 0 41 -11.5t43 -41.5l166 -211l256 211q40 33 60 43t46 10q37 0 60.5 -23.5t23.5 -58.5
q0 -31 -16 -55.5t-59 -61.5l-256 -211l166 -211q22 -28 29 -43t7 -34q0 -44 -41 -82.5t-88 -38.5q-25 0 -42.5 10.5t-41.5 42.5z" />
    <glyph glyph-name="Oslash" unicode="&#xd8;" 
d="M1329 748q0 -113 -32 -219t-86 -189.5t-126 -154t-152 -117t-163 -72t-160 -25.5q-154 0 -272 86l-139 -139q-38 -38 -59 -49.5t-50 -11.5q-35 0 -58.5 21.5t-23.5 53.5q0 27 13 49t51 58l149 149q-67 117 -67 263q0 116 39 231.5t108.5 211.5t159 170.5t197.5 116.5
t216 42q159 0 285 -99l119 119q38 38 60.5 51t50.5 13q34 0 56.5 -22t22.5 -56q0 -28 -12 -49.5t-49 -57.5l-135 -133q57 -102 57 -241zM1102 819l-602 -600q70 -43 153 -43q116 0 224.5 75t174.5 197t66 252q0 64 -16 119zM389 356l608 609q-74 53 -168 53
q-86 0 -171.5 -45t-149.5 -116.5t-103.5 -167t-39.5 -191.5q0 -72 24 -142z" />
    <glyph glyph-name="Ugrave" unicode="&#xd9;" 
d="M831 1606l164 -166q35 -35 35 -76q0 -27 -28.5 -50.5t-61.5 -23.5q-26 0 -59 33l-164 168q-35 35 -35 74q0 31 27 52t61 21q17 0 28 -6t33 -26zM1327 1194q58 0 87.5 -15.5t29.5 -64.5q0 -54 -40 -89.5t-110 -35.5l-120 -569q-40 -190 -203 -319.5t-361 -129.5
q-167 0 -276 100t-109 253q0 48 11 96l120 569q-55 0 -79.5 19.5t-24.5 62.5q0 20 6.5 39.5t22.5 39.5t49.5 32t81.5 12h266q38 0 59.5 -4t38.5 -22.5t17 -53.5q0 -50 -36.5 -87.5t-123.5 -37.5h-72l-125 -588q-4 -28 -4 -41q0 -79 63 -131.5t158 -52.5q109 0 200.5 65.5
t111.5 159.5l125 588h-72q-63 0 -89 19t-26 63q0 20 6.5 39.5t22.5 39.5t49.5 32t81.5 12h264z" />
    <glyph glyph-name="Uacute" unicode="&#xda;" 
d="M1040 1489l-202 -156q-40 -33 -62 -33q-31 0 -51 22t-20 58q0 22 59 70l203 154q28 21 40 26.5t29 5.5q31 0 47.5 -20t16.5 -55q0 -17 -13 -31.5t-47 -40.5zM1327 1194q58 0 87.5 -15.5t29.5 -64.5q0 -54 -40 -89.5t-110 -35.5l-120 -569q-40 -190 -203 -319.5
t-361 -129.5q-167 0 -276 100t-109 253q0 48 11 96l120 569q-55 0 -79.5 19.5t-24.5 62.5q0 20 6.5 39.5t22.5 39.5t49.5 32t81.5 12h266q38 0 59.5 -4t38.5 -22.5t17 -53.5q0 -50 -36.5 -87.5t-123.5 -37.5h-72l-125 -588q-4 -28 -4 -41q0 -79 63 -131.5t158 -52.5
q109 0 200.5 65.5t111.5 159.5l125 588h-72q-63 0 -89 19t-26 63q0 20 6.5 39.5t22.5 39.5t49.5 32t81.5 12h264z" />
    <glyph glyph-name="Ucircumflex" unicode="&#xdb;" 
d="M893 1456l-254 -127q-8 -4 -18.5 -10t-16.5 -8.5t-13 -5t-13 -2.5q-26 0 -44 18t-18 43q0 17 5.5 30.5t18.5 24.5t18.5 14.5t21.5 12.5l346 192l291 -206q20 -20 20 -46q0 -32 -26 -57.5t-56 -25.5q-6 0 -13.5 2.5t-11.5 5t-15 9t-15 9.5zM1327 1194q58 0 87.5 -15.5
t29.5 -64.5q0 -54 -40 -89.5t-110 -35.5l-120 -569q-40 -190 -203 -319.5t-361 -129.5q-167 0 -276 100t-109 253q0 48 11 96l120 569q-55 0 -79.5 19.5t-24.5 62.5q0 20 6.5 39.5t22.5 39.5t49.5 32t81.5 12h266q38 0 59.5 -4t38.5 -22.5t17 -53.5q0 -50 -36.5 -87.5
t-123.5 -37.5h-72l-125 -588q-4 -28 -4 -41q0 -79 63 -131.5t158 -52.5q109 0 200.5 65.5t111.5 159.5l125 588h-72q-63 0 -89 19t-26 63q0 20 6.5 39.5t22.5 39.5t49.5 32t81.5 12h264z" />
    <glyph glyph-name="Udieresis" unicode="&#xdc;" 
d="M737 1544q44 0 72.5 -27.5t28.5 -70.5q0 -57 -47 -102.5t-107 -45.5q-41 0 -69.5 29t-28.5 70q0 55 47 101t104 46zM1163 1544q44 0 72.5 -27.5t28.5 -70.5q0 -57 -47 -102.5t-107 -45.5q-41 0 -69.5 29t-28.5 70q0 55 47 101t104 46zM1327 1194q58 0 87.5 -15.5
t29.5 -64.5q0 -54 -40 -89.5t-110 -35.5l-120 -569q-40 -190 -203 -319.5t-361 -129.5q-167 0 -276 100t-109 253q0 48 11 96l120 569q-55 0 -79.5 19.5t-24.5 62.5q0 20 6.5 39.5t22.5 39.5t49.5 32t81.5 12h266q38 0 59.5 -4t38.5 -22.5t17 -53.5q0 -50 -36.5 -87.5
t-123.5 -37.5h-72l-125 -588q-4 -28 -4 -41q0 -79 63 -131.5t158 -52.5q109 0 200.5 65.5t111.5 159.5l125 588h-72q-63 0 -89 19t-26 63q0 20 6.5 39.5t22.5 39.5t49.5 32t81.5 12h264z" />
    <glyph glyph-name="Yacute" unicode="&#xdd;" 
d="M1051 1489l-203 -156q-40 -33 -62 -33q-31 0 -51 22t-20 58q0 22 59 70l203 154q28 21 40.5 26.5t29.5 5.5q63 0 63 -75q0 -17 -13 -31.5t-46 -40.5zM1421 1114q0 -19 -7 -39t-22.5 -40t-47 -33t-74.5 -13h-6l-441 -487l-61 -297h133q59 0 88 -16t29 -64q0 -47 -37.5 -86
t-122.5 -39h-473q-62 0 -89.5 19.5t-27.5 62.5q0 49 36.5 86t123.5 37h135l61 297l-233 487h-12q-47 0 -73 21t-26 61q0 48 36.5 85.5t123.5 37.5h184q58 0 86.5 -16t28.5 -64q0 -84 -102 -125l135 -276l252 276q-34 13 -48 32t-14 50q0 49 37 86t123 37h191q58 0 86 -15.5
t28 -64.5z" />
    <glyph glyph-name="Thorn" unicode="&#xde;" 
d="M1204 657q0 -48 -14 -95t-52.5 -98t-97.5 -89.5t-157.5 -63t-223.5 -24.5h-200l-17 -82h201q60 0 89.5 -16t29.5 -64t-37.5 -86.5t-124.5 -38.5h-436q-62 0 -89.5 19.5t-27.5 62.5q0 48 37 85.5t123 37.5h31l165 784h-30q-58 0 -86.5 16t-28.5 66q0 47 37.5 85t122.5 38
h436q63 0 90 -19t27 -63q0 -47 -37.5 -85t-122.5 -38h-203l-16 -82h201q114 0 183.5 -13t119.5 -44q51 -32 79.5 -84t28.5 -109zM504 492h266q221 0 221 126q0 44 -41.5 64t-134.5 20h-268z" />
    <glyph glyph-name="germandbls" unicode="&#xdf;" 
d="M606 700q0 54 31 81.5t76 36.5t89.5 18.5t75.5 39.5t31 87q0 51 -34.5 79.5t-96.5 28.5q-151 0 -178 -127l-158 -739q70 -12 70 -76q0 -21 -6.5 -40.5t-22 -41t-50 -34.5t-83.5 -13h-190q-62 0 -88.5 19t-26.5 63q0 48 37 85.5t123 37.5h33l163 774q28 130 145.5 213.5
t272.5 83.5q135 0 217 -74.5t82 -197.5q0 -75 -27 -135t-90 -121q164 -114 164 -310q0 -41 -10.5 -95t-39.5 -122t-72.5 -123t-118 -93t-166.5 -38q-93 0 -147 49.5t-54 135.5q0 72 38.5 119.5t96.5 47.5q33 0 54.5 -17.5t21.5 -45.5v-25q0 -59 49 -59q54 0 96.5 67.5
t42.5 151.5q0 101 -66.5 158.5t-189.5 71.5q-51 6 -72.5 24t-21.5 55z" />
    <glyph glyph-name="agrave" unicode="&#xe0;" 
d="M737 1333l164 -166q35 -35 35 -75q0 -27 -28.5 -50.5t-61.5 -23.5q-27 0 -60 33l-163 168q-35 35 -35 73q0 31 27 52.5t61 21.5q17 0 28 -6t33 -27zM1194 125q0 -49 -37 -87t-123 -38h-239l10 47q-171 -80 -356 -80q-137 0 -226.5 66.5t-89.5 167.5q0 19 7.5 46.5
t26.5 65t47.5 74.5t75 74t103.5 65.5t139 46t177 17.5q86 0 206 -21q13 54 13 68q0 80 -172 80q-81 0 -193.5 -23.5t-138.5 -23.5q-34 0 -56 22.5t-22 57.5q0 49 45 85t117.5 53.5t144 25.5t144.5 8q160 0 252 -62.5t92 -169.5q0 -39 -8 -72l-89 -413h35q58 0 86.5 -16
t28.5 -64zM655 401q-121 0 -210 -52.5t-89 -106.5q0 -29 40 -49.5t98 -20.5q170 0 362 104l21 103q-123 22 -222 22z" />
    <glyph glyph-name="aacute" unicode="&#xe1;" 
d="M975 1206l-203 -155q-40 -33 -61 -33q-31 0 -51.5 22t-20.5 58q0 21 59 69l203 154q29 21 41 27t29 6q31 0 47 -20.5t16 -55.5q0 -17 -13 -31.5t-46 -40.5zM1194 125q0 -49 -37 -87t-123 -38h-239l10 47q-171 -80 -356 -80q-137 0 -226.5 66.5t-89.5 167.5q0 19 7.5 46.5
t26.5 65t47.5 74.5t75 74t103.5 65.5t139 46t177 17.5q86 0 206 -21q13 54 13 68q0 80 -172 80q-81 0 -193.5 -23.5t-138.5 -23.5q-34 0 -56 22.5t-22 57.5q0 49 45 85t117.5 53.5t144 25.5t144.5 8q160 0 252 -62.5t92 -169.5q0 -39 -8 -72l-89 -413h35q58 0 86.5 -16
t28.5 -64zM655 401q-121 0 -210 -52.5t-89 -106.5q0 -29 40 -49.5t98 -20.5q170 0 362 104l21 103q-123 22 -222 22z" />
    <glyph glyph-name="acircumflex" unicode="&#xe2;" 
d="M799 1174l-254 -127q-8 -4 -19 -10l-16.5 -9t-13 -5.5t-13.5 -2.5q-26 0 -43.5 18t-17.5 43q0 23 12.5 41t21.5 24t29 17l346 193l291 -207q21 -21 21 -45q0 -32 -26 -58t-56 -26q-6 0 -13 2.5t-12 5.5t-14.5 9.5t-15.5 9.5zM1194 125q0 -49 -37 -87t-123 -38h-239l10 47
q-171 -80 -356 -80q-137 0 -226.5 66.5t-89.5 167.5q0 19 7.5 46.5t26.5 65t47.5 74.5t75 74t103.5 65.5t139 46t177 17.5q86 0 206 -21q13 54 13 68q0 80 -172 80q-81 0 -193.5 -23.5t-138.5 -23.5q-34 0 -56 22.5t-22 57.5q0 49 45 85t117.5 53.5t144 25.5t144.5 8
q160 0 252 -62.5t92 -169.5q0 -39 -8 -72l-89 -413h35q58 0 86.5 -16t28.5 -64zM655 401q-121 0 -210 -52.5t-89 -106.5q0 -29 40 -49.5t98 -20.5q170 0 362 104l21 103q-123 22 -222 22z" />
    <glyph glyph-name="atilde" unicode="&#xe3;" 
d="M961 1202q34 0 90 49t90 49q24 0 40.5 -15t16.5 -34q0 -26 -37 -70.5t-99 -82t-120 -37.5q-45 0 -102 24.5t-107.5 49t-79.5 24.5q-35 0 -66 -23t-59 -46t-57 -23q-23 0 -38 14.5t-15 36.5q0 20 21 50t55 60t83 51t97 21q45 0 102 -24.5t107 -49t78 -24.5zM1194 125
q0 -49 -37 -87t-123 -38h-239l10 47q-171 -80 -356 -80q-137 0 -226.5 66.5t-89.5 167.5q0 19 7.5 46.5t26.5 65t47.5 74.5t75 74t103.5 65.5t139 46t177 17.5q86 0 206 -21q13 54 13 68q0 80 -172 80q-81 0 -193.5 -23.5t-138.5 -23.5q-34 0 -56 22.5t-22 57.5q0 49 45 85
t117.5 53.5t144 25.5t144.5 8q160 0 252 -62.5t92 -169.5q0 -39 -8 -72l-89 -413h35q58 0 86.5 -16t28.5 -64zM655 401q-121 0 -210 -52.5t-89 -106.5q0 -29 40 -49.5t98 -20.5q170 0 362 104l21 103q-123 22 -222 22z" />
    <glyph glyph-name="adieresis" unicode="&#xe4;" 
d="M662 1290q44 0 72 -27.5t28 -70.5q0 -57 -47 -102.5t-107 -45.5q-41 0 -69.5 29t-28.5 70q0 55 47.5 101t104.5 46zM1087 1290q44 0 72.5 -27.5t28.5 -70.5q0 -57 -47 -102.5t-107 -45.5q-41 0 -69.5 29t-28.5 70q0 55 47 101t104 46zM1194 125q0 -49 -37 -87t-123 -38
h-239l10 47q-171 -80 -356 -80q-137 0 -226.5 66.5t-89.5 167.5q0 19 7.5 46.5t26.5 65t47.5 74.5t75 74t103.5 65.5t139 46t177 17.5q86 0 206 -21q13 54 13 68q0 80 -172 80q-81 0 -193.5 -23.5t-138.5 -23.5q-34 0 -56 22.5t-22 57.5q0 49 45 85t117.5 53.5t144 25.5
t144.5 8q160 0 252 -62.5t92 -169.5q0 -39 -8 -72l-89 -413h35q58 0 86.5 -16t28.5 -64zM655 401q-121 0 -210 -52.5t-89 -106.5q0 -29 40 -49.5t98 -20.5q170 0 362 104l21 103q-123 22 -222 22z" />
    <glyph glyph-name="aring" unicode="&#xe5;" 
d="M838 1386q71 0 116 -43t45 -110q0 -91 -72 -154t-155 -63q-69 0 -114.5 44.5t-45.5 110.5q0 87 71.5 151t154.5 64zM815 1260q-26 0 -49 -20t-23 -48q0 -21 15 -35t37 -14q28 0 50.5 19.5t22.5 47.5q0 22 -15 36t-38 14zM1194 125q0 -49 -37 -87t-123 -38h-239l10 47
q-171 -80 -356 -80q-137 0 -226.5 66.5t-89.5 167.5q0 19 7.5 46.5t26.5 65t47.5 74.5t75 74t103.5 65.5t139 46t177 17.5q86 0 206 -21q13 54 13 68q0 80 -172 80q-81 0 -193.5 -23.5t-138.5 -23.5q-34 0 -56 22.5t-22 57.5q0 49 45 85t117.5 53.5t144 25.5t144.5 8
q160 0 252 -62.5t92 -169.5q0 -39 -8 -72l-89 -413h35q58 0 86.5 -16t28.5 -64zM655 401q-121 0 -210 -52.5t-89 -106.5q0 -29 40 -49.5t98 -20.5q170 0 362 104l21 103q-123 22 -222 22z" />
    <glyph glyph-name="ae" unicode="&#xe6;" 
d="M256 748q0 52 45 89.5t111.5 54t117.5 23.5t88 7q72 0 122.5 -27.5t90.5 -87.5q132 115 256 115q120 0 197.5 -92t77.5 -236q0 -76 -37 -242h-512q4 -96 34 -138t93 -42q52 0 148.5 35t123.5 35q32 0 53 -22t21 -56q0 -55 -47 -96.5t-115.5 -62t-127 -29.5t-101.5 -9
q-58 0 -98 14.5t-88 51.5q-38 -35 -84 -35q-44 0 -68 35q-121 -66 -238 -66q-136 0 -213 66.5t-77 183.5q0 157 102 236q74 57 186 95t207 38q24 0 121 -11q10 50 10 68q-2 34 -22.5 54t-54.5 20q-41 0 -131.5 -25.5t-112.5 -25.5q-34 0 -56 23.5t-22 58.5zM494 403
q-106 0 -180 -38t-74 -99q0 -44 32.5 -69t89.5 -25q46 0 94.5 21t123.5 73l24 121q-60 16 -110 16zM854 528h287q2 20 2 45q0 66 -28 105t-77 39q-32 0 -61 -15.5t-47 -34.5t-35.5 -50.5t-24.5 -47.5t-16 -41z" />
    <glyph glyph-name="ccedilla" unicode="&#xe7;" 
d="M713 172q90 0 155.5 12t99 28.5t57 33.5t44.5 29t45 12q37 0 60.5 -23.5t23.5 -60.5q0 -18 -10 -42t-43.5 -58t-85.5 -62t-148 -49.5t-219 -24.5q63 -12 85 -40t22 -91q0 -100 -77 -173t-183 -73q-89 0 -157.5 34.5t-68.5 78.5q0 34 27.5 61t62.5 27q11 0 65 -28.5
t97 -28.5q40 0 63 17t23 46q0 58 -100 58q-4 0 -17.5 -2t-21.5 -3l37 121q-175 19 -268 110t-93 238q0 34 8.5 78.5t29.5 103t53 116t83.5 113t116 98t155.5 68.5t197 26q172 0 281 -62q18 33 38 47.5t50 14.5q36 0 59 -20t23 -52q0 -13 -10 -64l-33 -157
q-26 -135 -131 -135q-52 0 -68 25.5t-16 72.5t-39.5 76.5t-89 39t-107.5 9.5q-78 0 -142 -20.5t-104.5 -54t-70 -72t-44.5 -80t-21.5 -71.5t-6.5 -52q0 -195 314 -195z" />
    <glyph glyph-name="egrave" unicode="&#xe8;" 
d="M762 1331l164 -166q35 -35 35 -75q0 -27 -29 -50.5t-62 -23.5q-26 0 -59 33l-164 168q-35 35 -35 73q0 31 27 52.5t61 21.5q17 0 28.5 -6t33.5 -27zM666 172q101 0 244 34t171 34q35 0 56.5 -22t21.5 -56q0 -69 -67 -105q-66 -35 -216 -62.5t-274 -27.5
q-209 0 -329.5 102t-120.5 277q0 112 53 218.5t140 184.5t205 125.5t243 47.5q199 0 317.5 -106.5t118.5 -285.5q0 -28 -4 -56.5t-12.5 -70t-10.5 -51.5h-837q17 -92 91 -136t210 -44zM410 532h604q-7 83 -79.5 134t-182.5 51q-114 0 -206.5 -50t-135.5 -135z" />
    <glyph glyph-name="eacute" unicode="&#xe9;" 
d="M997 1206l-202 -155q-40 -33 -62 -33q-31 0 -51 22t-20 58q0 21 59 69l203 154q29 21 40.5 27t28.5 6q31 0 47.5 -20.5t16.5 -55.5q0 -17 -13 -31.5t-47 -40.5zM666 172q101 0 244 34t171 34q35 0 56.5 -22t21.5 -56q0 -69 -67 -105q-66 -35 -216 -62.5t-274 -27.5
q-209 0 -329.5 102t-120.5 277q0 112 53 218.5t140 184.5t205 125.5t243 47.5q199 0 317.5 -106.5t118.5 -285.5q0 -28 -4 -56.5t-12.5 -70t-10.5 -51.5h-837q17 -92 91 -136t210 -44zM410 532h604q-7 83 -79.5 134t-182.5 51q-114 0 -206.5 -50t-135.5 -135z" />
    <glyph glyph-name="ecircumflex" unicode="&#xea;" 
d="M811 1198l-254 -127q-10 -5 -23.5 -13t-21.5 -11t-16 -3q-26 0 -44 18.5t-18 43.5q0 17 5.5 30.5t18.5 24.5t18.5 14.5t21.5 12.5l346 192l291 -206q20 -20 20 -46q0 -32 -26 -58t-56 -26q-6 0 -13 2.5t-12 5.5t-14.5 9.5t-15.5 9.5zM666 172q101 0 244 34t171 34
q35 0 56.5 -22t21.5 -56q0 -69 -67 -105q-66 -35 -216 -62.5t-274 -27.5q-209 0 -329.5 102t-120.5 277q0 112 53 218.5t140 184.5t205 125.5t243 47.5q199 0 317.5 -106.5t118.5 -285.5q0 -28 -4 -56.5t-12.5 -70t-10.5 -51.5h-837q17 -92 91 -136t210 -44zM410 532h604
q-7 83 -79.5 134t-182.5 51q-114 0 -206.5 -50t-135.5 -135z" />
    <glyph glyph-name="edieresis" unicode="&#xeb;" 
d="M657 1290q44 0 72.5 -27.5t28.5 -70.5q0 -57 -47 -102.5t-107 -45.5q-41 0 -69.5 29t-28.5 70q0 55 47 101t104 46zM1083 1290q44 0 72.5 -27.5t28.5 -70.5q0 -57 -47 -102.5t-107 -45.5q-41 0 -69.5 29t-28.5 70q0 55 47 101t104 46zM666 172q101 0 244 34t171 34
q35 0 56.5 -22t21.5 -56q0 -69 -67 -105q-66 -35 -216 -62.5t-274 -27.5q-209 0 -329.5 102t-120.5 277q0 112 53 218.5t140 184.5t205 125.5t243 47.5q199 0 317.5 -106.5t118.5 -285.5q0 -28 -4 -56.5t-12.5 -70t-10.5 -51.5h-837q17 -92 91 -136t210 -44zM410 532h604
q-7 83 -79.5 134t-182.5 51q-114 0 -206.5 -50t-135.5 -135z" />
    <glyph glyph-name="igrave" unicode="&#xec;" 
d="M735 1335l164 -166q35 -35 35 -75q0 -27 -28.5 -50.5t-61.5 -23.5q-27 0 -60 33l-163 168q-35 35 -35 73q0 31 27 52.5t61 21.5q17 0 28 -6t33 -27zM381 772q0 21 6.5 40t22.5 39t50.5 32t82.5 12h364l-145 -690h248q57 0 86.5 -16t29.5 -66q0 -19 -7 -38.5t-23 -39.5
t-49.5 -32.5t-79.5 -12.5h-703q-63 0 -90 19t-27 63q0 49 37 86t123 37h250l102 485h-159q-64 0 -91.5 19t-27.5 63z" />
    <glyph glyph-name="iacute" unicode="&#xed;" 
d="M958 1208l-202 -155q-40 -33 -62 -33q-31 0 -51 22t-20 58q0 21 59 69l203 154q29 21 41 27t28 6q31 0 47.5 -20.5t16.5 -55.5q0 -17 -13 -31.5t-47 -40.5zM381 772q0 21 6.5 40t22.5 39t50.5 32t82.5 12h364l-145 -690h248q57 0 86.5 -16t29.5 -66q0 -19 -7 -38.5
t-23 -39.5t-49.5 -32.5t-79.5 -12.5h-703q-63 0 -90 19t-27 63q0 49 37 86t123 37h250l102 485h-159q-64 0 -91.5 19t-27.5 63z" />
    <glyph glyph-name="icircumflex" unicode="&#xee;" 
d="M750 1198l-254 -127q-8 -4 -19 -10l-16.5 -9t-13 -5.5t-13.5 -2.5q-26 0 -43.5 18.5t-17.5 43.5q0 23 12.5 41t21.5 24t29 17l346 192l291 -206q21 -21 21 -46q0 -32 -26 -58t-56 -26q-6 0 -13.5 2.5t-12 5t-15 9.5t-15.5 10zM381 772q0 21 6.5 40t22.5 39t50.5 32
t82.5 12h364l-145 -690h248q57 0 86.5 -16t29.5 -66q0 -19 -7 -38.5t-23 -39.5t-49.5 -32.5t-79.5 -12.5h-703q-63 0 -90 19t-27 63q0 49 37 86t123 37h250l102 485h-159q-64 0 -91.5 19t-27.5 63z" />
    <glyph glyph-name="idieresis" unicode="&#xef;" 
d="M596 1290q44 0 72 -27.5t28 -70.5q0 -57 -46.5 -102.5t-106.5 -45.5q-41 0 -70 29t-29 70q0 55 47.5 101t104.5 46zM1022 1290q44 0 72 -27.5t28 -70.5q0 -57 -46.5 -102.5t-106.5 -45.5q-41 0 -70 29t-29 70q0 55 47.5 101t104.5 46zM381 772q0 21 6.5 40t22.5 39
t50.5 32t82.5 12h364l-145 -690h248q57 0 86.5 -16t29.5 -66q0 -19 -7 -38.5t-23 -39.5t-49.5 -32.5t-79.5 -12.5h-703q-63 0 -90 19t-27 63q0 49 37 86t123 37h250l102 485h-159q-64 0 -91.5 19t-27.5 63z" />
    <glyph glyph-name="eth" unicode="&#xf0;" 
d="M678 1128q-17 8 -35.5 16t-29.5 13t-23.5 10.5t-19 9t-14 7.5t-10.5 7l-6.5 6.5t-5 7.5t-2 8t-0.5 10q0 34 31 61t68 27q65 0 190 -64l51 -26l177 84q41 18 71 18q23 0 37 -15t14 -38q0 -48 -61 -76l-104 -51q258 -210 258 -504q0 -153 -55.5 -282t-148 -213t-209 -130.5
t-241.5 -46.5q-192 0 -316 107.5t-124 273.5q0 72 28 149.5t83 150t127.5 131t170 93.5t203.5 35q75 0 131 -19.5t140 -76.5q-42 75 -102 140.5t-124 109.5l-211 -103q-45 -24 -69 -24q-22 0 -34.5 15.5t-12.5 41.5q0 29 11.5 43.5t49.5 34.5zM651 172q89 0 175 37t146 111
t60 167q0 100 -74.5 165t-191.5 65q-96 0 -185.5 -47t-143.5 -124.5t-54 -160.5q0 -89 78 -151t190 -62z" />
    <glyph glyph-name="ntilde" unicode="&#xf1;" 
d="M969 1202q34 0 90 49t90 49q24 0 40.5 -15t16.5 -34q0 -26 -37 -70.5t-99 -82t-120 -37.5q-45 0 -102 24.5t-107 49t-79 24.5q-28 0 -54 -14.5t-42.5 -31.5t-40 -31.5t-46.5 -14.5t-38 14.5t-15 36.5q0 20 21 50t55 60t83 51t97 21q45 0 102 -24.5t107 -49t78 -24.5z
M236 772q0 48 37 85.5t124 37.5h193l-21 -98q89 71 156 98t152 27q135 0 218 -69t83 -181q0 -34 -11 -94l-80 -373q107 0 107 -82q0 -47 -37.5 -85t-122.5 -38h-182q-63 0 -90 19t-27 63q0 42 35.5 82.5t114.5 40.5l76 364q6 27 6 47q0 49 -41.5 75t-118.5 26
q-71 0 -133.5 -30.5t-151.5 -108.5l-78 -373h13q57 0 85.5 -16.5t28.5 -65.5q0 -47 -37 -85t-122 -38h-230q-62 0 -88 19t-26 63q0 48 36.5 85.5t122.5 37.5h13l102 485q-106 0 -106 82z" />
    <glyph glyph-name="ograve" unicode="&#xf2;" 
d="M758 1331l164 -166q34 -34 34 -75q0 -27 -28.5 -50.5t-61.5 -23.5q-26 0 -59 33l-164 168q-35 35 -35 73q0 31 27 52.5t61 21.5q17 0 28.5 -6t33.5 -27zM172 356q0 70 27.5 147t83 151.5t130.5 134t180.5 96.5t223.5 37q190 0 310 -109t120 -281q0 -145 -89.5 -276.5
t-237.5 -210t-312 -78.5q-196 0 -316 107t-120 282zM770 717q-103 0 -193 -44.5t-143 -119.5t-53 -160q0 -97 76 -159t194 -62q155 0 271 97.5t116 226.5q0 97 -75.5 159t-192.5 62z" />
    <glyph glyph-name="oacute" unicode="&#xf3;" 
d="M997 1202l-202 -155q-40 -33 -62 -33q-31 0 -51 22t-20 58q0 21 59 69l203 154q29 21 40.5 27t28.5 6q31 0 47.5 -20.5t16.5 -55.5q0 -17 -13 -31.5t-47 -40.5zM172 356q0 70 27.5 147t83 151.5t130.5 134t180.5 96.5t223.5 37q190 0 310 -109t120 -281
q0 -145 -89.5 -276.5t-237.5 -210t-312 -78.5q-196 0 -316 107t-120 282zM770 717q-103 0 -193 -44.5t-143 -119.5t-53 -160q0 -97 76 -159t194 -62q155 0 271 97.5t116 226.5q0 97 -75.5 159t-192.5 62z" />
    <glyph glyph-name="ocircumflex" unicode="&#xf4;" 
d="M819 1174l-254 -127q-10 -5 -23.5 -13t-21.5 -11t-16 -3q-26 0 -44 18t-18 43q0 17 5.5 30.5t18.5 24.5t18.5 14.5t21.5 12.5l346 193l291 -207q20 -20 20 -45q0 -32 -26 -58t-56 -26q-6 0 -13 2.5t-12 5.5t-14.5 9.5t-15.5 9.5zM172 356q0 70 27.5 147t83 151.5
t130.5 134t180.5 96.5t223.5 37q190 0 310 -109t120 -281q0 -145 -89.5 -276.5t-237.5 -210t-312 -78.5q-196 0 -316 107t-120 282zM770 717q-103 0 -193 -44.5t-143 -119.5t-53 -160q0 -97 76 -159t194 -62q155 0 271 97.5t116 226.5q0 97 -75.5 159t-192.5 62z" />
    <glyph glyph-name="otilde" unicode="&#xf5;" 
d="M981 1202q34 0 90 49t90 49q24 0 41 -15t17 -34q0 -26 -37 -70.5t-99 -82t-120 -37.5q-45 0 -102 24.5t-107.5 49t-79.5 24.5q-35 0 -66 -23t-59 -46t-57 -23q-23 0 -38.5 14.5t-15.5 36.5q0 20 21 50t55 60t83 51t97 21q45 0 102 -24.5t107 -49t78 -24.5zM172 356
q0 70 27.5 147t83 151.5t130.5 134t180.5 96.5t223.5 37q190 0 310 -109t120 -281q0 -145 -89.5 -276.5t-237.5 -210t-312 -78.5q-196 0 -316 107t-120 282zM770 717q-103 0 -193 -44.5t-143 -119.5t-53 -160q0 -97 76 -159t194 -62q155 0 271 97.5t116 226.5
q0 97 -75.5 159t-192.5 62z" />
    <glyph glyph-name="odieresis" unicode="&#xf6;" 
d="M682 1290q44 0 72 -27.5t28 -70.5q0 -57 -46.5 -102.5t-106.5 -45.5q-41 0 -70 29t-29 70q0 55 47.5 101t104.5 46zM1108 1290q44 0 72 -27.5t28 -70.5q0 -57 -46.5 -102.5t-106.5 -45.5q-41 0 -70 29t-29 70q0 55 47.5 101t104.5 46zM172 356q0 70 27.5 147t83 151.5
t130.5 134t180.5 96.5t223.5 37q190 0 310 -109t120 -281q0 -145 -89.5 -276.5t-237.5 -210t-312 -78.5q-196 0 -316 107t-120 282zM770 717q-103 0 -193 -44.5t-143 -119.5t-53 -160q0 -97 76 -159t194 -62q155 0 271 97.5t116 226.5q0 97 -75.5 159t-192.5 62z" />
    <glyph glyph-name="divide" unicode="&#xf7;" 
d="M207 553q0 20 6.5 39.5t22.5 39.5t49.5 32t81.5 12h784q63 0 90 -15.5t27 -66.5q0 -47 -37.5 -85t-122.5 -38h-784q-63 0 -90 19t-27 63zM686 328q61 0 94 -28t33 -79q0 -69 -54 -116.5t-132 -47.5q-60 0 -93.5 28t-33.5 79q0 69 54 116.5t132 47.5zM846 1090
q63 0 96 -28t33 -79q0 -69 -54.5 -116.5t-132.5 -47.5q-60 0 -93 28t-33 79q0 68 54 116t130 48z" />
    <glyph glyph-name="oslash" unicode="&#xf8;" 
d="M1298 823l-104 -88q53 -92 53 -203q0 -145 -89.5 -276t-237.5 -210t-312 -79q-137 0 -252 62l-139 -119q-36 -32 -57 -42.5t-45 -10.5q-35 0 -57.5 21.5t-22.5 55.5q0 29 15 52.5t56 58.5l121 102q-57 92 -57 209q0 107 53 211.5t140 182t203.5 125t236.5 47.5
q69 0 143.5 -18t120.5 -46l121 100q37 32 57 43t45 11q35 0 57.5 -22t22.5 -56q0 -29 -15.5 -53t-56.5 -58zM1016 586l-471 -400q49 -14 102 -14q157 0 274 96.5t117 225.5q0 49 -22 92zM403 297l478 403q-70 17 -115 17q-154 0 -270.5 -97.5t-116.5 -226.5q0 -47 24 -96z
" />
    <glyph glyph-name="ugrave" unicode="&#xf9;" 
d="M754 1335l164 -166q34 -34 34 -75q0 -27 -28.5 -50.5t-61.5 -23.5q-26 0 -59 33l-164 168q-35 35 -35 73q0 31 27 52.5t61 21.5q17 0 28.5 -6t33.5 -27zM799 772q0 49 36.5 86t122.5 37h277l-148 -690q107 0 107 -80q0 -48 -37.5 -86.5t-124.5 -38.5h-192l20 98
q-93 -72 -157 -98.5t-150 -26.5q-135 0 -218 69t-83 183q0 39 10 94l78 373h-33q-62 0 -88 19t-26 63q0 48 36 84.5t123 36.5h238l-121 -569q-6 -24 -6 -47q0 -48 40 -74.5t113 -26.5q77 0 136 28t155 111l80 375h-72q-63 0 -89.5 18.5t-26.5 61.5z" />
    <glyph glyph-name="uacute" unicode="&#xfa;" 
d="M973 1206l-203 -155q-40 -33 -61 -33q-31 0 -51.5 22t-20.5 58q0 21 59 69l203 154q29 21 41 27t29 6q31 0 47 -20.5t16 -55.5q0 -17 -13 -31.5t-46 -40.5zM799 772q0 49 36.5 86t122.5 37h277l-148 -690q107 0 107 -80q0 -48 -37.5 -86.5t-124.5 -38.5h-192l20 98
q-93 -72 -157 -98.5t-150 -26.5q-135 0 -218 69t-83 183q0 39 10 94l78 373h-33q-62 0 -88 19t-26 63q0 48 36 84.5t123 36.5h238l-121 -569q-6 -24 -6 -47q0 -48 40 -74.5t113 -26.5q77 0 136 28t155 111l80 375h-72q-63 0 -89.5 18.5t-26.5 61.5z" />
    <glyph glyph-name="ucircumflex" unicode="&#xfb;" 
d="M811 1171l-254 -127q-8 -4 -18.5 -10t-16.5 -8.5t-13 -5t-13 -2.5q-26 0 -44 18t-18 43q0 17 5.5 30.5t18.5 24.5t18.5 14.5t21.5 12.5l346 193l291 -207q20 -20 20 -45q0 -32 -26 -58t-56 -26q-6 0 -13.5 2.5t-11.5 5t-15 9t-15 9.5zM799 772q0 49 36.5 86t122.5 37h277
l-148 -690q107 0 107 -80q0 -48 -37.5 -86.5t-124.5 -38.5h-192l20 98q-93 -72 -157 -98.5t-150 -26.5q-135 0 -218 69t-83 183q0 39 10 94l78 373h-33q-62 0 -88 19t-26 63q0 48 36 84.5t123 36.5h238l-121 -569q-6 -24 -6 -47q0 -48 40 -74.5t113 -26.5q77 0 136 28
t155 111l80 375h-72q-63 0 -89.5 18.5t-26.5 61.5z" />
    <glyph glyph-name="udieresis" unicode="&#xfc;" 
d="M664 1290q44 0 72 -27.5t28 -70.5q0 -57 -47 -102.5t-107 -45.5q-41 0 -69.5 29t-28.5 70q0 55 47.5 101t104.5 46zM1090 1290q44 0 72 -27.5t28 -70.5q0 -57 -47 -102.5t-107 -45.5q-41 0 -69.5 29t-28.5 70q0 55 47.5 101t104.5 46zM799 772q0 49 36.5 86t122.5 37h277
l-148 -690q107 0 107 -80q0 -48 -37.5 -86.5t-124.5 -38.5h-192l20 98q-93 -72 -157 -98.5t-150 -26.5q-135 0 -218 69t-83 183q0 39 10 94l78 373h-33q-62 0 -88 19t-26 63q0 48 36 84.5t123 36.5h238l-121 -569q-6 -24 -6 -47q0 -48 40 -74.5t113 -26.5q77 0 136 28
t155 111l80 375h-72q-63 0 -89.5 18.5t-26.5 61.5z" />
    <glyph glyph-name="yacute" unicode="&#xfd;" 
d="M1040 1206l-202 -155q-40 -33 -62 -33q-31 0 -51 22t-20 58q0 21 59 69l203 154q29 21 41 27t28 6q31 0 47.5 -20.5t16.5 -55.5q0 -17 -13 -31.5t-47 -40.5zM-25 -328q0 47 37.5 85t122.5 38h205l158 211l-207 684q-82 12 -82 82q0 48 37 85.5t123 37.5h184
q58 0 86.5 -16t28.5 -64q0 -55 -40.5 -89t-105.5 -36l140 -457l339 457h-10q-100 0 -100 82q0 48 37 85.5t123 37.5h188q38 0 60 -4t39.5 -23t17.5 -55q0 -49 -36 -83t-93 -40l-664 -895h10q59 0 88 -16t29 -64t-37 -86.5t-123 -38.5h-438q-63 0 -90 19t-27 63z" />
    <glyph glyph-name="thorn" unicode="&#xfe;" 
d="M231 1155q0 48 37 85.5t123 37.5h238l-103 -475q89 65 167 92t173 27q187 0 298.5 -101t111.5 -270q0 -143 -81 -265.5t-220 -194t-301 -71.5q-87 0 -154.5 27t-134.5 88l-72 -340h119q58 0 86.5 -16t28.5 -64q0 -49 -37 -87t-123 -38h-356q-62 0 -88.5 19t-26.5 63
q0 48 37 85.5t123 37.5h33l270 1278h-33q-63 0 -89 19t-26 63zM709 225q82 0 148 24t104 58t64 76.5t35 75.5t9 57q0 92 -69 146.5t-185 54.5q-86 0 -153.5 -25t-105.5 -60t-62.5 -78t-32.5 -74.5t-8 -53.5q0 -33 12 -65t38.5 -64t79.5 -52t126 -20z" />
    <glyph glyph-name="ydieresis" unicode="&#xff;" 
d="M674 1290q44 0 72 -27.5t28 -70.5q0 -57 -46.5 -102.5t-106.5 -45.5q-41 0 -70 29t-29 70q0 55 47.5 101t104.5 46zM1100 1290q44 0 72 -27.5t28 -70.5q0 -57 -46.5 -102.5t-106.5 -45.5q-41 0 -70 29t-29 70q0 55 47.5 101t104.5 46zM-25 -328q0 47 37.5 85t122.5 38
h205l158 211l-207 684q-82 12 -82 82q0 48 37 85.5t123 37.5h184q58 0 86.5 -16t28.5 -64q0 -55 -40.5 -89t-105.5 -36l140 -457l339 457h-10q-100 0 -100 82q0 48 37 85.5t123 37.5h188q38 0 60 -4t39.5 -23t17.5 -55q0 -49 -36 -83t-93 -40l-664 -895h10q59 0 88 -16
t29 -64t-37 -86.5t-123 -38.5h-438q-63 0 -90 19t-27 63z" />
    <glyph glyph-name="Amacron" unicode="&#x100;" 
d="M575 1509h500q51 0 71.5 -15t20.5 -52q0 -41 -36 -68.5t-91 -27.5h-499q-51 0 -71.5 14.5t-20.5 52.5q0 43 34.5 69.5t91.5 26.5zM737 82q0 49 37 86t123 37h47l-22 119h-488l-74 -119h48q57 0 86.5 -16t29.5 -66q0 -47 -37 -85t-122 -38h-271q-63 0 -90 19t-27 63
q0 49 37.5 86t124.5 37l484 784h-129q-63 0 -90 19t-27 63q0 20 6 38.5t22 39t50 33t82 12.5h442l199 -989q59 0 88.5 -15.5t29.5 -66.5q0 -48 -36.5 -85.5t-122.5 -37.5h-285q-62 0 -88.5 19t-26.5 63zM881 528l-78 394l-244 -394h322z" />
    <glyph glyph-name="amacron" unicode="&#x101;" 
d="M608 1208h500q51 0 71.5 -15t20.5 -52q0 -42 -36 -69.5t-91 -27.5h-500q-51 0 -71.5 15t-20.5 53q0 43 35 69.5t92 26.5zM1194 125q0 -49 -37 -87t-123 -38h-239l10 47q-171 -80 -356 -80q-137 0 -226.5 66.5t-89.5 167.5q0 19 7.5 46.5t26.5 65t47.5 74.5t75 74
t103.5 65.5t139 46t177 17.5q86 0 206 -21q13 54 13 68q0 80 -172 80q-81 0 -193.5 -23.5t-138.5 -23.5q-34 0 -56 22.5t-22 57.5q0 49 45 85t117.5 53.5t144 25.5t144.5 8q160 0 252 -62.5t92 -169.5q0 -39 -8 -72l-89 -413h35q58 0 86.5 -16t28.5 -64zM655 401
q-121 0 -210 -52.5t-89 -106.5q0 -29 40 -49.5t98 -20.5q170 0 362 104l21 103q-123 22 -222 22z" />
    <glyph glyph-name="Abreve" unicode="&#x102;" 
d="M541 1636q31 0 42.5 -13t14.5 -52t62 -74t139 -35t149 34.5t88 74.5q20 40 35.5 52.5t46.5 12.5q60 0 60 -51q0 -59 -58 -120t-153 -101.5t-193 -40.5q-130 0 -223.5 67.5t-93.5 155.5q0 45 22.5 67.5t61.5 22.5zM737 82q0 49 37 86t123 37h47l-22 119h-488l-74 -119h48
q57 0 86.5 -16t29.5 -66q0 -47 -37 -85t-122 -38h-271q-63 0 -90 19t-27 63q0 49 37.5 86t124.5 37l484 784h-129q-63 0 -90 19t-27 63q0 20 6 38.5t22 39t50 33t82 12.5h442l199 -989q59 0 88.5 -15.5t29.5 -66.5q0 -48 -36.5 -85.5t-122.5 -37.5h-285q-62 0 -88.5 19
t-26.5 63zM881 528l-78 394l-244 -394h322z" />
    <glyph glyph-name="abreve" unicode="&#x103;" 
d="M561 1343q31 0 42.5 -13t14.5 -52t62 -74t139 -35t149.5 34.5t88.5 74.5q20 40 35.5 52.5t46.5 12.5q59 0 59 -51q0 -59 -57.5 -120t-152.5 -101.5t-193 -40.5q-130 0 -224 67.5t-94 155.5q0 45 22.5 67.5t61.5 22.5zM1194 125q0 -49 -37 -87t-123 -38h-239l10 47
q-171 -80 -356 -80q-137 0 -226.5 66.5t-89.5 167.5q0 19 7.5 46.5t26.5 65t47.5 74.5t75 74t103.5 65.5t139 46t177 17.5q86 0 206 -21q13 54 13 68q0 80 -172 80q-81 0 -193.5 -23.5t-138.5 -23.5q-34 0 -56 22.5t-22 57.5q0 49 45 85t117.5 53.5t144 25.5t144.5 8
q160 0 252 -62.5t92 -169.5q0 -39 -8 -72l-89 -413h35q58 0 86.5 -16t28.5 -64zM655 401q-121 0 -210 -52.5t-89 -106.5q0 -29 40 -49.5t98 -20.5q170 0 362 104l21 103q-123 22 -222 22z" />
    <glyph glyph-name="Aogonek" unicode="&#x104;" 
d="M995 -250q31 0 82.5 22.5t73.5 22.5q29 0 46 -18t17 -47q0 -46 -51.5 -80t-109 -47t-103.5 -13q-73 0 -115 40.5t-42 109.5q0 84 48.5 137.5t182.5 122.5h-172q-62 0 -88.5 19t-26.5 63q0 49 37 86t123 37h47l-22 119h-488l-74 -119h48q57 0 86.5 -16t29.5 -66
q0 -47 -37 -85t-122 -38h-271q-63 0 -90 19t-27 63q0 49 37.5 86t124.5 37l484 784h-129q-63 0 -90 19t-27 63q0 20 6 38.5t22 39t50 33t82 12.5h442l199 -989q59 0 88.5 -15.5t29.5 -66.5q0 -41 -25.5 -70t-86.5 -57q-100 -44 -161.5 -101.5t-61.5 -111.5q0 -17 7.5 -25
t26.5 -8zM881 528l-78 394l-244 -394h322z" />
    <glyph glyph-name="aogonek" unicode="&#x105;" 
d="M891 -254q32 0 86 24.5t78 24.5q28 0 45.5 -16.5t17.5 -44.5q0 -37 -31 -66t-76.5 -45t-89.5 -24.5t-77 -8.5q-73 0 -115.5 36.5t-42.5 99.5q0 31 7.5 60.5t19 51.5t30 43.5t33.5 35.5t37.5 29.5t35 22.5t32.5 18t24 13h-110l10 47q-171 -80 -356 -80q-137 0 -226.5 66.5
t-89.5 167.5q0 19 7.5 46.5t26.5 65t47.5 74.5t75 74t103.5 65.5t139 46t177 17.5q86 0 206 -21q13 54 13 68q0 80 -172 80q-81 0 -193.5 -23.5t-138.5 -23.5q-34 0 -56 22.5t-22 57.5q0 49 45 85t117.5 53.5t144 25.5t144.5 8q160 0 252 -62.5t92 -169.5q0 -39 -8 -72
l-89 -413h35q58 0 86.5 -16t28.5 -64q0 -37 -35 -73t-85.5 -66.5t-101 -61.5t-85.5 -69.5t-35 -77.5q0 -31 39 -31zM655 401q-121 0 -210 -52.5t-89 -106.5q0 -29 40 -49.5t98 -20.5q170 0 362 104l21 103q-123 22 -222 22z" />
    <glyph glyph-name="Cacute" unicode="&#x106;" 
d="M1149 1491l-203 -156q-39 -32 -61 -32q-31 0 -51.5 21.5t-20.5 57.5q0 22 59 70l203 154q28 21 40.5 26.5t29.5 5.5q63 0 63 -75q0 -17 -13 -31.5t-46 -40.5zM1102 827l2 47q0 57 -76.5 100.5t-177.5 43.5q-84 0 -154.5 -27t-118.5 -69.5t-85.5 -99t-59.5 -111.5
t-36 -111.5t-18.5 -95.5t-4.5 -66q0 -122 90.5 -192t247.5 -70q80 0 144 15.5t100.5 37.5t64.5 44t52.5 37.5t47.5 15.5q35 0 59.5 -24.5t24.5 -59.5q0 -39 -40 -85.5t-107.5 -88t-172.5 -69.5t-220 -28q-227 0 -363.5 117t-136.5 311q0 55 12 111l29 135
q35 162 135.5 294.5t244.5 208t300 75.5q79 0 142.5 -16t152.5 -62q49 49 96 49q35 0 58.5 -22t23.5 -56q0 -22 -8 -57l-37 -172q-30 -135 -131 -135q-35 0 -57.5 20.5t-22.5 54.5z" />
    <glyph glyph-name="cacute" unicode="&#x107;" 
d="M1036 1208l-202 -155q-40 -33 -62 -33q-31 0 -51.5 22t-20.5 58q0 20 60 69l203 154q29 21 41 27t28 6q31 0 47.5 -20.5t16.5 -55.5q0 -17 -13 -31.5t-47 -40.5zM190 319q0 34 8.5 78.5t29.5 103t53 116t84 113t116 98t155.5 68.5t197.5 26q171 0 280 -62q29 62 90 62
q37 0 57.5 -20.5t20.5 -57.5q0 -14 -8 -58l-33 -157q-35 -135 -133 -135q-49 0 -65.5 25t-16.5 73q0 47 -39.5 76.5t-89.5 39t-109 9.5q-92 0 -165 -30t-113.5 -72.5t-67 -94.5t-35 -90t-8.5 -65q0 -193 314 -193q86 0 151 12t100.5 28.5t60.5 33.5t46.5 29t44.5 12
q35 0 58.5 -23.5t23.5 -60.5q0 -18 -11.5 -43t-48 -60t-93.5 -63.5t-160.5 -49t-235.5 -20.5q-94 0 -169 16t-123.5 44.5t-82.5 62.5t-51.5 75.5t-25 78t-7.5 75.5z" />
    <glyph glyph-name="Ccircumflex" unicode="&#x108;" 
d="M903 1456l-254 -127q-8 -4 -18.5 -10t-16.5 -8.5t-13 -5t-13 -2.5q-26 0 -44 18t-18 43q0 17 5.5 30.5t18.5 24.5t18.5 14.5t21.5 12.5l346 192l291 -206q20 -20 20 -46q0 -32 -26 -57.5t-56 -25.5q-6 0 -13.5 2.5t-11.5 5t-15 9t-15 9.5zM1102 827l2 47
q0 57 -76.5 100.5t-177.5 43.5q-84 0 -154.5 -27t-118.5 -69.5t-85.5 -99t-59.5 -111.5t-36 -111.5t-18.5 -95.5t-4.5 -66q0 -122 90.5 -192t247.5 -70q80 0 144 15.5t100.5 37.5t64.5 44t52.5 37.5t47.5 15.5q35 0 59.5 -24.5t24.5 -59.5q0 -39 -40 -85.5t-107.5 -88
t-172.5 -69.5t-220 -28q-227 0 -363.5 117t-136.5 311q0 55 12 111l29 135q35 162 135.5 294.5t244.5 208t300 75.5q79 0 142.5 -16t152.5 -62q49 49 96 49q35 0 58.5 -22t23.5 -56q0 -22 -8 -57l-37 -172q-30 -135 -131 -135q-35 0 -57.5 20.5t-22.5 54.5z" />
    <glyph glyph-name="ccircumflex" unicode="&#x109;" 
d="M874 1198l-253 -127q-8 -4 -19 -10l-16.5 -9t-13 -5.5t-13.5 -2.5q-26 0 -43.5 18.5t-17.5 43.5q0 23 12.5 41t21.5 24t29 17l346 192l291 -206q21 -21 21 -46q0 -32 -26 -58t-56 -26q-6 0 -13.5 2.5t-12 5t-15 9.5t-15.5 10zM190 319q0 34 8.5 78.5t29.5 103t53 116
t84 113t116 98t155.5 68.5t197.5 26q171 0 280 -62q29 62 90 62q37 0 57.5 -20.5t20.5 -57.5q0 -14 -8 -58l-33 -157q-35 -135 -133 -135q-49 0 -65.5 25t-16.5 73q0 47 -39.5 76.5t-89.5 39t-109 9.5q-92 0 -165 -30t-113.5 -72.5t-67 -94.5t-35 -90t-8.5 -65
q0 -193 314 -193q86 0 151 12t100.5 28.5t60.5 33.5t46.5 29t44.5 12q35 0 58.5 -23.5t23.5 -60.5q0 -18 -11.5 -43t-48 -60t-93.5 -63.5t-160.5 -49t-235.5 -20.5q-94 0 -169 16t-123.5 44.5t-82.5 62.5t-51.5 75.5t-25 78t-7.5 75.5z" />
    <glyph glyph-name="Cdotaccent" unicode="&#x10a;" 
d="M963 1591q44 0 72 -27.5t28 -70.5q0 -57 -47 -102t-107 -45q-41 0 -69.5 28.5t-28.5 69.5q0 57 46.5 102t105.5 45zM1102 827l2 47q0 57 -76.5 100.5t-177.5 43.5q-84 0 -154.5 -27t-118.5 -69.5t-85.5 -99t-59.5 -111.5t-36 -111.5t-18.5 -95.5t-4.5 -66
q0 -122 90.5 -192t247.5 -70q80 0 144 15.5t100.5 37.5t64.5 44t52.5 37.5t47.5 15.5q35 0 59.5 -24.5t24.5 -59.5q0 -39 -40 -85.5t-107.5 -88t-172.5 -69.5t-220 -28q-227 0 -363.5 117t-136.5 311q0 55 12 111l29 135q35 162 135.5 294.5t244.5 208t300 75.5
q79 0 142.5 -16t152.5 -62q49 49 96 49q35 0 58.5 -22t23.5 -56q0 -22 -8 -57l-37 -172q-30 -135 -131 -135q-35 0 -57.5 20.5t-22.5 54.5z" />
    <glyph glyph-name="cdotaccent" unicode="&#x10b;" 
d="M934 1290q44 0 72 -27.5t28 -70.5q0 -57 -46.5 -102.5t-106.5 -45.5q-41 0 -70 29t-29 70q0 57 46.5 102t105.5 45zM190 319q0 34 8.5 78.5t29.5 103t53 116t84 113t116 98t155.5 68.5t197.5 26q171 0 280 -62q29 62 90 62q37 0 57.5 -20.5t20.5 -57.5q0 -14 -8 -58
l-33 -157q-35 -135 -133 -135q-49 0 -65.5 25t-16.5 73q0 47 -39.5 76.5t-89.5 39t-109 9.5q-92 0 -165 -30t-113.5 -72.5t-67 -94.5t-35 -90t-8.5 -65q0 -193 314 -193q86 0 151 12t100.5 28.5t60.5 33.5t46.5 29t44.5 12q35 0 58.5 -23.5t23.5 -60.5q0 -18 -11.5 -43
t-48 -60t-93.5 -63.5t-160.5 -49t-235.5 -20.5q-94 0 -169 16t-123.5 44.5t-82.5 62.5t-51.5 75.5t-25 78t-7.5 75.5z" />
    <glyph glyph-name="Ccaron" unicode="&#x10c;" 
d="M920 1485l254 127q8 4 18.5 10t16.5 8.5t13 5t13 2.5q26 0 43.5 -18t17.5 -43q0 -23 -12.5 -41t-21.5 -24t-29 -17l-346 -192l-291 206q-21 21 -21 45q0 32 26 58t56 26q5 0 10 -1t11 -4t10 -5.5t12.5 -8t12.5 -7.5zM1102 827l2 47q0 57 -76.5 100.5t-177.5 43.5
q-84 0 -154.5 -27t-118.5 -69.5t-85.5 -99t-59.5 -111.5t-36 -111.5t-18.5 -95.5t-4.5 -66q0 -122 90.5 -192t247.5 -70q80 0 144 15.5t100.5 37.5t64.5 44t52.5 37.5t47.5 15.5q35 0 59.5 -24.5t24.5 -59.5q0 -39 -40 -85.5t-107.5 -88t-172.5 -69.5t-220 -28
q-227 0 -363.5 117t-136.5 311q0 55 12 111l29 135q35 162 135.5 294.5t244.5 208t300 75.5q79 0 142.5 -16t152.5 -62q49 49 96 49q35 0 58.5 -22t23.5 -56q0 -22 -8 -57l-37 -172q-30 -135 -131 -135q-35 0 -57.5 20.5t-22.5 54.5z" />
    <glyph glyph-name="ccaron" unicode="&#x10d;" 
d="M889 1202l254 127q10 5 23.5 13t21.5 11t16 3q26 0 44 -18.5t18 -43.5q0 -17 -5.5 -30.5t-18.5 -24.5t-18.5 -14.5t-21.5 -12.5l-346 -192l-291 207q-20 20 -20 45q0 32 26 58t56 26q6 0 13 -2.5t12 -5.5t14.5 -9.5t15.5 -9.5zM190 319q0 34 8.5 78.5t29.5 103t53 116
t84 113t116 98t155.5 68.5t197.5 26q171 0 280 -62q29 62 90 62q37 0 57.5 -20.5t20.5 -57.5q0 -14 -8 -58l-33 -157q-35 -135 -133 -135q-49 0 -65.5 25t-16.5 73q0 47 -39.5 76.5t-89.5 39t-109 9.5q-92 0 -165 -30t-113.5 -72.5t-67 -94.5t-35 -90t-8.5 -65
q0 -193 314 -193q86 0 151 12t100.5 28.5t60.5 33.5t46.5 29t44.5 12q35 0 58.5 -23.5t23.5 -60.5q0 -18 -11.5 -43t-48 -60t-93.5 -63.5t-160.5 -49t-235.5 -20.5q-94 0 -169 16t-123.5 44.5t-82.5 62.5t-51.5 75.5t-25 78t-7.5 75.5z" />
    <glyph glyph-name="Dcaron" unicode="&#x10e;" 
d="M840 1485l254 127q8 4 18.5 10t16.5 8.5t13 5t13 2.5q26 0 44 -18t18 -43q0 -17 -5.5 -30.5t-18.5 -24.5t-18.5 -14.5t-21.5 -12.5l-346 -192l-291 206q-20 20 -20 45q0 32 26 58t56 26q6 0 13.5 -2.5t11.5 -5t15 -9t15 -9.5zM47 82q0 42 35.5 82.5t114.5 40.5l165 784
q-104 0 -104 82q0 20 6.5 39.5t22.5 39.5t49.5 32t81.5 12h436q188 0 304 -121t116 -317q0 -155 -49.5 -293t-138 -240.5t-219 -162.5t-283.5 -60h-420q-62 0 -89.5 19.5t-27.5 62.5zM1065 717q0 37 -7 72.5t-26.5 72.5t-49 64.5t-78.5 45t-111 17.5h-226l-166 -784h226
q24 0 45.5 1.5t59.5 8.5t69.5 19.5t70 37t68 58.5t56 86.5t40.5 118.5l21 94q8 39 8 88z" />
    <glyph glyph-name="dcaron" unicode="&#x10f;" 
d="M1493 1169l-203 -155q-40 -33 -61 -33q-31 0 -51.5 22t-20.5 58q0 20 60 69l202 154q29 21 41 27t29 6q31 0 47 -20.5t16 -55.5q0 -17 -13 -31.5t-46 -40.5zM778 1157q0 19 6.5 37.5t22.5 38.5t49.5 32.5t81.5 12.5h238l-228 -1073h33q57 0 86 -16t29 -66
q0 -48 -37 -85.5t-123 -37.5h-238l17 72q-92 -56 -166.5 -78.5t-163.5 -22.5q-96 0 -171.5 24.5t-120.5 63t-74.5 89.5t-40.5 99t-11 97q0 104 45 208.5t123 184.5q184 187 455 187q175 0 284 -103l54 254h-33q-64 0 -90.5 18.5t-26.5 63.5zM801 500q0 28 -5.5 54.5
t-22.5 57.5t-44.5 54t-76 38t-111.5 15q-68 0 -125.5 -19t-95.5 -49.5t-67 -67t-44.5 -74t-23 -66t-7.5 -48.5q0 -103 68 -161t188 -58q82 0 148.5 27t106 65.5t66 85.5t36.5 83.5t10 62.5z" />
    <glyph glyph-name="Dcroat" unicode="&#x110;" 
d="M47 82q0 42 35.5 82.5t114.5 40.5l61 293h-14q-63 0 -90 19t-27 63q0 48 37 85t123 37h14l61 287q-104 0 -104 82q0 20 6.5 39.5t22.5 39.5t49.5 32t81.5 12h436q188 0 304 -121t116 -317q0 -155 -49.5 -293t-138 -240.5t-219 -162.5t-283.5 -60h-420q-62 0 -89.5 19.5
t-27.5 62.5zM774 623q0 -49 -37 -87t-123 -38h-151l-62 -293h226q24 0 45.5 1.5t59.5 8.5t69.5 19.5t70 37t68 58.5t56 86.5t40.5 118.5l21 94q8 39 8 88q0 37 -7 72.5t-26.5 72.5t-49 64.5t-78.5 45t-111 17.5h-226l-61 -287h151q60 0 88.5 -15.5t28.5 -63.5z" />
    <glyph glyph-name="dcroat" unicode="&#x111;" 
d="M963 1157q0 19 6.5 37.5t22 38.5t49 32.5t81.5 12.5h238l-49 -234h30q59 0 88 -15t29 -62q0 -51 -37 -89t-123 -38h-30l-135 -635h32q57 0 86 -16t29 -66q0 -48 -37 -85.5t-123 -37.5h-237l16 72q-92 -56 -166.5 -78.5t-163.5 -22.5q-96 0 -171 24.5t-120.5 63t-74.5 90
t-40 99t-11 96.5q0 104 44.5 208.5t122.5 184.5q184 187 455 187q174 0 285 -105l53 256h-33q-63 0 -89.5 18.5t-26.5 63.5zM985 500q0 28 -5.5 54.5t-22.5 57.5t-44.5 54t-76 38t-111.5 15q-68 0 -125.5 -19t-95.5 -49.5t-67 -67t-44.5 -74t-23 -66t-7.5 -48.5
q0 -103 68 -161t188 -58q82 0 148.5 27t106 65.5t66 85.5t36.5 83.5t10 62.5z" />
    <glyph glyph-name="Emacron" unicode="&#x112;" 
d="M694 1509h500q51 0 71.5 -15t20.5 -52q0 -41 -36 -68.5t-91 -27.5h-500q-51 0 -71.5 14.5t-20.5 52.5q0 43 35 69.5t92 26.5zM721 700q2 14 5 29t13 38.5t23.5 41t37.5 30.5t54 13q35 0 58.5 -22t23.5 -56q0 -18 -8 -59l-51 -232q-28 -135 -129 -135q-35 0 -58.5 22
t-23.5 54q0 34 12 74h-174l-62 -293h523l24 106q27 138 129 138q35 0 59.5 -22t24.5 -54q0 -25 -8 -62l-68 -311h-962q-61 0 -89 19.5t-28 62.5q0 49 36.5 86t123.5 37h31l165 784h-30q-63 0 -90 19t-27 63q0 21 6.5 40t22.5 39t50.5 32t82.5 12h917l-65 -307
q-27 -137 -131 -137q-34 0 -58 22t-24 55t30 162h-479l-61 -289h174z" />
    <glyph glyph-name="emacron" unicode="&#x113;" 
d="M604 1208h500q51 0 71.5 -15t20.5 -52q0 -42 -36 -69.5t-91 -27.5h-500q-51 0 -71.5 15t-20.5 53q0 43 35 69.5t92 26.5zM666 172q101 0 244 34t171 34q35 0 56.5 -22t21.5 -56q0 -69 -67 -105q-66 -35 -216 -62.5t-274 -27.5q-209 0 -329.5 102t-120.5 277
q0 112 53 218.5t140 184.5t205 125.5t243 47.5q199 0 317.5 -106.5t118.5 -285.5q0 -28 -4 -56.5t-12.5 -70t-10.5 -51.5h-837q17 -92 91 -136t210 -44zM410 532h604q-7 83 -79.5 134t-182.5 51q-114 0 -206.5 -50t-135.5 -135z" />
    <glyph glyph-name="Ebreve" unicode="&#x114;" 
d="M721 700q2 14 5 29t13 38.5t23.5 41t37.5 30.5t54 13q35 0 58.5 -22t23.5 -56q0 -18 -8 -59l-51 -232q-28 -135 -129 -135q-35 0 -58.5 22t-23.5 54q0 34 12 74h-174l-62 -293h523l24 106q27 138 129 138q35 0 59.5 -22t24.5 -54q0 -25 -8 -62l-68 -311h-962
q-61 0 -89 19.5t-28 62.5q0 49 36.5 86t123.5 37h31l165 784h-30q-63 0 -90 19t-27 63q0 21 6.5 40t22.5 39t50.5 32t82.5 12h917l-65 -307q-27 -137 -131 -137q-34 0 -58 22t-24 55t30 162h-479l-61 -289h174zM580 1589q31 0 42.5 -13t14.5 -52t62 -74t139 -35t149 34.5
t88 74.5q20 40 35.5 52.5t46.5 12.5q60 0 60 -51q0 -59 -58 -120t-153 -101.5t-193 -40.5q-130 0 -223.5 67.5t-93.5 155.5q0 45 22.5 67.5t61.5 22.5z" />
    <glyph glyph-name="ebreve" unicode="&#x115;" 
d="M666 172q101 0 244 34t171 34q35 0 56.5 -22t21.5 -56q0 -69 -67 -105q-66 -35 -216 -62.5t-274 -27.5q-209 0 -329.5 102t-120.5 277q0 112 53 218.5t140 184.5t205 125.5t243 47.5q199 0 317.5 -106.5t118.5 -285.5q0 -28 -4 -56.5t-12.5 -70t-10.5 -51.5h-837
q17 -92 91 -136t210 -44zM410 532h604q-7 83 -79.5 134t-182.5 51q-114 0 -206.5 -50t-135.5 -135zM541 1290q31 0 42.5 -13t14.5 -52t62 -74t139 -35t149 34.5t88 74.5q20 40 35.5 52.5t46.5 12.5q60 0 60 -51q0 -59 -58 -120t-153 -101.5t-193 -40.5q-130 0 -223.5 67.5
t-93.5 155.5q0 45 22.5 67.5t61.5 22.5z" />
    <glyph glyph-name="Edotaccent" unicode="&#x116;" 
d="M961 1591q44 0 72 -27.5t28 -70.5q0 -57 -47 -102t-107 -45q-41 0 -69.5 28.5t-28.5 69.5q0 57 46.5 102t105.5 45zM721 700q2 14 5 29t13 38.5t23.5 41t37.5 30.5t54 13q35 0 58.5 -22t23.5 -56q0 -18 -8 -59l-51 -232q-28 -135 -129 -135q-35 0 -58.5 22t-23.5 54
q0 34 12 74h-174l-62 -293h523l24 106q27 138 129 138q35 0 59.5 -22t24.5 -54q0 -25 -8 -62l-68 -311h-962q-61 0 -89 19.5t-28 62.5q0 49 36.5 86t123.5 37h31l165 784h-30q-63 0 -90 19t-27 63q0 21 6.5 40t22.5 39t50.5 32t82.5 12h917l-65 -307q-27 -137 -131 -137
q-34 0 -58 22t-24 55t30 162h-479l-61 -289h174z" />
    <glyph glyph-name="edotaccent" unicode="&#x117;" 
d="M870 1290q44 0 72.5 -27.5t28.5 -70.5q0 -57 -47 -102.5t-107 -45.5q-41 0 -69.5 29t-28.5 70q0 57 46 102t105 45zM666 172q101 0 244 34t171 34q35 0 56.5 -22t21.5 -56q0 -69 -67 -105q-66 -35 -216 -62.5t-274 -27.5q-209 0 -329.5 102t-120.5 277q0 112 53 218.5
t140 184.5t205 125.5t243 47.5q199 0 317.5 -106.5t118.5 -285.5q0 -28 -4 -56.5t-12.5 -70t-10.5 -51.5h-837q17 -92 91 -136t210 -44zM410 532h604q-7 83 -79.5 134t-182.5 51q-114 0 -206.5 -50t-135.5 -135z" />
    <glyph glyph-name="Eogonek" unicode="&#x118;" 
d="M924 -250q31 0 82 22.5t73 22.5q29 0 46.5 -18t17.5 -47q0 -46 -51.5 -80t-109 -47t-103.5 -13q-73 0 -115.5 40.5t-42.5 109.5q0 85 48 138t181 122h-786q-61 0 -89 19.5t-28 62.5q0 49 36.5 86t123.5 37h31l165 784h-30q-63 0 -90 19t-27 63q0 21 6.5 40t22.5 39
t50.5 32t82.5 12h917l-65 -307q-27 -137 -131 -137q-34 0 -58 22t-24 55t30 162h-479l-61 -289h174q2 14 5 29t13 38.5t23.5 41t37.5 30.5t54 13q35 0 58.5 -22t23.5 -56q0 -18 -8 -59l-51 -232q-28 -135 -129 -135q-35 0 -58.5 22t-23.5 54q0 34 12 74h-174l-62 -293h523
l24 106q27 138 129 138q35 0 59.5 -22t24.5 -54q0 -25 -8 -62l-68 -311q-109 -49 -173 -101t-64 -116q0 -33 35 -33z" />
    <glyph glyph-name="eogonek" unicode="&#x119;" 
d="M743 -254q32 0 86.5 24.5t77.5 24.5q28 0 46 -17t18 -44q0 -37 -31 -66t-77 -45t-90 -24.5t-77 -8.5q-73 0 -115 36.5t-42 99.5q0 73 42 132t128 113q-98 -4 -107 -4q-209 0 -329.5 102t-120.5 277q0 112 53 218.5t140 184.5t205 125.5t243 47.5q199 0 317.5 -106.5
t118.5 -285.5q0 -28 -4 -56.5t-12.5 -70t-10.5 -51.5h-837q17 -92 91 -136t210 -44q101 0 244 34t171 34q35 0 56.5 -22t21.5 -56q0 -43 -25 -71.5t-85 -51.5q-142 -54 -243 -129.5t-101 -132.5q0 -31 38 -31zM410 532h604q-7 83 -79.5 134t-182.5 51q-114 0 -206.5 -50
t-135.5 -135z" />
    <glyph glyph-name="Ecaron" unicode="&#x11a;" 
d="M887 1485l254 127q8 4 18.5 10t16.5 8.5t13 5t13 2.5q26 0 44 -18t18 -43q0 -17 -5.5 -30.5t-18.5 -24.5t-18.5 -14.5t-21.5 -12.5l-346 -192l-291 206q-20 20 -20 45q0 32 26 58t56 26q6 0 13.5 -2.5t11.5 -5t15 -9t15 -9.5zM721 700q2 14 5 29t13 38.5t23.5 41
t37.5 30.5t54 13q35 0 58.5 -22t23.5 -56q0 -18 -8 -59l-51 -232q-28 -135 -129 -135q-35 0 -58.5 22t-23.5 54q0 34 12 74h-174l-62 -293h523l24 106q27 138 129 138q35 0 59.5 -22t24.5 -54q0 -25 -8 -62l-68 -311h-962q-61 0 -89 19.5t-28 62.5q0 49 36.5 86t123.5 37h31
l165 784h-30q-63 0 -90 19t-27 63q0 21 6.5 40t22.5 39t50.5 32t82.5 12h917l-65 -307q-27 -137 -131 -137q-34 0 -58 22t-24 55t30 162h-479l-61 -289h174z" />
    <glyph glyph-name="ecaron" unicode="&#x11b;" 
d="M870 1200l254 127q8 4 19 10l16.5 9t13 5.5t13.5 2.5q26 0 43.5 -18.5t17.5 -43.5q0 -23 -12.5 -41t-21.5 -24t-29 -17l-346 -192l-291 207q-21 21 -21 45q0 32 26 58t56 26q6 0 13.5 -2.5t12 -5t15 -9.5t15.5 -10zM666 172q101 0 244 34t171 34q35 0 56.5 -22t21.5 -56
q0 -69 -67 -105q-66 -35 -216 -62.5t-274 -27.5q-209 0 -329.5 102t-120.5 277q0 112 53 218.5t140 184.5t205 125.5t243 47.5q199 0 317.5 -106.5t118.5 -285.5q0 -28 -4 -56.5t-12.5 -70t-10.5 -51.5h-837q17 -92 91 -136t210 -44zM410 532h604q-7 83 -79.5 134t-182.5 51
q-114 0 -206.5 -50t-135.5 -135z" />
    <glyph glyph-name="Gcircumflex" unicode="&#x11c;" 
d="M1198 573q59 0 88 -15.5t29 -63.5q0 -44 -30 -77.5t-81 -47.5l-57 -271q-154 -74 -254 -100.5t-223 -26.5q-47 0 -92 4.5t-97 16t-96.5 30.5t-86.5 51t-71 73t-47 100.5t-18 130.5q0 52 14 127l31 145q23 111 84.5 213.5t150.5 183t211 129t256 48.5q168 0 285 -66
q25 37 46 51.5t50 14.5q34 0 55 -21t21 -55q0 -21 -8 -60l-35 -159q-17 -72 -48 -102q-33 -33 -83 -33q-18 0 -31 3t-21.5 13t-13 15t-7 23.5t-3 24t-2.5 29.5q-3 54 -69.5 85.5t-178.5 31.5q-169 0 -294.5 -102t-159.5 -267q-4 -18 -13 -56.5t-14 -62t-9.5 -58t-4.5 -64.5
q0 -111 85.5 -171.5t243.5 -60.5q143 0 271 51l28 142h-202q-63 0 -90 19t-27 63q0 20 6.5 39t22.5 39t49.5 32t81.5 12h358zM903 1430l-254 -127q-10 -5 -23.5 -13t-21.5 -11t-16 -3q-26 0 -44 18t-18 43q0 17 5.5 30.5t18.5 24.5t18.5 14.5t21.5 12.5l346 193l291 -207
q20 -20 20 -45q0 -32 -26 -58t-56 -26q-6 0 -13 2.5t-12 5.5t-14.5 9.5t-15.5 9.5z" />
    <glyph glyph-name="gcircumflex" unicode="&#x11d;" 
d="M219 -328q0 48 36.5 85.5t123.5 37.5h223q88 0 150 47t79 127l23 103q-160 -101 -311 -101q-175 0 -284 103.5t-109 269.5q0 150 83 284.5t221.5 215t293.5 80.5q166 0 266 -103l14 74h240q56 0 85 -15.5t29 -66.5q0 -48 -36.5 -85.5t-122.5 -37.5h-33l-154 -721
q-34 -163 -169 -271t-304 -108h-227q-63 0 -90 19t-27 63zM707 719q-132 0 -239.5 -100t-107.5 -224q0 -96 65 -157.5t167 -61.5q135 0 241.5 99.5t106.5 224.5q0 97 -65 158t-168 61zM844 1130l-254 -126q-8 -4 -19 -10l-16.5 -9t-13 -5.5t-13.5 -2.5q-26 0 -43.5 18
t-17.5 43q0 23 12.5 41t21.5 24t29 17l347 193l290 -207q21 -21 21 -45q0 -32 -26 -58t-56 -26q-6 0 -13 2.5t-12 5.5t-14.5 9.5t-15.5 9.5z" />
    <glyph glyph-name="Gbreve" unicode="&#x11e;" 
d="M612 1638q31 0 43 -13t15 -52t61.5 -74t138.5 -35t149.5 34.5t88.5 74.5q20 40 35.5 52.5t46.5 12.5q59 0 59 -51q0 -59 -57.5 -120t-152.5 -101.5t-193 -40.5q-130 0 -224 67.5t-94 155.5q0 45 22.5 67.5t61.5 22.5zM1198 573q59 0 88 -15.5t29 -63.5q0 -44 -30 -77.5
t-81 -47.5l-57 -271q-154 -74 -254 -100.5t-223 -26.5q-47 0 -92 4.5t-97 16t-96.5 30.5t-86.5 51t-71 73t-47 100.5t-18 130.5q0 52 14 127l31 145q23 111 84.5 213.5t150.5 183t211 129t256 48.5q168 0 285 -66q25 37 46 51.5t50 14.5q34 0 55 -21t21 -55q0 -21 -8 -60
l-35 -159q-17 -72 -48 -102q-33 -33 -83 -33q-18 0 -31 3t-21.5 13t-13 15t-7 23.5t-3 24t-2.5 29.5q-3 54 -69.5 85.5t-178.5 31.5q-169 0 -294.5 -102t-159.5 -267q-4 -18 -13 -56.5t-14 -62t-9.5 -58t-4.5 -64.5q0 -111 85.5 -171.5t243.5 -60.5q143 0 271 51l28 142
h-202q-63 0 -90 19t-27 63q0 20 6.5 39t22.5 39t49.5 32t81.5 12h358z" />
    <glyph glyph-name="gbreve" unicode="&#x11f;" 
d="M504 1360q31 0 42.5 -13t14.5 -53q3 -39 61.5 -73.5t139.5 -34.5q80 0 149 34t88 74q21 40 36.5 53t45.5 13q60 0 60 -51q0 -59 -58 -120t-153 -101.5t-193 -40.5q-130 0 -223.5 67.5t-93.5 155.5q0 45 22.5 67.5t61.5 22.5zM219 -328q0 48 36.5 85.5t123.5 37.5h223
q88 0 150 47t79 127l23 103q-160 -101 -311 -101q-175 0 -284 103.5t-109 269.5q0 150 83 284.5t221.5 215t293.5 80.5q166 0 266 -103l14 74h240q56 0 85 -15.5t29 -66.5q0 -48 -36.5 -85.5t-122.5 -37.5h-33l-154 -721q-34 -163 -169 -271t-304 -108h-227q-63 0 -90 19
t-27 63zM707 719q-132 0 -239.5 -100t-107.5 -224q0 -96 65 -157.5t167 -61.5q135 0 241.5 99.5t106.5 224.5q0 97 -65 158t-168 61z" />
    <glyph glyph-name="Gdotaccent" unicode="&#x120;" 
d="M975 1591q44 0 72 -27.5t28 -70.5q0 -57 -46.5 -102t-106.5 -45q-41 0 -70 28.5t-29 69.5q0 57 46.5 102t105.5 45zM1198 573q59 0 88 -15.5t29 -63.5q0 -44 -30 -77.5t-81 -47.5l-57 -271q-154 -74 -254 -100.5t-223 -26.5q-47 0 -92 4.5t-97 16t-96.5 30.5t-86.5 51
t-71 73t-47 100.5t-18 130.5q0 52 14 127l31 145q23 111 84.5 213.5t150.5 183t211 129t256 48.5q168 0 285 -66q25 37 46 51.5t50 14.5q34 0 55 -21t21 -55q0 -21 -8 -60l-35 -159q-17 -72 -48 -102q-33 -33 -83 -33q-18 0 -31 3t-21.5 13t-13 15t-7 23.5t-3 24t-2.5 29.5
q-3 54 -69.5 85.5t-178.5 31.5q-169 0 -294.5 -102t-159.5 -267q-4 -18 -13 -56.5t-14 -62t-9.5 -58t-4.5 -64.5q0 -111 85.5 -171.5t243.5 -60.5q143 0 271 51l28 142h-202q-63 0 -90 19t-27 63q0 20 6.5 39t22.5 39t49.5 32t81.5 12h358z" />
    <glyph glyph-name="gdotaccent" unicode="&#x121;" 
d="M825 1292q44 0 72.5 -27.5t28.5 -70.5q0 -57 -47 -102t-107 -45q-41 0 -69.5 28.5t-28.5 69.5q0 57 46 102t105 45zM219 -328q0 48 36.5 85.5t123.5 37.5h223q88 0 150 47t79 127l23 103q-160 -101 -311 -101q-175 0 -284 103.5t-109 269.5q0 150 83 284.5t221.5 215
t293.5 80.5q166 0 266 -103l14 74h240q56 0 85 -15.5t29 -66.5q0 -48 -36.5 -85.5t-122.5 -37.5h-33l-154 -721q-34 -163 -169 -271t-304 -108h-227q-63 0 -90 19t-27 63zM707 719q-132 0 -239.5 -100t-107.5 -224q0 -96 65 -157.5t167 -61.5q135 0 241.5 99.5t106.5 224.5
q0 97 -65 158t-168 61z" />
    <glyph glyph-name="Gcommaaccent" unicode="&#x122;" 
d="M489 -61h244l-233 -308q-30 -41 -66 -41q-53 0 -53 52q0 21 6 39zM1198 573q59 0 88 -15.5t29 -63.5q0 -44 -30 -77.5t-81 -47.5l-57 -271q-154 -74 -254 -100.5t-223 -26.5q-47 0 -92 4.5t-97 16t-96.5 30.5t-86.5 51t-71 73t-47 100.5t-18 130.5q0 52 14 127l31 145
q23 111 84.5 213.5t150.5 183t211 129t256 48.5q168 0 285 -66q25 37 46 51.5t50 14.5q34 0 55 -21t21 -55q0 -21 -8 -60l-35 -159q-17 -72 -48 -102q-33 -33 -83 -33q-18 0 -31 3t-21.5 13t-13 15t-7 23.5t-3 24t-2.5 29.5q-3 54 -69.5 85.5t-178.5 31.5
q-169 0 -294.5 -102t-159.5 -267q-4 -18 -13 -56.5t-14 -62t-9.5 -58t-4.5 -64.5q0 -111 85.5 -171.5t243.5 -60.5q143 0 271 51l28 142h-202q-63 0 -90 19t-27 63q0 20 6.5 39t22.5 39t49.5 32t81.5 12h358z" />
    <glyph glyph-name="gcommaaccent" unicode="&#x123;" 
d="M219 -328q0 48 36.5 85.5t123.5 37.5h223q88 0 150 47t79 127l23 103q-160 -101 -311 -101q-175 0 -284 103.5t-109 269.5q0 150 83 284.5t221.5 215t293.5 80.5q166 0 266 -103l14 74h240q56 0 85 -15.5t29 -66.5q0 -48 -36.5 -85.5t-122.5 -37.5h-33l-154 -721
q-34 -163 -169 -271t-304 -108h-227q-63 0 -90 19t-27 63zM707 719q-132 0 -239.5 -100t-107.5 -224q0 -96 65 -157.5t167 -61.5q135 0 241.5 99.5t106.5 224.5q0 97 -65 158t-168 61zM707 1167l202 156q40 33 62 33q31 0 51 -22t20 -58q0 -22 -59 -70l-203 -153
q-29 -21 -40.5 -27t-28.5 -6q-31 0 -47.5 20.5t-16.5 55.5q0 12 9 24t18 20t33 27z" />
    <glyph glyph-name="Hcircumflex" unicode="&#x124;" 
d="M895 1454l-254 -127q-10 -5 -23.5 -13t-21.5 -11t-16 -3q-26 0 -44 18.5t-18 43.5q0 17 5.5 30.5t18.5 24.5t18.5 14.5t21.5 12.5l346 192l291 -206q20 -20 20 -46q0 -32 -26 -58t-56 -26q-6 0 -13 2.5t-12 5.5t-14.5 9.5t-15.5 9.5zM690 82q0 47 37.5 85t122.5 38h31
l61 289h-438l-62 -289h29q59 0 88 -15.5t29 -66.5q0 -47 -37.5 -85t-122.5 -38h-248q-62 0 -88 19t-26 63q0 48 36.5 85.5t122.5 37.5h13l165 784q-86 6 -86 82q0 20 6.5 39.5t22.5 39.5t49.5 32t81.5 12h205q58 0 87.5 -15.5t29.5 -64.5t-37 -87t-123 -38h-31l-61 -291h438
l62 291h-31q-58 0 -86.5 16t-28.5 66q0 20 6.5 39.5t22.5 39.5t49.5 32t81.5 12h205q58 0 87 -15.5t29 -64.5q0 -51 -36.5 -86t-94.5 -39l-166 -784h13q58 0 86 -16t28 -66q0 -47 -36 -85t-121 -38h-248q-63 0 -90 19t-27 63z" />
    <glyph glyph-name="hcircumflex" unicode="&#x125;" 
d="M1073 1454l-254 -127q-10 -5 -23.5 -13t-21.5 -11t-16 -3q-26 0 -44 18.5t-18 43.5q0 17 5.5 30.5t18.5 24.5t18.5 14.5t21.5 12.5l346 192l291 -206q20 -20 20 -46q0 -32 -26 -58t-56 -26q-6 0 -13 2.5t-12 5.5t-14.5 9.5t-15.5 9.5zM274 1155q0 20 6.5 39t22.5 39
t49.5 32.5t81.5 12.5h238l-103 -481q149 125 308 125q135 0 217 -69.5t82 -186.5q0 -40 -9 -84l-82 -377h13q28 0 45.5 -2.5t35.5 -10t26.5 -25t8.5 -44.5q0 -47 -37 -85t-122 -38h-230q-63 0 -89.5 19t-26.5 63q0 48 37 85.5t124 37.5h13l73 350q9 38 9 63q0 45 -42 72
t-112 27q-74 0 -129 -26t-158 -111l-80 -375h13q58 0 87 -16.5t29 -65.5t-37 -86t-124 -37h-230q-62 0 -88 19t-26 63q0 47 37 85t122 38h13l184 868h-33q-64 0 -90.5 18.5t-26.5 63.5z" />
    <glyph glyph-name="Hbar" unicode="&#x126;" 
d="M1225 819q0 -47 -37.5 -85t-124.5 -38l-105 -491h13q28 0 45.5 -2.5t35.5 -10t26.5 -25.5t8.5 -46q0 -46 -36.5 -83.5t-122.5 -37.5h-248q-62 0 -88.5 20.5t-26.5 61.5q0 49 36 86t122 37h31l61 289h-438l-62 -289h31q57 0 87 -16t30 -68q0 -46 -37 -83.5t-123 -37.5
h-248q-62 0 -88 19t-26 61q0 21 6.5 40.5t22 40t48.5 32.5t80 12h13l104 491q-55 0 -84 17t-29 65q0 49 36 86t122 37l19 88q-89 9 -89 78q0 21 6.5 40.5t22.5 40.5t49.5 33.5t81.5 12.5h207q27 0 44.5 -2.5t35.5 -10t26.5 -24t8.5 -43.5q0 -51 -36 -88t-122 -37h-31
l-61 -291h438l62 291h-31q-59 0 -88 16.5t-29 67.5q0 20 7.5 39.5t24.5 39t50 31t78 11.5h207q63 0 88.5 -16t25.5 -64q0 -54 -36.5 -87t-92.5 -38l-18 -88q63 0 90 -16t27 -66z" />
    <glyph glyph-name="hbar" unicode="&#x127;" 
d="M139 1155q0 48 36 85.5t122 37.5h467q59 0 88 -16t29 -66q0 -48 -36.5 -85.5t-123.5 -37.5h-229l-60 -276q149 125 307 125q140 0 219.5 -69.5t79.5 -188.5q0 -43 -8 -82l-80 -377h13q63 0 88.5 -16t25.5 -66t-35.5 -86.5t-121.5 -36.5h-230q-64 0 -91.5 20.5t-27.5 61.5
q0 49 37.5 86t124.5 37h12l74 350q10 45 10 63q0 40 -35 69.5t-120 29.5q-72 0 -126.5 -26t-160.5 -111l-80 -375h12q63 0 90 -16t27 -66q0 -49 -37 -86t-123 -37h-229q-63 0 -90 21t-27 63q0 46 37 83.5t123 37.5h12l185 868h-33q-63 0 -89 16t-26 66z" />
    <glyph glyph-name="Itilde" unicode="&#x128;" 
d="M1040 1503q34 0 90.5 49.5t90.5 49.5q24 0 40.5 -15.5t16.5 -34.5q0 -26 -37 -70.5t-99 -82t-120 -37.5q-45 0 -102 24.5t-107.5 49t-79.5 24.5q-35 0 -66 -23t-59 -46t-57 -23q-23 0 -38 14.5t-15 36.5q0 46 81.5 114.5t174.5 68.5q45 0 101.5 -25t106.5 -49.5t78 -24.5
zM1294 1114q0 -49 -36.5 -87t-122.5 -38h-207l-166 -784h205q58 0 87 -15.5t29 -64.5q0 -48 -37 -86.5t-122 -38.5h-617q-63 0 -90 19t-27 63q0 49 37 86t123 37h207l166 784h-207q-63 0 -89 19t-26 63q0 49 37 86t123 37h617q60 0 88 -15.5t28 -64.5z" />
    <glyph glyph-name="itilde" unicode="&#x129;" 
d="M895 1202q34 0 90 49t90 49q24 0 41 -15t17 -34q0 -26 -37 -70.5t-99 -82t-120 -37.5q-45 0 -102 24.5t-107.5 49t-79.5 24.5q-35 0 -66 -23t-59 -46t-57 -23q-23 0 -38.5 14.5t-15.5 36.5q0 20 21 50t55 60t83 51t97 21q45 0 102 -24.5t107 -49t78 -24.5zM381 772
q0 21 6.5 40t22.5 39t50.5 32t82.5 12h364l-145 -690h248q57 0 86.5 -16t29.5 -66q0 -19 -7 -38.5t-23 -39.5t-49.5 -32.5t-79.5 -12.5h-703q-63 0 -90 19t-27 63q0 49 37 86t123 37h250l102 485h-159q-64 0 -91.5 19t-27.5 63z" />
    <glyph glyph-name="Imacron" unicode="&#x12a;" 
d="M686 1509h500q51 0 71.5 -15t20.5 -52q0 -41 -36 -68.5t-91 -27.5h-500q-51 0 -71.5 14.5t-20.5 52.5q0 43 35 69.5t92 26.5zM1294 1114q0 -49 -36.5 -87t-122.5 -38h-207l-166 -784h205q58 0 87 -15.5t29 -64.5q0 -48 -37 -86.5t-122 -38.5h-617q-63 0 -90 19t-27 63
q0 49 37 86t123 37h207l166 784h-207q-63 0 -89 19t-26 63q0 49 37 86t123 37h617q60 0 88 -15.5t28 -64.5z" />
    <glyph glyph-name="imacron" unicode="&#x12b;" 
d="M543 1208h499q51 0 72 -15t21 -52q0 -42 -36 -69.5t-91 -27.5h-500q-51 0 -71.5 15t-20.5 53q0 43 35 69.5t92 26.5zM381 772q0 21 6.5 40t22.5 39t50.5 32t82.5 12h364l-145 -690h248q57 0 86.5 -16t29.5 -66q0 -19 -7 -38.5t-23 -39.5t-49.5 -32.5t-79.5 -12.5h-703
q-63 0 -90 19t-27 63q0 49 37 86t123 37h250l102 485h-159q-64 0 -91.5 19t-27.5 63z" />
    <glyph glyph-name="Ibreve" unicode="&#x12c;" 
d="M631 1638q31 0 42.5 -13t14.5 -52t62 -74t139 -35t149 34.5t88 74.5q20 40 35.5 52.5t46.5 12.5q60 0 60 -51q0 -59 -58 -120t-153 -101.5t-193 -40.5q-130 0 -223.5 67.5t-93.5 155.5q0 45 22.5 67.5t61.5 22.5zM1294 1114q0 -49 -36.5 -87t-122.5 -38h-207l-166 -784
h205q58 0 87 -15.5t29 -64.5q0 -48 -37 -86.5t-122 -38.5h-617q-63 0 -90 19t-27 63q0 49 37 86t123 37h207l166 784h-207q-63 0 -89 19t-26 63q0 49 37 86t123 37h617q60 0 88 -15.5t28 -64.5z" />
    <glyph glyph-name="ibreve" unicode="&#x12d;" 
d="M485 1358q31 0 43 -13.5t15 -52.5t61 -73.5t139 -34.5q80 0 149.5 34t88.5 74q21 40 36.5 53t45.5 13q59 0 59 -51q0 -59 -57.5 -120t-152.5 -102t-193 -41q-130 0 -224 68t-94 156q0 45 22.5 67.5t61.5 22.5zM381 772q0 21 6.5 40t22.5 39t50.5 32t82.5 12h364
l-145 -690h248q57 0 86.5 -16t29.5 -66q0 -19 -7 -38.5t-23 -39.5t-49.5 -32.5t-79.5 -12.5h-703q-63 0 -90 19t-27 63q0 49 37 86t123 37h250l102 485h-159q-64 0 -91.5 19t-27.5 63z" />
    <glyph glyph-name="Iogonek" unicode="&#x12e;" 
d="M778 -248q31 0 82.5 22.5t73.5 22.5q29 0 46 -18t17 -47q0 -46 -51.5 -80t-109 -47t-103.5 -13q-73 0 -115.5 40.5t-42.5 109.5q0 82 49.5 135.5t182.5 122.5h-500q-63 0 -90 19t-27 63q0 49 37 86t123 37h207l166 784h-207q-63 0 -89 19t-26 63q0 49 37 86t123 37h617
q60 0 88 -15.5t28 -64.5t-36.5 -87t-122.5 -38h-207l-166 -784h205q58 0 87 -15.5t29 -64.5q0 -43 -25 -72t-85 -55q-100 -41 -165 -99.5t-65 -113.5q0 -33 35 -33z" />
    <glyph glyph-name="iogonek" unicode="&#x12f;" 
d="M823 -254q32 0 86.5 24.5t77.5 24.5q28 0 46 -17t18 -44q0 -37 -31 -66t-77 -45t-90 -24.5t-77 -8.5q-73 0 -115.5 36.5t-42.5 99.5q0 36 8.5 68t27 58t34.5 45.5t43 38t40.5 27.5t39.5 22.5t27 14.5h-574q-63 0 -90 19t-27 63q0 49 37 86t123 37h250l102 485h-159
q-64 0 -91.5 19t-27.5 63q0 21 6.5 40t22.5 39t50.5 32t82.5 12h364l-145 -690h248q58 0 87 -16t29 -64q0 -38 -35 -74t-85.5 -66t-101 -60.5t-85.5 -69t-35 -78.5q0 -31 39 -31zM961 1276l-48 -215h-241l47 215h242z" />
    <glyph glyph-name="Idotaccent" unicode="&#x130;" 
d="M954 1591q44 0 72.5 -27.5t28.5 -70.5q0 -57 -47 -102t-107 -45q-41 0 -69.5 28.5t-28.5 69.5q0 57 46 102t105 45zM1294 1114q0 -49 -36.5 -87t-122.5 -38h-207l-166 -784h205q58 0 87 -15.5t29 -64.5q0 -48 -37 -86.5t-122 -38.5h-617q-63 0 -90 19t-27 63q0 49 37 86
t123 37h207l166 784h-207q-63 0 -89 19t-26 63q0 49 37 86t123 37h617q60 0 88 -15.5t28 -64.5z" />
    <glyph glyph-name="dotlessi" unicode="&#x131;" 
d="M381 772q0 21 6.5 40t22.5 39t50.5 32t82.5 12h364l-145 -690h248q57 0 86.5 -16t29.5 -66q0 -19 -7 -38.5t-23 -39.5t-49.5 -32.5t-79.5 -12.5h-703q-63 0 -90 19t-27 63q0 49 37 86t123 37h250l102 485h-159q-64 0 -91.5 19t-27.5 63z" />
    <glyph glyph-name="IJ" unicode="&#x132;" 
d="M735 1114q0 -49 -37 -87t-123 -38h-18l-166 -784h17q58 0 87 -15.5t29 -64.5q0 -48 -37 -86.5t-122 -38.5h-244q-63 0 -90 19t-27 63q0 49 37 86t123 37h22l166 784h-22q-63 0 -89 19t-26 63q0 49 37 86t123 37h243q60 0 88.5 -15.5t28.5 -64.5zM1487 1112
q0 -48 -37 -85.5t-123 -37.5h-22l-129 -606q-19 -101 -34 -164t-37 -112.5t-42 -73.5t-58.5 -39.5t-76.5 -19t-105 -3.5q-58 0 -114.5 22.5t-98 74t-41.5 120.5q0 15 4 43l43 205q3 18 9.5 36t21 43.5t41 41.5t62.5 16q35 0 58 -21.5t23 -53.5q0 -23 -8 -62l-43 -196
q4 -46 17.5 -55t66.5 -9q19 0 34.5 11t24.5 26t18 41.5t13 46t10.5 54t10.5 51.5l125 583h-33q-63 0 -90 19t-27 63q0 20 6.5 39.5t22.5 39.5t49.5 32t81.5 12h260q38 0 60 -4t39.5 -23t17.5 -55z" />
    <glyph glyph-name="ij" unicode="&#x133;" 
d="M211 772q0 21 6.5 40t22.5 39t50.5 32t82.5 12h364l-145 -690h166q57 0 86.5 -16t29.5 -66q0 -19 -7 -38.5t-23 -39.5t-49.5 -32.5t-79.5 -12.5h-559q-63 0 -90 19t-27 63q0 49 37 86t123 37h188l102 485h-159q-64 0 -91.5 19t-27.5 63zM791 1276l-48 -215h-241l47 215
h242zM350 -328q0 48 37 85.5t123 37.5h225q89 0 152 47t80 127l153 721h-209q-63 0 -89.5 19t-26.5 63q0 48 36.5 85.5t122.5 37.5h414l-197 -926q-34 -161 -170 -270t-303 -109h-231q-63 0 -90 19t-27 63zM1331 1276l-47 -215h-244l45 215h246z" />
    <glyph glyph-name="Jcircumflex" unicode="&#x134;" 
d="M1114 1456l-254 -127q-8 -4 -18.5 -10t-16.5 -8.5t-13 -5t-13 -2.5q-26 0 -44 18t-18 43q0 17 5.5 30.5t18.5 24.5t18.5 14.5t21.5 12.5l346 192l291 -206q20 -20 20 -46q0 -32 -26 -57.5t-56 -25.5q-6 0 -13.5 2.5t-11.5 5t-15 9t-15 9.5zM1489 1112q0 -48 -37 -85.5
t-123 -37.5h-117l-129 -606q-18 -84 -61 -154t-98.5 -117t-122.5 -79.5t-131 -47t-125 -14.5q-171 0 -414 133l70 332q3 18 9.5 36t20.5 43.5t40.5 41.5t62.5 16q35 0 58.5 -21.5t23.5 -53.5q0 -23 -8 -62l-43 -196q131 -64 225 -64q24 0 48 3.5t55 11.5t59 25t54 41
t46.5 62.5t30.5 86.5l125 583h-244q-63 0 -90 19t-27 63q0 20 6.5 39.5t22.5 39.5t49.5 32t81.5 12h565q38 0 60 -4t39.5 -23t17.5 -55z" />
    <glyph glyph-name="jcircumflex" unicode="&#x135;" 
d="M172 -328q0 48 37 85.5t123 37.5h225q89 0 151.5 47t79.5 127l154 721h-414q-63 0 -89.5 19t-26.5 63q0 48 36.5 85.5t122.5 37.5h619l-197 -926q-34 -161 -170 -270t-303 -109h-231q-63 0 -90 19t-27 63zM899 1171l-254 -127q-8 -4 -18.5 -10t-16.5 -8.5t-13 -5
t-13 -2.5q-26 0 -44 18t-18 43q0 17 5.5 30.5t18.5 24.5t18.5 14.5t21.5 12.5l346 193l291 -207q20 -20 20 -45q0 -32 -26 -58t-56 -26q-6 0 -13.5 2.5t-11.5 5t-15 9t-15 9.5z" />
    <glyph glyph-name="Kcommaaccent" unicode="&#x136;" 
d="M477 -59h244l-234 -308q-30 -41 -65 -41q-53 0 -53 52q0 21 6 39zM1257 125q0 -21 -7.5 -41.5t-24 -40t-50 -31.5t-79.5 -12h-224q-26 220 -89.5 360.5t-151.5 169.5l-144 -104l-47 -221h72q58 0 86.5 -16t28.5 -66q0 -46 -37.5 -84.5t-122.5 -38.5h-305
q-62 0 -89.5 19.5t-27.5 62.5q0 49 37 86t123 37h31l165 784h-30q-63 0 -89 19t-26 63q0 20 6.5 39.5t22.5 39.5t49.5 32t81.5 12h305q38 0 60 -4t39.5 -23t17.5 -55q0 -48 -37 -85.5t-123 -37.5h-72l-63 -305l430 313q-47 17 -47 68q0 52 36.5 90.5t122.5 38.5h207
q58 0 86.5 -16t28.5 -64q0 -46 -35.5 -85.5t-116.5 -39.5l-428 -313q85 -50 149.5 -172.5t98.5 -298.5h66q59 0 87.5 -16.5t28.5 -63.5z" />
    <glyph glyph-name="kcommaaccent" unicode="&#x137;" 
d="M434 -59h244l-234 -308q-30 -41 -65 -41q-53 0 -53 52q0 21 6 39zM1192 123q0 -47 -37.5 -85t-122.5 -38h-241q-63 0 -90 19t-27 63q0 51 51 96l-172 187l-43 -29l-70 -336h-239q-62 0 -88.5 19t-26.5 63q0 48 37 85.5t123 37.5h33l184 868h-33q-63 0 -90 18t-27 62
q0 21 6.5 40.5t22.5 40t49.5 32.5t81.5 12h238l-148 -690l189 129q-17 33 -17 53q0 50 37 87.5t123 37.5h229q63 0 90 -18.5t27 -61.5q0 -48 -37 -86.5t-123 -38.5h-55l-285 -196l267 -289h67q59 0 88 -15.5t29 -66.5z" />
    <glyph glyph-name="kgreenlandic" unicode="&#x138;" 
d="M537 78q0 56 51 100l-125 158l-72 -336h-237q-117 0 -117 78q0 21 6 40.5t22 40.5t50 33.5t82 12.5h32l103 485h-33q-57 0 -86 14.5t-29 63.5q0 21 6.5 40.5t22.5 40.5t49.5 33.5t81.5 12.5h238l-66 -307l189 129q-19 32 -19 59q0 47 37 83t125 36h229q59 0 87 -14.5
t28 -61.5q0 -50 -36.5 -89.5t-123.5 -39.5h-57l-326 -225l221 -260h68q38 0 60 -4t39.5 -22.5t17.5 -53.5q0 -48 -37 -86.5t-123 -38.5h-242q-116 0 -116 78z" />
    <glyph glyph-name="Lacute" unicode="&#x139;" 
d="M932 1491l-203 -156q-39 -32 -61 -32q-31 0 -51.5 21.5t-20.5 57.5q0 22 59 70l203 154q28 21 40.5 26.5t29.5 5.5q63 0 63 -75q0 -17 -13 -31.5t-46 -40.5zM1010 1112q0 -48 -37 -85.5t-123 -37.5h-117l-166 -784h441l41 188q25 137 131 137q35 0 58.5 -21.5t23.5 -55.5
q0 -13 -9 -60l-84 -393h-966q-62 0 -89.5 19.5t-27.5 62.5q0 49 37 86t123 37h116l166 784h-114q-63 0 -90 19t-27 63q0 20 6 38.5t22 39t50 33t82 12.5h436q38 0 60 -4t39.5 -23t17.5 -55z" />
    <glyph glyph-name="lacute" unicode="&#x13a;" 
d="M1022 1491l-203 -156q-39 -32 -61 -32q-31 0 -51.5 21.5t-20.5 57.5q0 22 59 70l203 154q28 21 40.5 26.5t29.5 5.5q63 0 63 -75q0 -17 -13 -31.5t-46 -40.5zM463 1155q0 49 36.5 86t125.5 37h364l-227 -1073h248q57 0 86.5 -16t29.5 -66q0 -19 -7 -38.5t-23 -39.5
t-49.5 -32.5t-79.5 -12.5h-703q-63 0 -90 19t-27 63q0 49 37 86t123 37h250l184 868h-161q-56 0 -86.5 16.5t-30.5 65.5z" />
    <glyph glyph-name="Lcommaaccent" unicode="&#x13b;" 
d="M496 -59h243l-233 -308q-30 -41 -66 -41q-53 0 -53 52q0 21 6 39zM1010 1112q0 -48 -37 -85.5t-123 -37.5h-117l-166 -784h441l41 188q25 137 131 137q35 0 58.5 -21.5t23.5 -55.5q0 -13 -9 -60l-84 -393h-966q-62 0 -89.5 19.5t-27.5 62.5q0 49 37 86t123 37h116
l166 784h-114q-63 0 -90 19t-27 63q0 20 6 38.5t22 39t50 33t82 12.5h436q38 0 60 -4t39.5 -23t17.5 -55z" />
    <glyph glyph-name="lcommaaccent" unicode="&#x13c;" 
d="M498 -59h243l-233 -308q-30 -41 -66 -41q-53 0 -53 52q0 21 6 39zM463 1155q0 49 36.5 86t125.5 37h364l-227 -1073h248q57 0 86.5 -16t29.5 -66q0 -19 -7 -38.5t-23 -39.5t-49.5 -32.5t-79.5 -12.5h-703q-63 0 -90 19t-27 63q0 49 37 86t123 37h250l184 868h-161
q-56 0 -86.5 16.5t-30.5 65.5z" />
    <glyph glyph-name="Lcaron" unicode="&#x13d;" 
d="M1413 1120l-203 -155q-40 -33 -61 -33q-31 0 -51.5 22t-20.5 58q0 20 60 69l202 154q29 21 41 27t29 6q31 0 47.5 -20.5t16.5 -55.5q0 -17 -13 -31.5t-47 -40.5zM1010 1112q0 -48 -37 -85.5t-123 -37.5h-117l-166 -784h441l41 188q25 137 131 137q35 0 58.5 -21.5
t23.5 -55.5q0 -13 -9 -60l-84 -393h-966q-62 0 -89.5 19.5t-27.5 62.5q0 49 37 86t123 37h116l166 784h-114q-63 0 -90 19t-27 63q0 20 6 38.5t22 39t50 33t82 12.5h436q38 0 60 -4t39.5 -23t17.5 -55z" />
    <glyph glyph-name="lcaron" unicode="&#x13e;" 
d="M1370 1159l-203 -155q-40 -33 -61 -33q-31 0 -51.5 22t-20.5 58q0 20 60 69l202 154q29 21 41 27t29 6q31 0 47.5 -20.5t16.5 -55.5q0 -17 -13 -31.5t-47 -40.5zM463 1155q0 49 36.5 86t125.5 37h364l-227 -1073h248q57 0 86.5 -16t29.5 -66q0 -19 -7 -38.5t-23 -39.5
t-49.5 -32.5t-79.5 -12.5h-703q-63 0 -90 19t-27 63q0 49 37 86t123 37h250l184 868h-161q-56 0 -86.5 16.5t-30.5 65.5z" />
    <glyph glyph-name="Ldot" unicode="&#x13f;" 
d="M1022 815q44 0 72 -27.5t28 -70.5q0 -57 -46.5 -102.5t-106.5 -45.5q-41 0 -70 29t-29 70q0 57 46.5 102t105.5 45zM1010 1112q0 -48 -37 -85.5t-123 -37.5h-117l-166 -784h441l41 188q25 137 131 137q35 0 58.5 -21.5t23.5 -55.5q0 -13 -9 -60l-84 -393h-966
q-62 0 -89.5 19.5t-27.5 62.5q0 49 37 86t123 37h116l166 784h-114q-63 0 -90 19t-27 63q0 20 6 38.5t22 39t50 33t82 12.5h436q38 0 60 -4t39.5 -23t17.5 -55z" />
    <glyph glyph-name="ldot" unicode="&#x140;" 
d="M1212 815q44 0 72.5 -27.5t28.5 -70.5q0 -57 -47 -102.5t-107 -45.5q-41 0 -69.5 29t-28.5 70q0 57 46 102t105 45zM463 1155q0 49 36.5 86t125.5 37h364l-227 -1073h248q57 0 86.5 -16t29.5 -66q0 -19 -7 -38.5t-23 -39.5t-49.5 -32.5t-79.5 -12.5h-703q-63 0 -90 19
t-27 63q0 49 37 86t123 37h250l184 868h-161q-56 0 -86.5 16.5t-30.5 65.5z" />
    <glyph glyph-name="Lslash" unicode="&#x141;" 
d="M1012 1112q0 -48 -37.5 -85.5t-124.5 -37.5h-115l-53 -254l201 107q56 30 92 30q31 0 53.5 -23t22.5 -54q0 -43 -22.5 -70.5t-82.5 -58.5l-315 -166l-62 -295h439l41 186q27 137 131 137q35 0 58.5 -21.5t23.5 -55.5q0 -11 -9 -60l-84 -391h-964q-63 0 -90 19t-27 63
q0 49 37 86t123 37h117l43 211l-123 -66q-60 -31 -92 -31q-31 0 -54.5 24t-23.5 56q0 43 22 70.5t82 58.5l240 123l71 338h-116q-63 0 -90 19t-27 63q0 21 6.5 40t22.5 39t50.5 32t82.5 12h436q38 0 60 -4t39.5 -23t17.5 -55z" />
    <glyph glyph-name="lslash" unicode="&#x142;" 
d="M469 1155q0 49 37.5 86t124.5 37h358l-98 -461l80 41q36 21 53 27t39 6q31 0 54.5 -24.5t23.5 -57.5q0 -43 -23 -71.5t-82 -57.5l-196 -100l-80 -375h250q58 0 87 -16t29 -64q0 -47 -37 -86t-122 -39h-703q-61 0 -89 19.5t-28 62.5q0 49 37 86t123 37h250l61 293
q-4 -2 -28 -15.5t-37 -20t-34 -16t-38 -14t-30 -4.5q-32 0 -55 24t-23 58q0 42 23 71t81 58l193 96l71 338h-155q-63 0 -90 19t-27 63z" />
    <glyph glyph-name="Nacute" unicode="&#x143;" 
d="M1120 1491l-202 -156q-39 -32 -62 -32q-31 0 -51.5 21.5t-20.5 57.5q0 21 60 70l203 154q28 21 40 26.5t29 5.5q31 0 47.5 -20t16.5 -55q0 -17 -13 -31.5t-47 -40.5zM1446 1112q0 -42 -35.5 -82.5t-114.5 -40.5l-211 -989h-200l-361 807l-127 -602h72q58 0 86.5 -16
t28.5 -64q0 -47 -37.5 -86t-122.5 -39h-264q-63 0 -90 19t-27 63q0 18 7 37t22.5 39.5t46.5 33.5t74 13l165 784h-30q-63 0 -89 19t-26 63q0 48 37 85.5t123 37.5h233l359 -803l127 598h-72q-63 0 -89 19t-26 63q0 49 36 86t122 37h266q38 0 60 -4t39.5 -23t17.5 -55z" />
    <glyph glyph-name="nacute" unicode="&#x144;" 
d="M1069 1233l-203 -156q-40 -33 -61 -33q-31 0 -51.5 22t-20.5 58q0 21 60 70l202 154q28 21 40.5 26.5t29.5 5.5q63 0 63 -75q0 -17 -13 -31.5t-46 -40.5zM236 772q0 48 37 85.5t124 37.5h193l-21 -98q89 71 156 98t152 27q135 0 218 -69t83 -181q0 -34 -11 -94l-80 -373
q107 0 107 -82q0 -47 -37.5 -85t-122.5 -38h-182q-63 0 -90 19t-27 63q0 42 35.5 82.5t114.5 40.5l76 364q6 27 6 47q0 49 -41.5 75t-118.5 26q-71 0 -133.5 -30.5t-151.5 -108.5l-78 -373h13q57 0 85.5 -16.5t28.5 -65.5q0 -47 -37 -85t-122 -38h-230q-62 0 -88 19t-26 63
q0 48 36.5 85.5t122.5 37.5h13l102 485q-106 0 -106 82z" />
    <glyph glyph-name="Ncommaaccent" unicode="&#x145;" 
d="M514 -59h244l-234 -308q-30 -41 -65 -41q-53 0 -53 52q0 21 6 39zM1446 1112q0 -42 -35.5 -82.5t-114.5 -40.5l-211 -989h-200l-361 807l-127 -602h72q58 0 86.5 -16t28.5 -64q0 -47 -37.5 -86t-122.5 -39h-264q-63 0 -90 19t-27 63q0 18 7 37t22.5 39.5t46.5 33.5t74 13
l165 784h-30q-63 0 -89 19t-26 63q0 48 37 85.5t123 37.5h233l359 -803l127 598h-72q-63 0 -89 19t-26 63q0 49 36 86t122 37h266q38 0 60 -4t39.5 -23t17.5 -55z" />
    <glyph glyph-name="ncommaaccent" unicode="&#x146;" 
d="M516 -59h244l-234 -308q-30 -41 -65 -41q-53 0 -53 52q0 21 6 39zM236 772q0 48 37 85.5t124 37.5h193l-21 -98q89 71 156 98t152 27q135 0 218 -69t83 -181q0 -34 -11 -94l-80 -373q107 0 107 -82q0 -47 -37.5 -85t-122.5 -38h-182q-63 0 -90 19t-27 63q0 42 35.5 82.5
t114.5 40.5l76 364q6 27 6 47q0 49 -41.5 75t-118.5 26q-71 0 -133.5 -30.5t-151.5 -108.5l-78 -373h13q57 0 85.5 -16.5t28.5 -65.5q0 -47 -37 -85t-122 -38h-230q-62 0 -88 19t-26 63q0 48 36.5 85.5t122.5 37.5h13l102 485q-106 0 -106 82z" />
    <glyph glyph-name="Ncaron" unicode="&#x147;" 
d="M887 1485l254 127q8 4 18.5 10t16.5 8.5t13 5t13 2.5q26 0 44 -18t18 -43q0 -17 -5.5 -30.5t-18.5 -24.5t-18.5 -14.5t-21.5 -12.5l-346 -192l-291 206q-20 20 -20 45q0 32 26 58t56 26q6 0 13.5 -2.5t11.5 -5t15 -9t15 -9.5zM1446 1112q0 -42 -35.5 -82.5t-114.5 -40.5
l-211 -989h-200l-361 807l-127 -602h72q58 0 86.5 -16t28.5 -64q0 -47 -37.5 -86t-122.5 -39h-264q-63 0 -90 19t-27 63q0 18 7 37t22.5 39.5t46.5 33.5t74 13l165 784h-30q-63 0 -89 19t-26 63q0 48 37 85.5t123 37.5h233l359 -803l127 598h-72q-63 0 -89 19t-26 63
q0 49 36 86t122 37h266q38 0 60 -4t39.5 -23t17.5 -55z" />
    <glyph glyph-name="ncaron" unicode="&#x148;" 
d="M838 1202l254 127q10 5 23.5 13t21.5 11t16 3q26 0 43.5 -18.5t17.5 -43.5q0 -23 -12.5 -41t-21.5 -24t-29 -17l-346 -192l-291 207q-20 20 -20 45q0 32 25.5 58t55.5 26q6 0 13.5 -2.5t12 -5t15 -9.5t15.5 -10zM236 772q0 48 37 85.5t124 37.5h193l-21 -98q89 71 156 98
t152 27q135 0 218 -69t83 -181q0 -34 -11 -94l-80 -373q107 0 107 -82q0 -47 -37.5 -85t-122.5 -38h-182q-63 0 -90 19t-27 63q0 42 35.5 82.5t114.5 40.5l76 364q6 27 6 47q0 49 -41.5 75t-118.5 26q-71 0 -133.5 -30.5t-151.5 -108.5l-78 -373h13q57 0 85.5 -16.5
t28.5 -65.5q0 -47 -37 -85t-122 -38h-230q-62 0 -88 19t-26 63q0 48 36.5 85.5t122.5 37.5h13l102 485q-106 0 -106 82z" />
    <glyph glyph-name="napostrophe" unicode="&#x149;" 
d="M510 1206l-203 -155q-40 -33 -61 -33q-31 0 -51.5 22t-20.5 58q0 21 59 69l203 154q29 21 41 27t29 6q31 0 47 -20.5t16 -55.5q0 -17 -13 -31.5t-46 -40.5zM236 772q0 48 37 85.5t124 37.5h193l-21 -98q89 71 156 98t152 27q135 0 218 -69t83 -181q0 -34 -11 -94
l-80 -373q107 0 107 -82q0 -47 -37.5 -85t-122.5 -38h-182q-63 0 -90 19t-27 63q0 42 35.5 82.5t114.5 40.5l76 364q6 27 6 47q0 49 -41.5 75t-118.5 26q-71 0 -133.5 -30.5t-151.5 -108.5l-78 -373h13q57 0 85.5 -16.5t28.5 -65.5q0 -47 -37 -85t-122 -38h-230
q-62 0 -88 19t-26 63q0 48 36.5 85.5t122.5 37.5h13l102 485q-106 0 -106 82z" />
    <glyph glyph-name="Eng" unicode="&#x14a;" 
d="M522 -141q0 49 40 86t83 37q9 0 52 -14.5t87 -14.5q71 0 150 164t135 424q35 164 35 282q0 277 -195 277q-74 0 -146.5 -32t-158.5 -107l-162 -756h7q25 0 41 -1.5t37.5 -8t32.5 -23t11 -41.5q0 -71 -45.5 -101t-113.5 -30h-230q-116 0 -116 76q0 129 172 129l184 868
q-105 3 -105 78q0 65 46 96t116 31h193l-23 -98q87 68 163.5 96.5t164.5 28.5q34 0 66 -5t66.5 -17.5t63.5 -33t56 -53.5t45.5 -76.5t29.5 -105t11 -135.5q0 -154 -39 -330q-42 -198 -93.5 -344.5t-102 -232.5t-110 -138t-111 -69t-111.5 -17q-107 0 -166.5 29t-59.5 82z
" />
    <glyph glyph-name="eng" unicode="&#x14b;" 
d="M12 76q0 22 6.5 42t22.5 41t49.5 33.5t81.5 12.5h12l103 485q-105 3 -105 78q0 49 37 88t125 39h193l-23 -98q89 71 155.5 98t151.5 27q137 0 219 -67t82 -191q0 -45 -8 -86l-129 -607q-35 -164 -161 -272.5t-279 -108.5q-108 0 -167 29t-59 82q0 50 40.5 86.5t82.5 36.5
q9 0 52.5 -14.5t87.5 -14.5q72 0 126.5 47.5t71.5 128.5l127 598q4 32 4 43q0 54 -38 79.5t-119 25.5q-71 0 -133.5 -30.5t-151.5 -108.5l-80 -373h12q117 0 117 -74q0 -52 -35 -91.5t-125 -39.5h-229q-117 0 -117 76z" />
    <glyph glyph-name="Omacron" unicode="&#x14c;" 
d="M684 1509h500q51 0 71.5 -15t20.5 -52q0 -41 -36 -68.5t-91 -27.5h-500q-51 0 -71.5 14.5t-20.5 52.5q0 43 35 69.5t92 26.5zM154 451q0 132 45 255t120 215t168.5 161.5t193 105t191.5 35.5q196 0 326.5 -135t130.5 -338q0 -135 -45 -259.5t-120 -217t-168.5 -162
t-194 -105t-193.5 -35.5q-195 0 -324.5 137t-129.5 343zM829 1018q-86 0 -171.5 -45t-149.5 -116.5t-103.5 -167t-39.5 -191.5q0 -138 80.5 -230t203.5 -92q117 0 226.5 74.5t176 196.5t66.5 253q0 137 -82.5 227.5t-206.5 90.5z" />
    <glyph glyph-name="omacron" unicode="&#x14d;" 
d="M629 1208h499q51 0 72 -15t21 -52q0 -42 -36 -69.5t-91 -27.5h-500q-51 0 -71.5 15t-20.5 53q0 43 35 69.5t92 26.5zM172 356q0 70 27.5 147t83 151.5t130.5 134t180.5 96.5t223.5 37q190 0 310 -109t120 -281q0 -145 -89.5 -276.5t-237.5 -210t-312 -78.5
q-196 0 -316 107t-120 282zM770 717q-103 0 -193 -44.5t-143 -119.5t-53 -160q0 -97 76 -159t194 -62q155 0 271 97.5t116 226.5q0 97 -75.5 159t-192.5 62z" />
    <glyph glyph-name="Obreve" unicode="&#x14e;" 
d="M639 1599q31 0 42.5 -13t14.5 -52t62 -74t139 -35t149.5 34.5t88.5 74.5q20 40 35.5 52.5t46.5 12.5q59 0 59 -51q0 -59 -58 -120t-153 -101.5t-193 -40.5q-130 0 -223.5 67.5t-93.5 155.5q0 45 22.5 67.5t61.5 22.5zM154 451q0 132 45 255t120 215t168.5 161.5t193 105
t191.5 35.5q196 0 326.5 -135t130.5 -338q0 -135 -45 -259.5t-120 -217t-168.5 -162t-194 -105t-193.5 -35.5q-195 0 -324.5 137t-129.5 343zM829 1018q-86 0 -171.5 -45t-149.5 -116.5t-103.5 -167t-39.5 -191.5q0 -138 80.5 -230t203.5 -92q117 0 226.5 74.5t176 196.5
t66.5 253q0 137 -82.5 227.5t-206.5 90.5z" />
    <glyph glyph-name="obreve" unicode="&#x14f;" 
d="M573 1358q31 0 43 -13.5t15 -52.5t61 -73.5t139 -34.5q80 0 149.5 34t88.5 74q21 40 36.5 53t45.5 13q59 0 59 -51q0 -59 -57.5 -120t-152.5 -102t-193 -41q-130 0 -224 68t-94 156q0 45 22.5 67.5t61.5 22.5zM172 356q0 70 27.5 147t83 151.5t130.5 134t180.5 96.5
t223.5 37q190 0 310 -109t120 -281q0 -145 -89.5 -276.5t-237.5 -210t-312 -78.5q-196 0 -316 107t-120 282zM770 717q-103 0 -193 -44.5t-143 -119.5t-53 -160q0 -97 76 -159t194 -62q155 0 271 97.5t116 226.5q0 97 -75.5 159t-192.5 62z" />
    <glyph glyph-name="Ohungarumlaut" unicode="&#x150;" 
d="M1333 1491l-203 -156q-39 -32 -61 -32q-31 0 -51.5 21.5t-20.5 57.5q0 21 60 70l203 154q28 21 40 26.5t29 5.5q31 0 47.5 -20t16.5 -55q0 -17 -13 -31.5t-47 -40.5zM973 1491l-203 -156q-39 -32 -61 -32q-31 0 -51.5 21.5t-20.5 57.5q0 22 59 70l203 154
q28 21 40.5 26.5t29.5 5.5q63 0 63 -75q0 -17 -13 -31.5t-46 -40.5zM154 451q0 132 45 255t120 215t168.5 161.5t193 105t191.5 35.5q196 0 326.5 -135t130.5 -338q0 -135 -45 -259.5t-120 -217t-168.5 -162t-194 -105t-193.5 -35.5q-195 0 -324.5 137t-129.5 343zM829 1018
q-86 0 -171.5 -45t-149.5 -116.5t-103.5 -167t-39.5 -191.5q0 -138 80.5 -230t203.5 -92q117 0 226.5 74.5t176 196.5t66.5 253q0 137 -82.5 227.5t-206.5 90.5z" />
    <glyph glyph-name="ohungarumlaut" unicode="&#x151;" 
d="M1196 1217l-203 -156q-40 -33 -61 -33q-31 0 -51.5 22t-20.5 58q0 21 60 70l202 153q29 21 41 27t29 6q31 0 47 -20.5t16 -55.5q0 -12 -8 -24t-18 -20.5t-33 -26.5zM836 1217l-203 -156q-40 -33 -62 -33q-31 0 -51 22t-20 58q0 22 59 70l203 153q29 21 40.5 27t28.5 6
q31 0 47.5 -20.5t16.5 -55.5q0 -12 -8 -24t-18 -20.5t-33 -26.5zM172 356q0 70 27.5 147t83 151.5t130.5 134t180.5 96.5t223.5 37q190 0 310 -109t120 -281q0 -145 -89.5 -276.5t-237.5 -210t-312 -78.5q-196 0 -316 107t-120 282zM770 717q-103 0 -193 -44.5t-143 -119.5
t-53 -160q0 -97 76 -159t194 -62q155 0 271 97.5t116 226.5q0 97 -75.5 159t-192.5 62z" />
    <glyph glyph-name="OE" unicode="&#x152;" 
d="M856 498l-63 -293h301l10 45q25 135 131 135q34 0 57 -22t23 -54q0 -18 -8 -59l-54 -250h-723q-209 0 -334.5 123.5t-125.5 327.5q0 197 97 368.5t262 273t355 101.5h684l-71 -338q-17 -72 -47 -102q-33 -33 -86 -33q-32 0 -56 22.5t-24 53.5q0 13 8 59l29 133h-260
l-62 -289h37q31 113 127 113q35 0 58.5 -22t23.5 -56q0 -8 -10 -57l-33 -160q-35 -135 -133 -135q-34 0 -57 23t-23 55q0 9 4 37h-37zM756 989q-80 -1 -148.5 -22.5t-116 -55.5t-85.5 -78.5t-61 -89.5t-38 -91.5t-20.5 -81.5t-5.5 -62q0 -42 6.5 -80t27 -80t53 -72.5
t89 -50.5t131.5 -20z" />
    <glyph glyph-name="oe" unicode="&#x153;" 
d="M1286 158q0 -46 -35 -82.5t-84 -56t-108.5 -32t-100.5 -16.5t-69 -4q-168 0 -244 152q-143 -152 -299 -152q-128 0 -208.5 96t-80.5 248q0 82 24.5 168.5t70 165t105.5 141t136 99.5t156 37q153 0 233 -164q142 164 308 164q120 0 197 -91.5t77 -234.5q0 -75 -37 -246
h-514q0 -178 131 -178q65 0 152.5 34t111.5 34q33 0 55.5 -23.5t22.5 -58.5zM506 715q-58 0 -113.5 -52t-90 -135.5t-34.5 -169.5q0 -88 32 -137t89 -49q89 0 163.5 112t74.5 244q0 88 -32 137.5t-89 49.5zM1042 715q-62 0 -104.5 -51t-81.5 -138h289v13q0 176 -103 176z
" />
    <glyph glyph-name="Racute" unicode="&#x154;" 
d="M940 1491l-203 -156q-39 -32 -61 -32q-31 0 -51.5 21.5t-20.5 57.5q0 21 60 70l202 154q28 21 40.5 26.5t29.5 5.5q63 0 63 -75q0 -17 -13 -31.5t-46 -40.5zM1292 123q0 -46 -37 -84.5t-122 -38.5h-160q-47 151 -134 291.5t-147 163.5h-196l-54 -250h72q58 0 86.5 -16.5
t28.5 -65.5q0 -46 -37.5 -84.5t-122.5 -38.5h-305q-63 0 -90 19t-27 63q0 47 37.5 85t122.5 38h31l165 784h-30q-63 0 -89 19t-26 63q0 20 6.5 39.5t22.5 39.5t49.5 32t81.5 12h456q177 0 278 -79.5t101 -217.5q0 -233 -292 -377q106 -115 188 -315h27q65 0 90.5 -18
t25.5 -64zM539 659h155q140 0 239 59t99 142q0 58 -53 93.5t-141 35.5h-230z" />
    <glyph glyph-name="racute" unicode="&#x155;" 
d="M1100 1233l-203 -156q-40 -33 -61 -33q-31 0 -51.5 22t-20.5 58q0 22 59 70l203 154q28 21 40.5 26.5t29.5 5.5q63 0 63 -75q0 -17 -13 -31.5t-46 -40.5zM326 772q0 46 36 84.5t121 38.5h277l-27 -131q149 93 224.5 124.5t150.5 31.5q81 0 152 -49t71 -103
q0 -46 -40 -85.5t-87 -39.5q-31 0 -70.5 37t-74.5 37q-47 0 -131.5 -46.5t-249.5 -162.5l-64 -303h285q57 0 87 -16t30 -66q0 -19 -7 -38.5t-23.5 -39.5t-50 -32.5t-79.5 -12.5h-610q-62 0 -88.5 19t-26.5 63q0 48 36 85.5t122 37.5h121l102 487h-72q-61 0 -87.5 18.5
t-26.5 61.5z" />
    <glyph glyph-name="Rcommaaccent" unicode="&#x156;" 
d="M508 -59h244l-234 -308q-30 -41 -65 -41q-54 0 -54 52q0 18 7 39zM1292 123q0 -46 -37 -84.5t-122 -38.5h-160q-47 151 -134 291.5t-147 163.5h-196l-54 -250h72q58 0 86.5 -16.5t28.5 -65.5q0 -46 -37.5 -84.5t-122.5 -38.5h-305q-63 0 -90 19t-27 63q0 47 37.5 85
t122.5 38h31l165 784h-30q-63 0 -89 19t-26 63q0 20 6.5 39.5t22.5 39.5t49.5 32t81.5 12h456q177 0 278 -79.5t101 -217.5q0 -233 -292 -377q106 -115 188 -315h27q65 0 90.5 -18t25.5 -64zM539 659h155q140 0 239 59t99 142q0 58 -53 93.5t-141 35.5h-230z" />
    <glyph glyph-name="rcommaaccent" unicode="&#x157;" 
d="M524 -59h244l-233 -308q-30 -41 -66 -41q-53 0 -53 52q0 21 6 39zM326 772q0 46 36 84.5t121 38.5h277l-27 -131q149 93 224.5 124.5t150.5 31.5q81 0 152 -49t71 -103q0 -46 -40 -85.5t-87 -39.5q-31 0 -70.5 37t-74.5 37q-47 0 -131.5 -46.5t-249.5 -162.5l-64 -303
h285q57 0 87 -16t30 -66q0 -19 -7 -38.5t-23.5 -39.5t-50 -32.5t-79.5 -12.5h-610q-62 0 -88.5 19t-26.5 63q0 48 36 85.5t122 37.5h121l102 487h-72q-61 0 -87.5 18.5t-26.5 61.5z" />
    <glyph glyph-name="Rcaron" unicode="&#x158;" 
d="M842 1483l254 127q8 4 18.5 10t16.5 8.5t13 5t13 2.5q26 0 44 -18t18 -43q0 -17 -5.5 -30.5t-18.5 -24.5t-18.5 -14.5t-21.5 -12.5l-346 -193l-291 207q-20 20 -20 45q0 32 26 58t56 26q6 0 13.5 -2.5t11.5 -5t15 -9t15 -9.5zM1292 123q0 -46 -37 -84.5t-122 -38.5h-160
q-47 151 -134 291.5t-147 163.5h-196l-54 -250h72q58 0 86.5 -16.5t28.5 -65.5q0 -46 -37.5 -84.5t-122.5 -38.5h-305q-63 0 -90 19t-27 63q0 47 37.5 85t122.5 38h31l165 784h-30q-63 0 -89 19t-26 63q0 20 6.5 39.5t22.5 39.5t49.5 32t81.5 12h456q177 0 278 -79.5
t101 -217.5q0 -233 -292 -377q106 -115 188 -315h27q65 0 90.5 -18t25.5 -64zM539 659h155q140 0 239 59t99 142q0 58 -53 93.5t-141 35.5h-230z" />
    <glyph glyph-name="rcaron" unicode="&#x159;" 
d="M866 1202l254 127q8 4 19 10l16.5 9t13 5.5t13.5 2.5q26 0 43.5 -18.5t17.5 -43.5q0 -23 -12.5 -41t-21.5 -24t-29 -17l-346 -192l-291 207q-21 21 -21 45q0 32 26 58t56 26q6 0 13 -2.5t12 -5.5t14.5 -9.5t15.5 -9.5zM326 772q0 46 36 84.5t121 38.5h277l-27 -131
q149 93 224.5 124.5t150.5 31.5q81 0 152 -49t71 -103q0 -46 -40 -85.5t-87 -39.5q-31 0 -70.5 37t-74.5 37q-47 0 -131.5 -46.5t-249.5 -162.5l-64 -303h285q57 0 87 -16t30 -66q0 -19 -7 -38.5t-23.5 -39.5t-50 -32.5t-79.5 -12.5h-610q-62 0 -88.5 19t-26.5 63
q0 48 36 85.5t122 37.5h121l102 487h-72q-61 0 -87.5 18.5t-26.5 61.5z" />
    <glyph glyph-name="Sacute" unicode="&#x15a;" 
d="M1012 1491l-203 -156q-39 -32 -61 -32q-31 0 -51.5 21.5t-20.5 57.5q0 22 59 70l203 154q28 21 40.5 26.5t29.5 5.5q63 0 63 -75q0 -17 -13 -31.5t-46 -40.5zM559 842q0 -43 34 -72t89 -44.5t121.5 -29t132.5 -32.5t121 -47.5t89 -81.5t34 -127q0 -123 -71.5 -223.5
t-198.5 -157t-283 -56.5q-167 0 -303 80q-32 -29 -51 -39t-44 -10q-35 0 -58.5 22t-23.5 54q0 21 9 59l28 135q15 70 47 103t86 33q26 0 42 -6.5t23.5 -22t10 -29t4.5 -41.5q4 -55 80 -94t176 -39q128 0 219 52.5t91 125.5q0 44 -34.5 72t-93 42t-122.5 24.5t-136 31
t-120 51.5q-53 35 -84 92.5t-31 120.5q0 88 42 168.5t113 138.5t169 93t204 35q160 0 252 -68q25 38 45.5 53t49.5 15q36 0 58.5 -20.5t22.5 -53.5q0 -25 -8 -62l-39 -180q-3 -13 -6.5 -26.5t-14 -34.5t-24 -37t-36 -27.5t-50.5 -11.5q-17 0 -29.5 4t-21 7t-14 14.5
t-8.5 15.5t-4.5 22.5t-1.5 21.5t-1 26q0 61 -59 99t-154 38q-107 0 -187.5 -53t-80.5 -123z" />
    <glyph glyph-name="sacute" unicode="&#x15b;" 
d="M1038 1206l-202 -155q-40 -33 -62 -33q-31 0 -51.5 22t-20.5 58q0 20 60 69l203 154q29 21 41 27t28 6q31 0 47.5 -20.5t16.5 -55.5q0 -17 -13 -31.5t-47 -40.5zM1057 575q-32 0 -49 14.5t-27.5 35.5t-28 42t-63 35.5t-119.5 14.5q-84 0 -151.5 -24.5t-67.5 -53.5
t54.5 -46t126.5 -23.5t162 -27t144 -53.5q101 -66 101 -182q0 -94 -68.5 -172t-189 -123t-265.5 -45q-176 0 -290 60q-40 -25 -72 -25q-37 0 -60.5 21.5t-23.5 56.5q0 16 8 57l15 68q15 71 47 104t86 33q77 0 86 -90q71 -80 239 -80q104 0 181 29t77 67q0 44 -61 65.5
t-176 33.5q-188 20 -270.5 72.5t-82.5 152.5q0 138 141.5 234t346.5 96q147 0 252 -54q20 31 36.5 42.5t41.5 11.5q34 0 54.5 -20t20.5 -54q0 -23 -8 -62l-16 -75q-26 -136 -131 -136z" />
    <glyph glyph-name="Scircumflex" unicode="&#x15c;" 
d="M983 1456l-254 -127q-8 -4 -18.5 -10t-16.5 -8.5t-13 -5t-13 -2.5q-26 0 -44 18t-18 43q0 17 5.5 30.5t18.5 24.5t18.5 14.5t21.5 12.5l346 192l291 -206q20 -20 20 -46q0 -32 -26 -57.5t-56 -25.5q-6 0 -13.5 2.5t-11.5 5t-15 9t-15 9.5zM559 842q0 -43 34 -72t89 -44.5
t121.5 -29t132.5 -32.5t121 -47.5t89 -81.5t34 -127q0 -123 -71.5 -223.5t-198.5 -157t-283 -56.5q-167 0 -303 80q-32 -29 -51 -39t-44 -10q-35 0 -58.5 22t-23.5 54q0 21 9 59l28 135q15 70 47 103t86 33q26 0 42 -6.5t23.5 -22t10 -29t4.5 -41.5q4 -55 80 -94t176 -39
q128 0 219 52.5t91 125.5q0 44 -34.5 72t-93 42t-122.5 24.5t-136 31t-120 51.5q-53 35 -84 92.5t-31 120.5q0 88 42 168.5t113 138.5t169 93t204 35q160 0 252 -68q25 38 45.5 53t49.5 15q36 0 58.5 -20.5t22.5 -53.5q0 -25 -8 -62l-39 -180q-3 -13 -6.5 -26.5t-14 -34.5
t-24 -37t-36 -27.5t-50.5 -11.5q-17 0 -29.5 4t-21 7t-14 14.5t-8.5 15.5t-4.5 22.5t-1.5 21.5t-1 26q0 61 -59 99t-154 38q-107 0 -187.5 -53t-80.5 -123z" />
    <glyph glyph-name="scircumflex" unicode="&#x15d;" 
d="M911 1198l-254 -127q-10 -5 -23.5 -13t-21.5 -11t-16 -3q-26 0 -43.5 18.5t-17.5 43.5q0 23 12.5 41t21.5 24t29 17l346 192l291 -206q20 -20 20 -46q0 -32 -25.5 -58t-55.5 -26q-6 0 -13.5 2.5t-12 5t-15 9.5t-15.5 10zM1057 575q-32 0 -49 14.5t-27.5 35.5t-28 42
t-63 35.5t-119.5 14.5q-84 0 -151.5 -24.5t-67.5 -53.5t54.5 -46t126.5 -23.5t162 -27t144 -53.5q101 -66 101 -182q0 -94 -68.5 -172t-189 -123t-265.5 -45q-176 0 -290 60q-40 -25 -72 -25q-37 0 -60.5 21.5t-23.5 56.5q0 16 8 57l15 68q15 71 47 104t86 33q77 0 86 -90
q71 -80 239 -80q104 0 181 29t77 67q0 44 -61 65.5t-176 33.5q-188 20 -270.5 72.5t-82.5 152.5q0 138 141.5 234t346.5 96q147 0 252 -54q20 31 36.5 42.5t41.5 11.5q34 0 54.5 -20t20.5 -54q0 -23 -8 -62l-16 -75q-26 -136 -131 -136z" />
    <glyph glyph-name="Scedilla" unicode="&#x15e;" 
d="M559 842q0 -43 34 -72t89 -44.5t121.5 -29t132.5 -32.5t121 -47.5t89 -81.5t34 -127q0 -175 -136.5 -295t-357.5 -140q61 -16 83 -54t22 -95q0 -103 -69.5 -168.5t-178.5 -65.5q-95 0 -162.5 34t-67.5 81q0 36 22 59t56 23q23 0 47.5 -15t57.5 -30.5t77 -15.5q32 0 51 14
t19 39q0 30 -24.5 46.5t-69.5 16.5q-5 0 -11.5 -0.5t-17.5 -1.5t-20 -2l43 137q-115 13 -219 76q-32 -29 -51 -39t-44 -10q-35 0 -58.5 22t-23.5 54q0 21 9 59l28 135q15 70 47 103t86 33q26 0 42 -6.5t23.5 -22t10 -29t4.5 -41.5q4 -55 80 -94t176 -39q128 0 219 52.5
t91 125.5q0 44 -34.5 72t-93 42t-122.5 24.5t-136 31t-120 51.5q-53 35 -84 92.5t-31 120.5q0 88 42 168.5t113 138.5t169 93t204 35q160 0 252 -68q25 38 45.5 53t49.5 15q36 0 58.5 -20.5t22.5 -53.5q0 -25 -8 -62l-39 -180q-3 -13 -6.5 -26.5t-14 -34.5t-24 -37
t-36 -27.5t-50.5 -11.5q-17 0 -29.5 4t-21 7t-14 14.5t-8.5 15.5t-4.5 22.5t-1.5 21.5t-1 26q0 61 -59 99t-154 38q-107 0 -187.5 -53t-80.5 -123z" />
    <glyph glyph-name="scedilla" unicode="&#x15f;" 
d="M1057 575q-32 0 -49 14.5t-27.5 35.5t-28 42t-63 35.5t-119.5 14.5q-84 0 -151.5 -24.5t-67.5 -53.5t56 -46.5t130 -25t163 -28t138 -52.5q101 -63 101 -180q0 -134 -130 -228.5t-335 -109.5q63 -12 84.5 -40.5t21.5 -92.5q0 -103 -78 -174.5t-188 -71.5q-40 0 -89 11.5
t-90.5 39t-41.5 62.5q0 34 27.5 61t62.5 27q11 0 65 -28.5t99 -28.5q40 0 63 17t23 46q0 58 -94 58q-16 0 -47 -5l38 121q-130 14 -204 56q-40 -25 -72 -25q-37 0 -60.5 21.5t-23.5 56.5q0 16 8 57l15 68q15 71 47 104t86 33q77 0 86 -90q71 -80 239 -80q104 0 181 29t77 67
q0 44 -61 65.5t-176 33.5q-188 20 -270.5 72.5t-82.5 152.5q0 138 141.5 234t346.5 96q147 0 252 -54q20 31 36.5 42.5t41.5 11.5q34 0 54.5 -20t20.5 -54q0 -23 -8 -62l-16 -75q-26 -136 -131 -136z" />
    <glyph glyph-name="Scaron" unicode="&#x160;" 
d="M956 1485l254 127q8 4 19 10t16.5 8.5t13 5t13.5 2.5q26 0 43.5 -18t17.5 -43q0 -23 -12.5 -41t-21.5 -24t-29 -17l-346 -192l-291 206q-21 21 -21 45q0 32 26 58t56 26q5 0 10 -1t11 -4t10 -5.5t12.5 -8t12.5 -7.5zM559 842q0 -43 34 -72t89 -44.5t121.5 -29
t132.5 -32.5t121 -47.5t89 -81.5t34 -127q0 -123 -71.5 -223.5t-198.5 -157t-283 -56.5q-167 0 -303 80q-32 -29 -51 -39t-44 -10q-35 0 -58.5 22t-23.5 54q0 21 9 59l28 135q15 70 47 103t86 33q26 0 42 -6.5t23.5 -22t10 -29t4.5 -41.5q4 -55 80 -94t176 -39
q128 0 219 52.5t91 125.5q0 44 -34.5 72t-93 42t-122.5 24.5t-136 31t-120 51.5q-53 35 -84 92.5t-31 120.5q0 88 42 168.5t113 138.5t169 93t204 35q160 0 252 -68q25 38 45.5 53t49.5 15q36 0 58.5 -20.5t22.5 -53.5q0 -25 -8 -62l-39 -180q-3 -13 -6.5 -26.5t-14 -34.5
t-24 -37t-36 -27.5t-50.5 -11.5q-17 0 -29.5 4t-21 7t-14 14.5t-8.5 15.5t-4.5 22.5t-1.5 21.5t-1 26q0 61 -59 99t-154 38q-107 0 -187.5 -53t-80.5 -123z" />
    <glyph glyph-name="scaron" unicode="&#x161;" 
d="M891 1198l254 127q10 5 23.5 13t21.5 11t16 3q26 0 44 -18.5t18 -43.5q0 -17 -5.5 -30.5t-18.5 -24.5t-18.5 -14.5t-21.5 -12.5l-346 -192l-291 207q-20 20 -20 45q0 32 26 58t56 26q6 0 13 -2.5t12 -5.5t14.5 -9.5t15.5 -9.5zM1057 575q-32 0 -49 14.5t-27.5 35.5
t-28 42t-63 35.5t-119.5 14.5q-84 0 -151.5 -24.5t-67.5 -53.5t54.5 -46t126.5 -23.5t162 -27t144 -53.5q101 -66 101 -182q0 -94 -68.5 -172t-189 -123t-265.5 -45q-176 0 -290 60q-40 -25 -72 -25q-37 0 -60.5 21.5t-23.5 56.5q0 16 8 57l15 68q15 71 47 104t86 33
q77 0 86 -90q71 -80 239 -80q104 0 181 29t77 67q0 44 -61 65.5t-176 33.5q-188 20 -270.5 72.5t-82.5 152.5q0 138 141.5 234t346.5 96q147 0 252 -54q20 31 36.5 42.5t41.5 11.5q34 0 54.5 -20t20.5 -54q0 -23 -8 -62l-16 -75q-26 -136 -131 -136z" />
    <glyph glyph-name="uni0162" unicode="&#x162;" 
d="M262 82q0 49 37 86t123 37h131l168 784h-219l-41 -190q-17 -72 -48 -102q-33 -33 -83 -33q-34 0 -58 22t-24 53q0 27 8 60l84 395h1057l-84 -395q-28 -135 -131 -135q-35 0 -58.5 21.5t-23.5 53.5q0 24 8 60l41 190h-223l-168 -784h135q59 0 88 -16t29 -64
q0 -47 -37.5 -86t-122.5 -39h-154l-4 -27q58 -10 82.5 -41.5t24.5 -93.5q0 -103 -78.5 -175.5t-188.5 -72.5q-40 0 -89 11.5t-90.5 39t-41.5 62.5q0 34 27.5 61t62.5 27q11 0 65 -28.5t99 -28.5q40 0 63 17t23 46q0 58 -94 58q-16 0 -47 -5l43 150h-176q-61 0 -88 19.5
t-27 62.5z" />
    <glyph glyph-name="uni0163" unicode="&#x163;" 
d="M1116 813q0 -47 -37.5 -85t-122.5 -38h-370l-86 -401q-6 -27 -6 -49q0 -68 157 -68q79 0 148.5 14.5t107.5 31.5t74.5 31.5t58.5 14.5q35 0 57.5 -22.5t22.5 -59.5q0 -50 -50 -90.5t-128 -65t-151 -38.5t-140 -19q66 -14 93.5 -42.5t27.5 -88.5q0 -103 -78 -175.5
t-188 -72.5q-40 0 -89 11.5t-90.5 39t-41.5 62.5q0 34 27.5 61t62.5 27q11 0 65 -28.5t99 -28.5q40 0 63 17t23 46q0 58 -95 58q-16 0 -47 -5l25 125q-60 10 -108 32t-83.5 69t-35.5 112q0 32 6 62l94 440h-72q-63 0 -89.5 19t-26.5 63q0 20 6 38.5t21.5 39t49.5 33t82 12.5
h72l39 180q25 135 131 135q35 0 58.5 -21.5t23.5 -55.5q0 -19 -8 -58l-39 -180h370q38 0 60 -4t39.5 -23t17.5 -55z" />
    <glyph glyph-name="Tcaron" unicode="&#x164;" 
d="M940 1485l254 127q8 4 18.5 10t16.5 8.5t13 5t13 2.5q26 0 44 -18t18 -43q0 -17 -5.5 -30.5t-18.5 -24.5t-18.5 -14.5t-21.5 -12.5l-346 -192l-291 206q-20 20 -20 45q0 32 26 58t56 26q6 0 13.5 -2.5t11.5 -5t15 -9t15 -9.5zM262 82q0 49 37 86t123 37h131l168 784h-219
l-41 -190q-17 -72 -48 -102q-33 -33 -83 -33q-34 0 -58 22t-24 53q0 27 8 60l84 395h1057l-84 -395q-28 -135 -131 -135q-35 0 -58.5 21.5t-23.5 53.5q0 24 8 60l41 190h-223l-168 -784h135q59 0 88 -16t29 -64q0 -47 -37.5 -86t-122.5 -39h-473q-61 0 -88 19.5t-27 62.5z
" />
    <glyph glyph-name="tcaron" unicode="&#x165;" 
d="M1389 1204l-203 -155q-40 -33 -62 -33q-31 0 -51 22t-20 58q0 21 59 69l203 154q29 21 41 27t28 6q31 0 47.5 -20.5t16.5 -55.5q0 -17 -13 -31.5t-46 -40.5zM1116 813q0 -47 -37.5 -85t-122.5 -38h-370l-86 -401q-6 -27 -6 -49q0 -68 157 -68q79 0 148.5 14.5t107.5 31.5
t74.5 31.5t58.5 14.5q35 0 57.5 -22.5t22.5 -59.5q0 -56 -65 -101t-157 -68t-172 -34.5t-130 -11.5q-51 0 -101.5 10.5t-100.5 33.5t-81.5 69t-31.5 108q0 32 6 62l94 440h-72q-63 0 -89.5 19t-26.5 63q0 20 6 38.5t21.5 39t49.5 33t82 12.5h72l39 180q25 135 131 135
q35 0 58.5 -21.5t23.5 -55.5q0 -19 -8 -58l-39 -180h370q38 0 60 -4t39.5 -23t17.5 -55z" />
    <glyph glyph-name="Tbar" unicode="&#x166;" 
d="M211 436q0 131 160 131h133l90 422h-219l-41 -190q-14 -63 -43 -99t-88 -36q-80 0 -80 79q0 26 6 56l84 395h1057l-84 -395q-14 -66 -42.5 -100.5t-88.5 -34.5q-80 0 -80 79q0 29 6 56l41 190h-223l-90 -422h135q56 0 86.5 -15.5t30.5 -55.5q0 -23 -6.5 -44t-22.5 -42.5
t-49.5 -34.5t-81.5 -13h-135l-35 -157h135q117 0 117 -74q0 -22 -6 -42.5t-22 -41.5t-50 -34t-82 -13h-473q-117 0 -117 80q0 23 6.5 42.5t22.5 39.5t49.5 31.5t81.5 11.5h133l35 157h-133q-117 0 -117 74z" />
    <glyph glyph-name="tbar" unicode="&#x167;" 
d="M991 823q0 -23 -6.5 -43.5t-22.5 -42t-49.5 -34.5t-81.5 -13h-370l-27 -123h74q56 0 86.5 -15.5t30.5 -55.5q0 -23 -6.5 -44t-22.5 -42.5t-49.5 -34.5t-81.5 -13h-74l-16 -73q-6 -21 -6 -41q0 -40 34 -58t123 -18q79 0 148 14.5t107 31.5t75 31.5t59 14.5q36 0 58 -23
t22 -59q0 -47 -53 -89t-132.5 -68.5t-167.5 -42t-163 -15.5q-153 0 -238 59t-85 164q0 30 6 60l24 112h-71q-117 0 -117 74q0 131 160 131h71l27 123h-72q-116 0 -116 74q0 131 159 131h72l37 180q14 63 44 99t89 36q80 0 80 -75q0 -29 -8 -60l-37 -180h370q117 0 117 -72z
" />
    <glyph glyph-name="Utilde" unicode="&#x168;" 
d="M1040 1503q34 0 90.5 49.5t90.5 49.5q24 0 40.5 -15.5t16.5 -34.5q0 -26 -37 -70.5t-99 -82t-120 -37.5q-45 0 -102 24.5t-107.5 49t-79.5 24.5q-35 0 -66 -23t-59 -46t-57 -23q-23 0 -38 14.5t-15 36.5q0 46 81.5 114.5t174.5 68.5q45 0 101.5 -25t106.5 -49.5t78 -24.5
zM1327 1194q58 0 87.5 -15.5t29.5 -64.5q0 -54 -40 -89.5t-110 -35.5l-120 -569q-40 -190 -203 -319.5t-361 -129.5q-167 0 -276 100t-109 253q0 48 11 96l120 569q-55 0 -79.5 19.5t-24.5 62.5q0 20 6.5 39.5t22.5 39.5t49.5 32t81.5 12h266q38 0 59.5 -4t38.5 -22.5
t17 -53.5q0 -50 -36.5 -87.5t-123.5 -37.5h-72l-125 -588q-4 -28 -4 -41q0 -79 63 -131.5t158 -52.5q109 0 200.5 65.5t111.5 159.5l125 588h-72q-63 0 -89 19t-26 63q0 20 6.5 39.5t22.5 39.5t49.5 32t81.5 12h264z" />
    <glyph glyph-name="utilde" unicode="&#x169;" 
d="M965 1202q34 0 90 49t90 49q24 0 40.5 -15t16.5 -34q0 -26 -37 -70.5t-99 -82t-120 -37.5q-45 0 -102 24.5t-107.5 49t-79.5 24.5q-35 0 -66 -23t-59 -46t-57 -23q-23 0 -38 14.5t-15 36.5q0 20 21 50t55 60t83 51t97 21q45 0 102 -24.5t107 -49t78 -24.5zM799 772
q0 49 36.5 86t122.5 37h277l-148 -690q107 0 107 -80q0 -48 -37.5 -86.5t-124.5 -38.5h-192l20 98q-93 -72 -157 -98.5t-150 -26.5q-135 0 -218 69t-83 183q0 39 10 94l78 373h-33q-62 0 -88 19t-26 63q0 48 36 84.5t123 36.5h238l-121 -569q-6 -24 -6 -47q0 -48 40 -74.5
t113 -26.5q77 0 136 28t155 111l80 375h-72q-63 0 -89.5 18.5t-26.5 61.5z" />
    <glyph glyph-name="Umacron" unicode="&#x16a;" 
d="M686 1509h500q51 0 71.5 -15t20.5 -52q0 -41 -36 -68.5t-91 -27.5h-500q-51 0 -71.5 14.5t-20.5 52.5q0 43 35 69.5t92 26.5zM1327 1194q58 0 87.5 -15.5t29.5 -64.5q0 -54 -40 -89.5t-110 -35.5l-120 -569q-40 -190 -203 -319.5t-361 -129.5q-167 0 -276 100t-109 253
q0 48 11 96l120 569q-55 0 -79.5 19.5t-24.5 62.5q0 20 6.5 39.5t22.5 39.5t49.5 32t81.5 12h266q38 0 59.5 -4t38.5 -22.5t17 -53.5q0 -50 -36.5 -87.5t-123.5 -37.5h-72l-125 -588q-4 -28 -4 -41q0 -79 63 -131.5t158 -52.5q109 0 200.5 65.5t111.5 159.5l125 588h-72
q-63 0 -89 19t-26 63q0 20 6.5 39.5t22.5 39.5t49.5 32t81.5 12h264z" />
    <glyph glyph-name="umacron" unicode="&#x16b;" 
d="M610 1208h500q51 0 71.5 -15t20.5 -52q0 -42 -36 -69.5t-91 -27.5h-500q-51 0 -71.5 15t-20.5 53q0 43 35 69.5t92 26.5zM799 772q0 49 36.5 86t122.5 37h277l-148 -690q107 0 107 -80q0 -48 -37.5 -86.5t-124.5 -38.5h-192l20 98q-93 -72 -157 -98.5t-150 -26.5
q-135 0 -218 69t-83 183q0 39 10 94l78 373h-33q-62 0 -88 19t-26 63q0 48 36 84.5t123 36.5h238l-121 -569q-6 -24 -6 -47q0 -48 40 -74.5t113 -26.5q77 0 136 28t155 111l80 375h-72q-63 0 -89.5 18.5t-26.5 61.5z" />
    <glyph glyph-name="Ubreve" unicode="&#x16c;" 
d="M631 1638q31 0 42.5 -13t14.5 -52t62 -74t139 -35t149 34.5t88 74.5q20 40 35.5 52.5t46.5 12.5q60 0 60 -51q0 -59 -58 -120t-153 -101.5t-193 -40.5q-130 0 -223.5 67.5t-93.5 155.5q0 45 22.5 67.5t61.5 22.5zM1327 1194q58 0 87.5 -15.5t29.5 -64.5q0 -54 -40 -89.5
t-110 -35.5l-120 -569q-40 -190 -203 -319.5t-361 -129.5q-167 0 -276 100t-109 253q0 48 11 96l120 569q-55 0 -79.5 19.5t-24.5 62.5q0 20 6.5 39.5t22.5 39.5t49.5 32t81.5 12h266q38 0 59.5 -4t38.5 -22.5t17 -53.5q0 -50 -36.5 -87.5t-123.5 -37.5h-72l-125 -588
q-4 -28 -4 -41q0 -79 63 -131.5t158 -52.5q109 0 200.5 65.5t111.5 159.5l125 588h-72q-63 0 -89 19t-26 63q0 20 6.5 39.5t22.5 39.5t49.5 32t81.5 12h264z" />
    <glyph glyph-name="ubreve" unicode="&#x16d;" 
d="M555 1358q31 0 42.5 -13t14.5 -53q3 -39 61.5 -73.5t139.5 -34.5q80 0 149.5 34t88.5 74q21 40 36.5 53t45.5 13q59 0 59 -51q0 -59 -58 -120t-153 -102t-193 -41q-130 0 -223.5 68t-93.5 156q0 45 22.5 67.5t61.5 22.5zM799 772q0 49 36.5 86t122.5 37h277l-148 -690
q107 0 107 -80q0 -48 -37.5 -86.5t-124.5 -38.5h-192l20 98q-93 -72 -157 -98.5t-150 -26.5q-135 0 -218 69t-83 183q0 39 10 94l78 373h-33q-62 0 -88 19t-26 63q0 48 36 84.5t123 36.5h238l-121 -569q-6 -24 -6 -47q0 -48 40 -74.5t113 -26.5q77 0 136 28t155 111l80 375
h-72q-63 0 -89.5 18.5t-26.5 61.5z" />
    <glyph glyph-name="Uring" unicode="&#x16e;" 
d="M936 1638q72 0 117 -43.5t45 -109.5q0 -91 -72.5 -154t-155.5 -63q-69 0 -114 44.5t-45 110.5q0 88 71 151.5t154 63.5zM913 1511q-26 0 -48.5 -19.5t-22.5 -47.5q0 -22 14.5 -35.5t36.5 -13.5q28 0 51 19.5t23 47.5q0 22 -15.5 35.5t-38.5 13.5zM1327 1194
q58 0 87.5 -15.5t29.5 -64.5q0 -54 -40 -89.5t-110 -35.5l-120 -569q-40 -190 -203 -319.5t-361 -129.5q-167 0 -276 100t-109 253q0 48 11 96l120 569q-55 0 -79.5 19.5t-24.5 62.5q0 20 6.5 39.5t22.5 39.5t49.5 32t81.5 12h266q38 0 59.5 -4t38.5 -22.5t17 -53.5
q0 -50 -36.5 -87.5t-123.5 -37.5h-72l-125 -588q-4 -28 -4 -41q0 -79 63 -131.5t158 -52.5q109 0 200.5 65.5t111.5 159.5l125 588h-72q-63 0 -89 19t-26 63q0 20 6.5 39.5t22.5 39.5t49.5 32t81.5 12h264z" />
    <glyph glyph-name="uring" unicode="&#x16f;" 
d="M858 1436q71 0 116.5 -43.5t45.5 -110.5q0 -91 -72 -154t-155 -63q-69 0 -114.5 45t-45.5 111q0 88 71 151.5t154 63.5zM836 1309q-26 0 -49 -20t-23 -48q0 -22 14.5 -35.5t36.5 -13.5q28 0 51 20t23 48q0 22 -15 35.5t-38 13.5zM799 772q0 49 36.5 86t122.5 37h277
l-148 -690q107 0 107 -80q0 -48 -37.5 -86.5t-124.5 -38.5h-192l20 98q-93 -72 -157 -98.5t-150 -26.5q-135 0 -218 69t-83 183q0 39 10 94l78 373h-33q-62 0 -88 19t-26 63q0 48 36 84.5t123 36.5h238l-121 -569q-6 -24 -6 -47q0 -48 40 -74.5t113 -26.5q77 0 136 28
t155 111l80 375h-72q-63 0 -89.5 18.5t-26.5 61.5z" />
    <glyph glyph-name="Uhungarumlaut" unicode="&#x170;" 
d="M1341 1491l-202 -156q-39 -32 -62 -32q-31 0 -51 21.5t-20 57.5q0 22 59 70l203 154q28 21 40 26.5t29 5.5q31 0 47.5 -20t16.5 -55q0 -17 -13 -31.5t-47 -40.5zM981 1491l-203 -156q-39 -32 -61 -32q-31 0 -51.5 21.5t-20.5 57.5q0 21 60 70l202 154q28 21 40.5 26.5
t29.5 5.5q63 0 63 -75q0 -17 -13 -31.5t-46 -40.5zM1327 1194q58 0 87.5 -15.5t29.5 -64.5q0 -54 -40 -89.5t-110 -35.5l-120 -569q-40 -190 -203 -319.5t-361 -129.5q-167 0 -276 100t-109 253q0 48 11 96l120 569q-55 0 -79.5 19.5t-24.5 62.5q0 20 6.5 39.5t22.5 39.5
t49.5 32t81.5 12h266q38 0 59.5 -4t38.5 -22.5t17 -53.5q0 -50 -36.5 -87.5t-123.5 -37.5h-72l-125 -588q-4 -28 -4 -41q0 -79 63 -131.5t158 -52.5q109 0 200.5 65.5t111.5 159.5l125 588h-72q-63 0 -89 19t-26 63q0 20 6.5 39.5t22.5 39.5t49.5 32t81.5 12h264z" />
    <glyph glyph-name="uhungarumlaut" unicode="&#x171;" 
d="M1186 1212l-203 -155q-40 -33 -61 -33q-31 0 -51.5 22t-20.5 58q0 22 59 70l203 153q29 21 41 27t29 6q31 0 47 -20.5t16 -55.5q0 -17 -13 -31.5t-46 -40.5zM825 1212l-202 -155q-40 -33 -62 -33q-31 0 -51.5 22t-20.5 58q0 21 60 70l203 153q29 21 40.5 27t28.5 6
q31 0 47.5 -20.5t16.5 -55.5q0 -17 -13 -31.5t-47 -40.5zM799 772q0 49 36.5 86t122.5 37h277l-148 -690q107 0 107 -80q0 -48 -37.5 -86.5t-124.5 -38.5h-192l20 98q-93 -72 -157 -98.5t-150 -26.5q-135 0 -218 69t-83 183q0 39 10 94l78 373h-33q-62 0 -88 19t-26 63
q0 48 36 84.5t123 36.5h238l-121 -569q-6 -24 -6 -47q0 -48 40 -74.5t113 -26.5q77 0 136 28t155 111l80 375h-72q-63 0 -89.5 18.5t-26.5 61.5z" />
    <glyph glyph-name="Uogonek" unicode="&#x172;" 
d="M1327 1194q58 0 87.5 -15.5t29.5 -64.5q0 -54 -40 -89.5t-110 -35.5l-120 -569q-32 -122 -85.5 -199t-185.5 -192q-144 -127 -179.5 -166.5t-35.5 -79.5q0 -33 35 -33q31 0 82.5 22.5t73.5 22.5q29 0 46 -18t17 -47q0 -46 -51.5 -80t-109 -47t-103.5 -13
q-73 0 -115.5 40.5t-42.5 109.5q0 62 30 109t91 88l78 45q-62 -11 -109 -11q-167 0 -276 100t-109 253q0 48 11 96l120 569q-55 0 -79.5 19.5t-24.5 62.5q0 20 6.5 39.5t22.5 39.5t49.5 32t81.5 12h266q38 0 59.5 -4t38.5 -22.5t17 -53.5q0 -50 -36.5 -87.5t-123.5 -37.5
h-72l-125 -588q-4 -28 -4 -41q0 -79 63 -131.5t158 -52.5q109 0 200.5 65.5t111.5 159.5l125 588h-72q-63 0 -89 19t-26 63q0 20 6.5 39.5t22.5 39.5t49.5 32t81.5 12h264z" />
    <glyph glyph-name="uogonek" unicode="&#x173;" 
d="M905 -254q32 0 86.5 24.5t77.5 24.5q28 0 46 -17t18 -44q0 -37 -31 -66t-77 -45t-90 -24.5t-77 -8.5q-73 0 -115.5 36.5t-42.5 99.5q0 36 8.5 68t27 58t34.5 45.5t43 38t40.5 27.5t39.5 22.5t27 14.5h-80l20 98q-93 -72 -157 -98.5t-150 -26.5q-135 0 -218 69t-83 183
q0 39 10 94l78 373h-33q-62 0 -88 19t-26 63q0 48 36 84.5t123 36.5h238l-121 -569q-6 -24 -6 -47q0 -48 40 -74.5t113 -26.5q77 0 136 28t155 111l80 375h-72q-63 0 -89.5 18.5t-26.5 61.5q0 49 36.5 86t122.5 37h277l-148 -690q107 0 107 -80q0 -37 -34 -74t-82 -68
t-96 -62.5t-82 -68.5t-34 -75q0 -31 39 -31z" />
    <glyph glyph-name="Wcircumflex" unicode="&#x174;" 
d="M893 1456l-254 -127q-8 -4 -18.5 -10t-16.5 -8.5t-13 -5t-13 -2.5q-26 0 -44 18t-18 43q0 17 5.5 30.5t18.5 24.5t18.5 14.5t21.5 12.5l346 192l291 -206q20 -20 20 -46q0 -32 -26 -57.5t-56 -25.5q-6 0 -13.5 2.5t-11.5 5t-15 9t-15 9.5zM1368 1194q58 0 87.5 -15.5
t29.5 -64.5q0 -47 -32.5 -81.5t-86.5 -43.5l-334 -989h-225l-72 567l-307 -567h-227l84 989q-76 9 -76 74q0 22 6.5 42.5t22.5 41.5t49.5 34t81.5 13h270q38 0 60 -4t39.5 -23t17.5 -55q0 -48 -37.5 -85.5t-124.5 -37.5h-98l-43 -557l254 463h211l57 -463l192 557h-110
q-63 0 -89 19t-26 63q0 20 6 38.5t22 39t50 33t82 12.5h266z" />
    <glyph glyph-name="wcircumflex" unicode="&#x175;" 
d="M829 1198l-254 -127q-10 -5 -23.5 -13t-21.5 -11t-16 -3q-26 0 -43.5 18.5t-17.5 43.5q0 23 12.5 41t21.5 24t29 17l346 192l291 -206q21 -21 21 -46q0 -32 -26 -58t-56 -26q-6 0 -13.5 2.5t-12 5t-15 9.5t-15.5 10zM1284 895q38 0 60 -4t39.5 -23t17.5 -55
q0 -12 -5 -28.5t-17.5 -37t-41 -36.5t-67.5 -19l-318 -692h-188l-68 371l-217 -371h-192l-27 692q-92 3 -92 80q0 48 36.5 85.5t123.5 37.5h188q58 0 86.5 -16t28.5 -64q0 -49 -35.5 -86t-118.5 -37l12 -313l191 323h182l56 -323l149 313h-14q-59 0 -88 16t-29 64t37 85.5
t123 37.5h188z" />
    <glyph glyph-name="Ycircumflex" unicode="&#x176;" 
d="M895 1456l-254 -127q-8 -4 -18.5 -10t-16.5 -8.5t-13 -5t-13 -2.5q-26 0 -44 18t-18 43q0 17 5.5 30.5t18.5 24.5t18.5 14.5t21.5 12.5l346 192l291 -206q20 -20 20 -46q0 -32 -26 -57.5t-56 -25.5q-6 0 -13.5 2.5t-11.5 5t-15 9t-15 9.5zM1421 1114q0 -19 -7 -39
t-22.5 -40t-47 -33t-74.5 -13h-6l-441 -487l-61 -297h133q59 0 88 -16t29 -64q0 -47 -37.5 -86t-122.5 -39h-473q-62 0 -89.5 19.5t-27.5 62.5q0 49 36.5 86t123.5 37h135l61 297l-233 487h-12q-47 0 -73 21t-26 61q0 48 36.5 85.5t123.5 37.5h184q58 0 86.5 -16t28.5 -64
q0 -84 -102 -125l135 -276l252 276q-34 13 -48 32t-14 50q0 49 37 86t123 37h191q58 0 86 -15.5t28 -64.5z" />
    <glyph glyph-name="ycircumflex" unicode="&#x177;" 
d="M827 1198l-254 -127q-10 -5 -23.5 -13t-21.5 -11t-16 -3q-26 0 -43.5 18.5t-17.5 43.5q0 23 12.5 41t21.5 24t29 17l346 192l291 -206q20 -20 20 -46q0 -32 -25.5 -58t-55.5 -26q-6 0 -13.5 2.5t-12 5t-15 9.5t-15.5 10zM-25 -328q0 47 37.5 85t122.5 38h205l158 211
l-207 684q-82 12 -82 82q0 48 37 85.5t123 37.5h184q58 0 86.5 -16t28.5 -64q0 -55 -40.5 -89t-105.5 -36l140 -457l339 457h-10q-100 0 -100 82q0 48 37 85.5t123 37.5h188q38 0 60 -4t39.5 -23t17.5 -55q0 -49 -36 -83t-93 -40l-664 -895h10q59 0 88 -16t29 -64t-37 -86.5
t-123 -38.5h-438q-63 0 -90 19t-27 63z" />
    <glyph glyph-name="Ydieresis" unicode="&#x178;" 
d="M741 1591q44 0 72.5 -27.5t28.5 -70.5q0 -57 -47 -102t-107 -45q-41 0 -69.5 28.5t-28.5 69.5q0 55 47 101t104 46zM1167 1591q44 0 72.5 -27.5t28.5 -70.5q0 -57 -47 -102t-107 -45q-41 0 -69.5 28.5t-28.5 69.5q0 55 47 101t104 46zM1421 1114q0 -19 -7 -39t-22.5 -40
t-47 -33t-74.5 -13h-6l-441 -487l-61 -297h133q59 0 88 -16t29 -64q0 -47 -37.5 -86t-122.5 -39h-473q-62 0 -89.5 19.5t-27.5 62.5q0 49 36.5 86t123.5 37h135l61 297l-233 487h-12q-47 0 -73 21t-26 61q0 48 36.5 85.5t123.5 37.5h184q58 0 86.5 -16t28.5 -64
q0 -84 -102 -125l135 -276l252 276q-34 13 -48 32t-14 50q0 49 37 86t123 37h191q58 0 86 -15.5t28 -64.5z" />
    <glyph glyph-name="Zacute" unicode="&#x179;" 
d="M1065 1491l-203 -156q-39 -32 -61 -32q-31 0 -51.5 21.5t-20.5 57.5q0 22 59 70l203 154q28 21 40.5 26.5t29.5 5.5q63 0 63 -75q0 -17 -13 -31.5t-46 -40.5zM455 205h463l32 147q26 135 131 135q35 0 58.5 -21.5t23.5 -55.5q0 -19 -8 -58l-76 -352h-929l43 205l784 784
h-365l-30 -143q-30 -135 -133 -135q-34 0 -58 22t-24 53q0 11 10 60l74 348h835l-43 -199z" />
    <glyph glyph-name="zacute" unicode="&#x17a;" 
d="M1040 1208l-202 -155q-40 -33 -62 -33q-31 0 -51 22t-20 58q0 21 59 69l203 154q29 21 41 27t28 6q31 0 47.5 -20.5t16.5 -55.5q0 -17 -13 -31.5t-47 -40.5zM551 690q0 -2 -3 -16t-5.5 -22.5t-8 -24.5t-11.5 -26.5t-16.5 -23.5t-23 -21t-30 -13.5t-37.5 -5.5
q-35 0 -58.5 21.5t-23.5 53.5q0 24 8 60l47 223h838l-35 -166l-649 -524h360q31 110 125 110q35 0 58.5 -21.5t23.5 -53.5q0 -19 -8 -60l-39 -180h-889l37 170l643 520h-303z" />
    <glyph glyph-name="Zdotaccent" unicode="&#x17b;" 
d="M952 1591q44 0 72.5 -27.5t28.5 -70.5q0 -57 -47 -102t-107 -45q-41 0 -69.5 28.5t-28.5 69.5q0 57 46 102t105 45zM455 205h463l32 147q26 135 131 135q35 0 58.5 -21.5t23.5 -55.5q0 -19 -8 -58l-76 -352h-929l43 205l784 784h-365l-30 -143q-30 -135 -133 -135
q-34 0 -58 22t-24 53q0 11 10 60l74 348h835l-43 -199z" />
    <glyph glyph-name="zdotaccent" unicode="&#x17c;" 
d="M891 1290q44 0 72 -27.5t28 -70.5q0 -57 -46.5 -102.5t-106.5 -45.5q-41 0 -70 29t-29 70q0 57 46.5 102t105.5 45zM551 690q0 -2 -3 -16t-5.5 -22.5t-8 -24.5t-11.5 -26.5t-16.5 -23.5t-23 -21t-30 -13.5t-37.5 -5.5q-35 0 -58.5 21.5t-23.5 53.5q0 24 8 60l47 223h838
l-35 -166l-649 -524h360q31 110 125 110q35 0 58.5 -21.5t23.5 -53.5q0 -19 -8 -60l-39 -180h-889l37 170l643 520h-303z" />
    <glyph glyph-name="Zcaron" unicode="&#x17d;" 
d="M936 1485l254 127q8 4 18.5 10t16.5 8.5t13 5t13 2.5q26 0 44 -18t18 -43q0 -17 -5.5 -30.5t-18.5 -24.5t-18.5 -14.5t-21.5 -12.5l-346 -192l-291 206q-20 20 -20 45q0 32 26 58t56 26q6 0 13.5 -2.5t11.5 -5t15 -9t15 -9.5zM455 205h463l32 147q26 135 131 135
q35 0 58.5 -21.5t23.5 -55.5q0 -19 -8 -58l-76 -352h-929l43 205l784 784h-365l-30 -143q-30 -135 -133 -135q-34 0 -58 22t-24 53q0 11 10 60l74 348h835l-43 -199z" />
    <glyph glyph-name="zcaron" unicode="&#x17e;" 
d="M874 1202l254 127q8 4 19 10l16.5 9t13 5.5t13.5 2.5q26 0 43.5 -18.5t17.5 -43.5q0 -23 -12.5 -41t-21.5 -24t-29 -17l-346 -192l-291 207q-21 21 -21 45q0 32 26 58t56 26q6 0 13.5 -2.5t12 -5t15 -9.5t15.5 -10zM551 690q0 -2 -3 -16t-5.5 -22.5t-8 -24.5t-11.5 -26.5
t-16.5 -23.5t-23 -21t-30 -13.5t-37.5 -5.5q-35 0 -58.5 21.5t-23.5 53.5q0 24 8 60l47 223h838l-35 -166l-649 -524h360q31 110 125 110q35 0 58.5 -21.5t23.5 -53.5q0 -19 -8 -60l-39 -180h-889l37 170l643 520h-303z" />
    <glyph glyph-name="longs" unicode="&#x17f;" 
d="M1294 1042q-12 0 -104 14.5t-178 14.5q-174 0 -195 -100q-22 -106 -78 -365t-84 -401h285q59 0 88 -16t29 -64q0 -47 -37.5 -86t-122.5 -39h-610q-61 0 -88 19.5t-27 62.5q0 49 37 86t123 37h119l102 485h-94q-64 0 -91.5 19t-27.5 63q0 49 35.5 86t126.5 37h94l16 76
q31 141 155 223t308 82q183 0 261.5 -28t78.5 -81q0 -47 -37.5 -86t-83.5 -39z" />
    <glyph glyph-name="uni0180" unicode="&#x180;" 
d="M729 176q84 0 151.5 27t106.5 66.5t65.5 87t36 85t9.5 64.5q0 94 -68 153.5t-184 59.5q-74 0 -135 -19.5t-99.5 -51.5t-66.5 -68.5t-42 -75t-20 -67t-6 -48.5q0 -96 68 -154.5t184 -58.5zM260 1145q0 24 6.5 45t22.5 42t50 33.5t83 12.5h440q57 0 87 -16t30 -56
q0 -24 -6.5 -44.5t-22.5 -42t-49.5 -34t-81.5 -12.5h-203l-55 -252q153 103 330 103q197 0 306.5 -102.5t109.5 -266.5q0 -41 -11 -109q-44 -204 -212 -339.5t-394 -135.5q-91 0 -155 22.5t-132 78.5l-16 -72h-237q-117 0 -117 74q0 131 160 131h32l187 868h-33
q-119 0 -119 72z" />
    <glyph glyph-name="uni0181" unicode="&#x181;" 
d="M815 700q124 0 203.5 53.5t79.5 129.5q0 51 -47 78.5t-133 27.5h-273l-61 -289h231zM836 205q131 0 183 37t52 104q0 68 -69 109t-187 41h-276l-62 -291h359zM82 78q0 50 35 88.5t125 38.5h30l168 784h-30q-56 0 -76.5 -4.5t-20.5 -17.5q0 -9 19.5 -33t19.5 -51
q0 -54 -42.5 -90.5t-90.5 -36.5q-42 0 -79.5 48.5t-37.5 117.5q0 123 95.5 197.5t255.5 74.5h518q153 0 244.5 -75t91.5 -197q0 -37 -9 -71.5t-19 -59t-32 -52t-32.5 -40t-37 -33.5t-30 -23.5t-25.5 -17.5q162 -91 162 -232q0 -31 -10 -73.5t-42.5 -100.5t-82.5 -105
t-140.5 -80.5t-205.5 -33.5h-604q-117 0 -117 78z" />
    <glyph glyph-name="uni0182" unicode="&#x182;" 
d="M1167 750q-32 0 -52 16.5t-25 31t-5 25.5q0 21 9 62l20 104h-524l-62 -289h367q72 0 130.5 -20.5t95.5 -53t62 -75t35.5 -84.5t10.5 -84q0 -31 -6 -55q-32 -148 -162 -238t-311 -90h-605q-56 0 -86 17t-30 63q0 49 36.5 87t122.5 38h31l166 784h-31q-58 0 -86 15.5
t-28 62.5q0 50 36 88.5t123 38.5h965l-66 -309q-26 -135 -131 -135zM1016 334q0 51 -19.5 84.5t-57.5 49.5t-78.5 22t-98.5 6h-277l-61 -291h358q130 0 182 34.5t52 94.5z" />
    <glyph glyph-name="uni0183" unicode="&#x183;" 
d="M709 176q84 0 151 27t106.5 66.5t65.5 87t35.5 85t9.5 64.5q0 94 -68 153.5t-184 59.5q-88 0 -157 -28t-107.5 -68t-63 -89t-32.5 -84.5t-8 -60.5q0 -96 68 -154.5t184 -58.5zM240 1145q0 133 161 133h646q57 0 86.5 -16t29.5 -56q0 -24 -6.5 -44.5t-22 -42t-49 -34
t-81.5 -12.5h-408l-55 -252q153 103 329 103q197 0 306.5 -102.5t109.5 -266.5q0 -47 -10 -109q-44 -204 -212 -339.5t-394 -135.5q-91 0 -155 22.5t-132 78.5l-16 -72h-238q-117 0 -117 74q0 131 160 131h33l186 868h-33q-118 0 -118 72z" />
    <glyph glyph-name="uni0184" unicode="&#x184;" 
d="M564 743h249q101 0 180 -18t128.5 -47t82 -69.5t45 -82t12.5 -88.5q0 -109 -65.5 -210.5t-176.5 -164.5t-233 -63h-626q-48 0 -68.5 21t-20.5 52q0 38 30 75.5t98 37.5h60l134 633q-58 -37 -94 -37q-34 0 -52.5 23t-18.5 54q0 53 51 89q8 7 25 15l137 82l23 108
q9 30 10 33q13 30 40.5 52t64.5 22q29 0 52 -18t23 -57v-11l83 50q40 21 68 21q33 0 53 -20.5t20 -51.5q0 -57 -53 -92q-2 -1 -41 -25t-92.5 -56.5t-84.5 -51.5zM1070 397q0 24 -7.5 45t-27.5 42.5t-51.5 37t-84.5 25.5t-121 10h-254l-79 -371h375q104 0 177 66t73 145z" />
    <glyph glyph-name="uni0185" unicode="&#x185;" 
d="M526 810q159 124 344 124q182 0 294.5 -100.5t112.5 -266.5q0 -112 -49.5 -221.5t-131.5 -192.5t-196 -134.5t-235 -51.5q-183 0 -291 125l-20 -92h-245q-48 0 -68.5 21t-20.5 52q0 15 6 32.5t19 36.5t40 31.5t63 12.5h60l133 630l-13 -8l-5 -3q-38 -19 -64 -19
q-34 0 -53 23.5t-19 54.5q0 64 77 103l126 76l23 110q9 30 10 33q13 30 40.5 52t64.5 22q29 0 52 -18t23 -57q0 -9 -1 -14l95 57q40 21 68 21q33 0 53 -20.5t20 -51.5q0 -60 -54 -92l-229 -139zM444 389q0 -106 71 -170.5t185 -64.5q68 0 137 27.5t124 74.5t89.5 117
t34.5 148q0 106 -71 166.5t-187 60.5q-83 0 -155.5 -30.5t-121.5 -80.5t-77.5 -115t-28.5 -133z" />
    <glyph glyph-name="uni0186" unicode="&#x186;" 
d="M346 367l-2 -48q0 -57 76.5 -100t177.5 -43q84 0 154.5 27t118.5 69.5t85.5 99t59.5 111.5t36 111.5t18.5 95.5t4.5 66q0 122 -90.5 192t-247.5 70q-80 0 -144 -15.5t-100.5 -37.5t-64.5 -44t-52.5 -37.5t-47.5 -15.5q-35 0 -59.5 24.5t-24.5 59.5q0 39 40 85.5t107.5 88
t172.5 69.5t220 28q227 0 363.5 -117t136.5 -311q0 -55 -12 -111l-29 -135q-35 -162 -135.5 -294.5t-244.5 -208t-300 -75.5q-79 0 -142.5 16t-152.5 62q-49 -49 -96 -49q-35 0 -58.5 22t-23.5 56q0 22 8 57l37 172q30 135 131 135q35 0 57.5 -20.5t22.5 -54.5z" />
    <glyph glyph-name="uni0187" unicode="&#x187;" 
d="M1184 244q0 -39 -41.5 -86t-111 -89t-174 -70t-216.5 -28q-226 0 -363 118t-137 308q0 50 13 113l28 135q34 162 135.5 294.5t245.5 208t299 75.5q153 0 281 -72q28 96 100 168t174 72q80 0 131 -45.5t51 -96.5q0 -42 -38 -82.5t-91 -40.5q-23 0 -40 9.5t-24.5 20.5
t-16 20.5t-17.5 9.5q-19 0 -37 -92l-45 -207q-14 -64 -43.5 -99.5t-87.5 -35.5q-80 0 -80 129q0 58 -79.5 97.5t-172.5 39.5q-156 0 -280.5 -105.5t-159.5 -267.5l-27 -131q-8 -36 -8 -76q0 -122 90 -192t250 -70q79 0 142 15.5t100 37.5t65.5 44t53 37.5t47.5 15.5
q36 0 60 -24t24 -58z" />
    <glyph glyph-name="uni0188" unicode="&#x188;" 
d="M1491 977q0 -42 -38 -82.5t-91 -40.5q-23 0 -40 9t-24.5 20.5t-16 20.5t-17.5 9q-19 0 -37 -92l-41 -192q-14 -63 -43 -99t-88 -36q-36 0 -54.5 12.5t-23 33t-6 42.5t-8 46t-23.5 38q-73 51 -207 51q-78 0 -142 -21t-104.5 -55t-70 -73.5t-44.5 -81t-21.5 -72t-6.5 -52.5
q0 -190 315 -190q107 0 183 18t107 39.5t59.5 39.5t52.5 18q37 0 60.5 -23.5t23.5 -58.5q0 -54 -45 -97.5t-110 -69t-144 -42.5t-140.5 -23t-105.5 -6q-106 0 -188 20t-133.5 53t-84.5 79t-46 94.5t-13 103.5q0 35 8.5 81.5t30 105t53.5 115.5t84 112.5t115.5 97.5t154 67.5
t195.5 25.5q154 0 256 -48q13 45 36.5 86.5t57.5 77.5t81.5 58t101.5 22q80 0 131 -45t51 -96z" />
    <glyph glyph-name="uni0189" unicode="&#x189;" 
d="M47 82q0 42 35.5 82.5t114.5 40.5l61 293h-14q-63 0 -90 19t-27 63q0 48 37 85t123 37h14l61 287q-104 0 -104 82q0 20 6.5 39.5t22.5 39.5t49.5 32t81.5 12h436q188 0 304 -121t116 -317q0 -155 -49.5 -293t-138 -240.5t-219 -162.5t-283.5 -60h-420q-62 0 -89.5 19.5
t-27.5 62.5zM774 623q0 -49 -37 -87t-123 -38h-151l-62 -293h226q24 0 45.5 1.5t59.5 8.5t69.5 19.5t70 37t68 58.5t56 86.5t40.5 118.5l21 94q8 39 8 88q0 37 -7 72.5t-26.5 72.5t-49 64.5t-78.5 45t-111 17.5h-226l-61 -287h151q60 0 88.5 -15.5t28.5 -63.5z" />
    <glyph glyph-name="uni018A" unicode="&#x18a;" 
d="M1112 629q10 39 10 90q0 121 -71 195.5t-201 74.5h-225l-168 -784h227q82 0 149.5 22t110 55t75 79t48.5 87t27 87zM328 883q0 -55 -42.5 -91t-90.5 -36q-42 0 -79.5 48.5t-37.5 117.5q0 119 101 195.5t249 76.5h481q190 0 306 -121.5t116 -312.5q0 -69 -14 -135l-21 -97
q-51 -239 -230 -383.5t-427 -144.5h-418q-119 0 -119 76q0 57 41.5 93t108.5 36l168 784q-40 0 -57.5 -0.5t-38 -2t-28 -5t-7.5 -10.5q0 -10 19.5 -36.5t19.5 -51.5z" />
    <glyph glyph-name="uni018B" unicode="&#x18b;" 
d="M1245 989h-31l-165 -784h30q117 0 117 -76q0 -51 -37 -90t-125 -39h-604q-159 0 -249.5 70.5t-90.5 189.5q0 68 36.5 144.5t99 142.5t157 109.5t199.5 43.5h366l62 289h-525l-22 -104q-30 -135 -131 -135q-82 0 -82 81q0 14 8 54l66 309h964q117 0 117 -76q0 -22 -6 -42
t-22 -41t-50 -33.5t-82 -12.5zM295 287q0 -82 190 -82h359l61 291h-276q-77 0 -137.5 -14.5t-96.5 -36.5t-59.5 -51t-32 -55t-8.5 -52z" />
    <glyph glyph-name="uni018C" unicode="&#x18c;" 
d="M481 176q88 0 157.5 28.5t108 68.5t64 89t33.5 84t8 60q0 98 -68 155.5t-188 57.5q-85 0 -153 -27.5t-106.5 -67t-64.5 -87.5t-34.5 -84t-8.5 -62q0 -96 67 -155.5t185 -59.5zM1147 131q0 -131 -160 -131h-237l16 72q-94 -56 -168 -78.5t-164 -22.5q-197 0 -306.5 103.5
t-109.5 267.5q0 47 13 107q43 203 210 339t398 136q179 0 285 -103l55 252h-471q-56 0 -86.5 16.5t-30.5 57.5q0 131 160 131h676l-230 -1073h33q117 0 117 -74z" />
    <glyph glyph-name="uni018D" unicode="&#x18d;" 
d="M618 725q-84 0 -152.5 -26t-108 -63.5t-66.5 -82.5t-37 -80.5t-10 -60.5q0 -100 76.5 -166t197.5 -66q86 0 155.5 26t109.5 63.5t67 83t37 81.5t10 62q0 99 -78 164t-201 65zM967 -61q0 -151 -127 -250t-316 -99q-54 0 -122.5 9.5t-107 17.5t-120 27t-92.5 22
q-26 -63 -80 -63q-76 0 -76 84q0 33 4 51l15 76q10 65 38 100t87 35q37 0 56.5 -20.5t35.5 -61.5q4 -1 78.5 -19.5t109.5 -26t98.5 -17t112.5 -9.5q44 0 77.5 4.5t62.5 15.5t44 32.5t15 52.5q0 68 -213 75h-68q-194 0 -319 114t-125 286q0 74 27.5 151.5t81.5 149.5
t127.5 129t173.5 91t210 34q197 0 324 -114t127 -286q0 -118 -59.5 -229.5t-165.5 -191.5q86 -63 86 -170z" />
    <glyph glyph-name="uni018E" unicode="&#x18e;" 
d="M719 494q-2 -14 -5 -29t-13 -38.5t-23.5 -41t-37.5 -30.5t-54 -13q-35 0 -58.5 22t-23.5 56q0 18 8 59l51 232q28 135 129 135q35 0 58.5 -22t23.5 -54q0 -34 -12 -74h174l61 293h-522l-24 -106q-27 -138 -129 -138q-35 0 -59.5 22t-24.5 54q0 25 8 62l67 311h963
q61 0 89 -19.5t28 -62.5q0 -49 -36.5 -86t-123.5 -37h-31l-166 -784h31q63 0 90 -19t27 -63q0 -21 -6.5 -40t-22.5 -39t-50.5 -32t-82.5 -12h-918l66 307q27 137 131 137q34 0 58 -22t24 -55q0 -29 -31 -162h479l62 289h-174z" />
    <glyph glyph-name="uni018f" unicode="&#x18f;" 
d="M164 530l36 170h907q6 33 6 65q0 128 -92 203.5t-236 75.5q-96 0 -177 -38.5t-176 -127.5q-40 -38 -84 -38q-36 0 -55.5 19.5t-19.5 49.5q0 14 2 21q2 11 13 30q20 33 69 76.5t118.5 88.5t163.5 75.5t186 30.5q204 0 342 -120.5t138 -307.5q0 -55 -11 -103l-36 -170
q-10 -49 -38 -113.5t-84.5 -146t-129 -148t-182 -112t-233.5 -45.5q-102 0 -181.5 31.5t-126 80t-77 113.5t-41 123.5t-10.5 118.5q0 53 9 98zM1067 516l-719 -2q-5 -33 -5 -59q0 -132 80.5 -217.5t206.5 -85.5q141 0 268 105.5t169 258.5z" />
    <glyph glyph-name="uni0190" unicode="&#x190;" 
d="M827 1018q-74 0 -130 -22t-84 -53.5t-41 -58.5t-13 -46q0 -61 65 -100.5t185 -39.5h86q115 0 115 -75q0 -22 -6 -42.5t-22 -41.5t-50 -34t-82 -13h-121q-143 0 -234.5 -53t-91.5 -128q0 -59 68 -97t172 -38q102 0 193.5 39t119.5 94q24 55 53 76q30 23 72 23q82 0 82 -76
q0 -29 -8 -60l-29 -135q-26 -135 -133 -135q-25 0 -38 9t-33 40q-168 -80 -336 -80q-185 0 -293.5 78t-108.5 209q0 36 9 75.5t31 89t70 99.5t116 88q-33 22 -51.5 66t-18.5 100q0 45 8 84q34 155 183 259t339 104q160 0 252 -68q23 38 43.5 53t51.5 15q79 0 79 -72
q0 -18 -8 -64l-39 -180q-12 -63 -41.5 -100t-87.5 -37q-84 0 -84 76q0 15 4 35q2 6 2 16q0 52 -62.5 86.5t-152.5 34.5z" />
    <glyph glyph-name="uni0191" unicode="&#x191;" 
d="M723 700q16 78 45.5 114t87.5 36q80 0 80 -78q0 -30 -8 -57l-49 -232q-12 -63 -41.5 -100t-87.5 -37q-80 0 -80 80q0 37 10 72h-174l-78 -363q-35 -164 -161.5 -275.5t-278.5 -111.5q-107 0 -166.5 29t-59.5 82q0 50 40.5 86.5t82.5 36.5q9 0 52.5 -14.5t87.5 -14.5
q71 0 126 50.5t72 131.5l183 854h-31q-56 0 -86.5 16.5t-30.5 57.5q0 131 160 131h964l-65 -309q-14 -63 -43 -99t-88 -36q-80 0 -80 79q0 29 6 56l23 104h-525l-61 -289h174z" />
    <glyph glyph-name="florin" unicode="&#x192;" 
d="M1346 1200q0 -43 -35.5 -85t-87.5 -42q-21 0 -58 14.5t-86 14.5q-61 0 -116 -49.5t-70 -118.5l-23 -107h117q57 0 88 -14.5t31 -56.5q0 -133 -162 -133h-117l-104 -488q-34 -164 -161 -275.5t-279 -111.5q-107 0 -165.5 29t-58.5 82q0 50 40 86.5t81 36.5q9 0 52 -14.5
t87 -14.5q71 0 126.5 50.5t72.5 131.5l105 488h-117q-57 0 -88 16t-31 57q0 131 162 131h117l24 113q32 152 159 259.5t275 107.5q106 0 164 -28t58 -79z" />
    <glyph glyph-name="uni0193" unicode="&#x193;" 
d="M657 444q0 129 160 129h359q118 0 118 -73q0 -44 -26.5 -79.5t-83.5 -51.5l-58 -271q-153 -72 -254.5 -99.5t-220.5 -27.5q-97 0 -176.5 16t-134.5 45t-95 66t-62.5 84t-33 94t-10.5 99t15 129l30 145q33 155 133 286t251.5 209.5t320.5 78.5q152 0 264 -56
q34 90 101.5 153.5t162.5 63.5q81 0 133 -45t52 -96q0 -42 -38.5 -82.5t-90.5 -40.5q-23 0 -40 9.5t-25 20.5t-16.5 20.5t-17.5 9.5q-18 0 -37 -93l-34 -159q-13 -66 -42.5 -100.5t-89.5 -34.5q-30 0 -48.5 19.5t-23.5 41.5t-5 47q0 54 -67.5 85.5t-180.5 31.5
q-171 0 -296.5 -101.5t-160.5 -267.5l-29 -131q-10 -58 -10 -100q0 -242 332 -242q144 0 266 51l31 142h-205q-117 0 -117 75z" />
    <glyph glyph-name="uni0194" unicode="&#x194;" 
d="M392 1018h-22q-48 0 -68.5 21t-20.5 52q0 7 2 21q0 1 3.5 10t5.5 14t7.5 14.5t11.5 15.5t15 13.5t22 13t28 8.5q13 3 34 3h227q3 0 16 -1t16 -2q57 -14 57 -68q0 -14 -2 -21q-7 -33 -33.5 -60.5t-75.5 -32.5l155 -283l272 283q-3 0 -11 0.5t-10 1.5q-58 14 -58 70
q0 13 2 21q1 1 4 10t5.5 14t7.5 14.5t11.5 16t15.5 13.5t22 12.5t28 8.5q14 3 35 3h225q1 0 14.5 -1.5t17.5 -2.5q57 -14 57 -68q0 -6 -2 -20q0 -1 -3 -9t-6 -15t-10.5 -18t-16.5 -19.5t-24 -16.5t-33 -12q-20 -4 -34 -4h-21l-410 -440q55 -93 71 -146q17 -54 17 -103
q0 -24 -7 -61q-31 -143 -119 -228t-205 -85q-94 0 -147.5 62t-53.5 164q0 41 9 87q7 32 18 61.5t28.5 57.5t29.5 46.5t37 45t33.5 35.5t36.5 34.5t30 27.5zM702 414q-10 -11 -28.5 -29t-26.5 -27t-19 -23.5t-17 -29.5t-10 -33l-1 -4q-7 -31 -7 -56q0 -34 13 -54
q7 -12 26 -16v0l12 -1h4q4 0 19 3q16 4 31 19q34 37 45 105q2 8 2 24q0 12 -2 23.5t-7.5 25.5t-8.5 21.5t-12.5 26t-12.5 25.5z" />
    <glyph glyph-name="uni0195" unicode="&#x195;" 
d="M119 1145q0 24 6.5 45t22.5 42t50 33.5t83 12.5h237l-88 -416q63 60 162 60q132 0 200 -63.5t68 -178.5q0 -46 -12 -98l-53 -256q-7 -31 -7 -50q0 -98 103 -98q124 0 158 148l77 364h-55q-44 0 -69 22t-25 58q0 50 35 87.5t125 37.5h237l-123 -576q-17 -85 -53 -149
t-77 -100.5t-93 -59t-94.5 -30t-87.5 -7.5q-38 0 -72.5 5.5t-72 21.5t-64.5 41t-44.5 69t-17.5 101q0 41 13 108l51 236q8 50 8 68q0 47 -28 70.5t-95 23.5q-77 0 -141 -72l-94 -440h12q119 0 119 -74q0 -23 -6.5 -43.5t-22.5 -41.5t-50 -33.5t-83 -12.5h-229
q-117 0 -117 76q0 22 6.5 42t22.5 41t49.5 33.5t81.5 12.5h12l184 868h-32q-117 0 -117 72z" />
    <glyph glyph-name="uni0196" unicode="&#x196;" 
d="M401 1065q0 129 164 129h365l-178 -840q-7 -32 -7 -51q0 -60 33.5 -95.5t93.5 -35.5q45 0 94.5 14.5t57.5 14.5q32 0 55 -24t23 -58q0 -56 -69 -104t-212 -48q-128 0 -206 82.5t-78 212.5q0 51 10 92l133 635h-160q-119 0 -119 76z" />
    <glyph glyph-name="uni0197" unicode="&#x197;" 
d="M287 553q0 53 34.5 92t124.5 39h207l66 305h-207q-56 0 -86.5 16.5t-30.5 57.5q0 131 160 131h619q56 0 86 -16t30 -56q0 -24 -6.5 -45t-22.5 -42t-49.5 -33.5t-81.5 -12.5h-206l-66 -305h207q58 0 87.5 -16t29.5 -56q0 -24 -6.5 -44.5t-22.5 -42t-49.5 -34t-81.5 -12.5
h-207l-59 -274h207q56 0 86 -16t30 -56q0 -55 -36 -94t-123 -39h-619q-117 0 -117 80q0 23 6.5 42.5t22.5 39.5t49.5 31.5t81.5 11.5h207l59 274h-207q-56 0 -86 16.5t-30 57.5z" />
    <glyph glyph-name="uni0198" unicode="&#x198;" 
d="M789 677q58 -34 93 -65t69 -85t58 -135t47 -204h80q89 -8 89 -71q0 -40 -32 -77.5t-97 -37.5h-214l-5 34q-21 142 -44 231.5t-57 144t-69.5 81t-95.5 51.5l-151 -114l-51 -242h102q89 -8 89 -71q0 -40 -32 -77.5t-97 -37.5h-348q-88 0 -88 73q0 39 31.5 76t96.5 37h59
l177 830h-60q-48 0 -68.5 21t-20.5 52q0 39 31.5 76t97.5 37h348h5q6 -1 10.5 -1.5t12.5 -1.5t14 -3.5t13.5 -5.5t13 -8.5t10.5 -12.5t7.5 -16.5t2.5 -21.5q0 -40 -32 -77.5t-97 -37.5h-102l-73 -345l466 349q-23 7 -38.5 24.5t-15.5 44.5q0 14 5.5 31t19 36.5t41 32.5
t65.5 13h241q80 0 141 -53t61 -139q0 -117 -94.5 -207t-207.5 -90q-33 0 -53.5 20.5t-20.5 52.5q0 44 35.5 78.5t78.5 34.5q2 0 12 2q18 5 39.5 21.5t21.5 39.5q0 22 -17.5 38t-34.5 16h-14z" />
    <glyph glyph-name="uni0199" unicode="&#x199;" 
d="M70 76q0 24 6.5 44t22 40.5t49 32.5t81.5 12h33l158 735q32 152 159 259.5t275 107.5q105 0 163 -28t58 -79q0 -43 -35.5 -85t-87.5 -42q-21 0 -57.5 14.5t-85.5 14.5q-61 0 -116 -49.5t-70 -118.5l-74 -346l190 129q-20 29 -20 53q0 49 35.5 87t126.5 38h229
q58 0 87.5 -16t29.5 -56q0 -23 -6.5 -43.5t-22.5 -42t-49.5 -34.5t-81.5 -13h-57l-285 -196l266 -289h68q58 0 88.5 -16t30.5 -58q0 -23 -6 -43.5t-22 -41.5t-50.5 -33.5t-83.5 -12.5h-242q-117 0 -117 76q0 55 54 102l-172 187l-43 -29l-72 -336h-238q-116 0 -116 76z" />
    <glyph glyph-name="uni019A" unicode="&#x19a;" 
d="M276 553q0 24 6.5 44.5t22.5 41.5t50 33t83 12h207l82 389h-160q-118 0 -118 74q0 131 161 131h365l-125 -594h207q57 0 87 -16t30 -56q0 -24 -6.5 -44.5t-22.5 -42t-50 -34t-83 -12.5h-207l-57 -274h249q117 0 117 -74q0 -22 -6.5 -42.5t-22.5 -41.5t-49.5 -34
t-81.5 -13h-704q-117 0 -117 78q0 51 35 89t125 38h250l57 274h-207q-117 0 -117 74z" />
    <glyph glyph-name="uni019B" unicode="&#x19b;" 
d="M510 127q0 -50 -35 -88.5t-125 -38.5h-184q-54 0 -85.5 19.5t-31.5 58.5q0 14 4.5 30t16 37.5t38.5 38t66 21.5l496 680l-195 -92q-33 -11 -51 -11q-35 0 -59.5 23t-24.5 59q0 26 18 58t60 53l200 94l-2 4h-204q-117 0 -117 74q0 54 39 92.5t100 38.5h219q75 0 111.5 -31
t52.5 -84l187 86q26 13 51 13q34 0 58 -23t24 -59q0 -26 -17 -58.5t-59 -52.5l-191 -90l240 -774q88 -9 88 -78q0 -50 -35 -88.5t-125 -38.5h-188q-55 0 -87 20t-32 60q0 56 43 90.5t113 34.5l-150 457l-329 -457q102 -3 102 -78z" />
    <glyph glyph-name="uni019C" unicode="&#x19c;" 
d="M1030 1067q0 21 6.5 41t22.5 40.5t49.5 33t81.5 12.5h180q119 0 119 -76q0 -57 -40.5 -93t-107.5 -36l-165 -784q102 -3 102 -78q0 -49 -37 -88t-125 -39h-190l12 49q-64 -43 -104.5 -59.5t-85.5 -16.5q-119 0 -189 101q-113 -101 -233 -101q-99 0 -159.5 58t-60.5 149
q0 32 9 62l157 747q-104 0 -104 78q0 50 37 88.5t123 38.5h192l-198 -936q-1 -5 -2 -12.5t-2 -13t-1 -9.5q0 -24 14.5 -34.5t45.5 -10.5q40 0 76 18.5t98 73.5l154 719q-51 0 -78 20.5t-27 57.5q0 21 6.5 40.5t22.5 40.5t49.5 33.5t81.5 12.5h192l-198 -936q-4 -24 -4 -33
q0 -47 59 -47q42 0 79.5 20t94.5 72l154 719q-107 0 -107 78z" />
    <glyph glyph-name="uni019D" unicode="&#x19d;" 
d="M907 1063q0 131 160 131h266q117 0 117 -74q0 -49 -35 -90t-115 -41l-210 -989h-203l-359 807l-143 -672q-35 -164 -161.5 -275.5t-278.5 -111.5q-107 0 -166.5 29t-59.5 82q0 50 40.5 86.5t82.5 36.5q9 0 52.5 -14.5t87.5 -14.5q71 0 126 50.5t72 131.5l182 854h-30
q-56 0 -86.5 16.5t-30.5 57.5q0 131 160 131h235l359 -803l127 598h-72q-56 0 -86.5 16.5t-30.5 57.5z" />
    <glyph glyph-name="uni019E" unicode="&#x19e;" 
d="M115 76q0 22 6.5 42t22 41t49 33.5t81.5 12.5h13l104 485q-106 3 -106 78q0 21 7.5 41.5t24 40.5t50 32.5t79.5 12.5h193l-21 -98q87 70 155 97.5t153 27.5q136 0 218.5 -67t82.5 -191q0 -34 -10 -86l-166 -783q104 0 104 -78q0 -22 -6 -41.5t-22 -40t-50 -33t-82 -12.5
h-182q-117 0 -117 76q0 59 40.5 94t109.5 35l164 774q4 16 4 43q0 54 -38 79.5t-120 25.5q-71 0 -133.5 -30.5t-151.5 -108.5l-79 -373h12q117 0 117 -74q0 -52 -35 -91.5t-125 -39.5h-230q-116 0 -116 76z" />
    <glyph glyph-name="uni019F" unicode="&#x19f;" 
d="M152 455q0 129 44 250.5t118 213.5t167 161.5t194 106t195 36.5q26 0 59 -5t77.5 -19.5t87.5 -36t85.5 -58.5t74 -83.5t51.5 -114.5t20 -148q0 -113 -31.5 -219.5t-85 -191.5t-125 -156.5t-151.5 -119t-164.5 -74t-163.5 -26.5q-200 0 -326 137.5t-126 346.5zM1114 674
v18q0 142 -79.5 234t-207.5 92q-133 0 -256.5 -98.5t-177.5 -245.5h721zM1061 469h-699q8 -129 86.5 -211t198.5 -82t234 82.5t180 210.5z" />
    <glyph glyph-name="Ohorn" unicode="&#x1a0;" 
d="M592 176q74 0 156 39t151.5 105.5t114.5 165.5t45 208q0 141 -79.5 232.5t-207.5 91.5q-74 0 -156 -39t-151.5 -105.5t-114.5 -165.5t-45 -208q0 -139 80.5 -231.5t206.5 -92.5zM1171 1233q0 54 42.5 90.5t89.5 36.5q43 0 79.5 -48.5t36.5 -117.5q0 -45 -14.5 -84.5
t-35.5 -66t-48.5 -48t-48 -32t-39.5 -17.5q37 -84 37 -194q0 -135 -45 -259.5t-119.5 -217t-168 -162.5t-194.5 -106t-194 -36q-201 0 -328 137.5t-127 346.5q0 129 44.5 250.5t119 213.5t167.5 161.5t194.5 106t195.5 36.5q160 0 283 -97q66 0 89 4.5t23 18.5q0 9 -19.5 33
t-19.5 51z" />
    <glyph glyph-name="ohorn" unicode="&#x1a1;" 
d="M541 172q86 0 156.5 27t112 66t69.5 85.5t38.5 82.5t10.5 61q0 97 -74 160t-192 63q-88 0 -159.5 -27t-113.5 -65.5t-70 -85.5t-38.5 -83.5t-10.5 -62.5q0 -96 75.5 -158.5t195.5 -62.5zM1063 938q0 54 42 90.5t89 36.5q43 0 80 -48.5t37 -117.5q0 -56 -21.5 -102.5
t-56 -76t-61 -45.5t-52.5 -26q17 -60 17 -114q0 -77 -29.5 -157.5t-87 -153.5t-134 -130.5t-178 -92t-210.5 -34.5q-193 0 -315 109t-122 276q0 47 11 92q43 203 225.5 340.5t409.5 137.5q168 0 286 -91q63 0 86 5.5t23 17.5q0 8 -19.5 32t-19.5 52z" />
    <glyph glyph-name="uni01A2" unicode="&#x1a2;" 
d="M219 666l-31 -140q-12 -67 -12 -125q0 -107 46.5 -167t131.5 -60q109 0 194.5 96t119.5 256l30 140q15 68 15 125q0 106 -47.5 166.5t-133.5 60.5q-109 0 -194 -96t-119 -256zM719 76q0 22 6.5 42t22.5 41t49.5 33.5t81.5 12.5h14l156 733q10 44 10 82q0 61 -41 61
q-55 0 -133 -57q35 -87 35 -199q0 -83 -21 -174l-22 -110q-24 -113 -73 -214t-118.5 -182t-167 -128.5t-207.5 -47.5q-89 0 -156.5 30t-107.5 84.5t-60 124.5t-20 154q0 72 21 179l22 110q24 113 73 214t119.5 182t168 128.5t207.5 47.5q114 0 194 -52q46 32 82 53
t98.5 41.5t124.5 20.5q97 0 144 -61t47 -164q0 -59 -15 -123l-155 -733h10q117 0 117 -74q0 -52 -35 -91.5t-125 -39.5h-229q-117 0 -117 76z" />
    <glyph glyph-name="uni01A3" unicode="&#x1a3;" 
d="M352 172q84 2 149.5 31.5t100.5 70t58 90t29.5 84.5t6.5 60q0 96 -57.5 152t-167.5 57q-62 -1 -114 -17t-87 -40t-62 -56t-43 -63.5t-25.5 -64.5t-13 -56t-3.5 -41q0 -95 58 -149.5t171 -57.5zM750 76q0 22 6.5 42t22 41t49 33.5t81.5 12.5h13l112 528q4 24 4 31
q0 17 -7.5 22t-26.5 5h-25q-84 0 -127 -41q55 -90 55 -203q0 -74 -25 -153.5t-76 -155.5t-120.5 -136.5t-165.5 -97.5t-203 -37h-16q-176 0 -282.5 105.5t-106.5 265.5q0 74 25 154t76 156.5t120 137.5t166 98.5t205 37.5h12q115 0 203 -45q4 3 24.5 20t26.5 21.5t27 18.5
t33 19t35.5 15t44.5 13.5t50.5 7t61.5 3.5q101 0 162 -56.5t61 -147.5q0 -28 -6 -58l-113 -528h13q116 0 116 -74q0 -23 -6 -43.5t-21.5 -41.5t-49 -33.5t-82.5 -12.5h-230q-116 0 -116 76z" />
    <glyph glyph-name="uni01A4" unicode="&#x1a4;" 
d="M643 614q123 0 197.5 66.5t74.5 163.5q0 69 -50 107t-142 38h-242l-80 -375h242zM-82 78q0 50 35 88.5t125 38.5h31l167 784h-65q-92 0 -96 -18v-4q0 -9 19.5 -34t19.5 -50q0 -54 -43 -90.5t-91 -36.5q-42 0 -79 48.5t-37 117.5q0 117 99 194.5t251 77.5h512
q169 0 270 -84t101 -221q0 -205 -161 -342t-417 -137h-201l-45 -205h203q117 0 117 -74q0 -22 -6 -42.5t-22 -41.5t-50 -34t-82 -13h-438q-117 0 -117 78z" />
    <glyph glyph-name="uni01A5" unicode="&#x1a5;" 
d="M719 717q-82 0 -148.5 -24t-105.5 -58.5t-64.5 -77t-35 -76t-9.5 -57.5q0 -90 70 -144.5t188 -54.5q81 0 147 23.5t104.5 57.5t64.5 75.5t35.5 74t9.5 56.5q0 35 -12 68t-38.5 65.5t-79.5 52t-126 19.5zM913 1200q0 -43 -36 -85t-89 -42q-21 0 -57.5 14.5t-85.5 14.5
q-62 0 -116.5 -49.5t-67.5 -118.5l-29 -131q89 65 167 92t173 27q186 0 299 -102t113 -263q0 -46 -16 -108t-59.5 -139t-107.5 -140t-173 -106.5t-244 -43.5q-90 0 -157.5 26.5t-135.5 88.5l-72 -340h119q57 0 87 -15.5t30 -55.5q0 -23 -6.5 -44t-22.5 -42.5t-50 -34.5
t-83 -13h-356q-117 0 -117 74q0 24 6.5 44.5t22.5 41.5t50 33t83 12h32l244 1145q32 152 159 259.5t275 107.5q105 0 163 -28t58 -79z" />
    <glyph glyph-name="uni01A6" unicode="&#x1a6;" 
d="M618 514q137 0 184.5 22.5t47.5 98.5q0 26 -26 40.5t-95 14.5h-242l-36 -176h167zM524 133q0 -23 -6.5 -43.5t-22 -42t-49 -34.5t-81.5 -13h-261q-116 0 -116 74q0 53 34.5 92t124.5 39h33l166 784h-37q-116 0 -116 74q0 131 161 131h254q117 0 117 -72q0 -24 -6.5 -45
t-22.5 -42t-50 -33.5t-83 -12.5h-12l-19 -94h234q157 0 229 -65t72 -166q0 -65 -21.5 -118.5t-55.5 -87.5t-63 -53t-57 -30q33 -108 33 -289q0 -100 -14 -291h24q117 0 117 -74q0 -54 -37 -92.5t-125 -38.5h-178q2 29 7.5 112.5t8.5 152t3 131.5q0 247 -52 323h-249
l-23 -104h23q58 0 87 -15.5t29 -56.5z" />
    <glyph glyph-name="uni01A7" unicode="&#x1a7;" 
d="M410 770q-80 0 -80 86q0 21 6 51l39 180q26 136 131 136q29 0 42.5 -14.5t22.5 -53.5q121 68 281 68q170 0 272.5 -82t102.5 -211q0 -66 -31 -142q-34 -81 -98 -138t-138 -86t-156 -49t-156.5 -33.5t-134.5 -31.5t-96 -52t-36 -87q0 -59 68 -97t176 -38q100 0 191.5 39
t119.5 94q20 38 30.5 54t34.5 30.5t58 14.5q82 0 82 -82q0 -24 -6 -54l-29 -135q-8 -43 -25.5 -72.5t-38.5 -41.5t-36.5 -16.5t-30.5 -4.5q-25 0 -39.5 9.5t-34.5 39.5q-171 -80 -338 -80q-185 0 -292 79t-107 210q0 72 33 148q33 77 96 131.5t136.5 82.5t155 48t156.5 35
t136 34.5t97 56t36 91.5q0 56 -56.5 93.5t-146.5 37.5q-64 0 -113 -13.5t-77.5 -35.5t-49.5 -48.5t-35.5 -53t-29.5 -48.5t-38 -35.5t-54 -13.5z" />
    <glyph glyph-name="uni01A8" unicode="&#x1a8;" 
d="M414 575q-80 0 -80 80q0 26 6 56l16 75q30 136 125 136q25 0 36.5 -11.5t19.5 -42.5q128 54 274 54q167 0 268 -66t101 -170q0 -36 -21 -94q-27 -64 -82.5 -109t-121.5 -67t-140 -35.5t-142 -21.5t-123.5 -18t-88.5 -31t-33 -56q0 -34 63 -58t156 -24q169 0 275 80
q49 90 125 90q81 0 81 -80q0 -17 -8 -57l-14 -68q-26 -135 -133 -135q-34 0 -62 25q-138 -60 -315 -60q-181 0 -290 68.5t-109 177.5q0 42 22 94q28 67 84 116.5t122 75t139 42.5t141 25.5t122.5 17.5t87.5 24.5t33 40.5q0 27 -55.5 47.5t-130.5 20.5q-74 0 -126 -14.5
t-78 -35.5t-45.5 -42t-43 -35.5t-55.5 -14.5z" />
    <glyph glyph-name="uni01A9" unicode="&#x1a9;" 
d="M1063 487q80 0 80 -75q0 -26 -6 -60l-76 -352h-930l43 205l395 395l-227 395l43 199h930l-74 -348q-28 -135 -131 -135q-82 0 -82 77q0 18 8 58l31 143h-461l223 -389l-393 -395h463l33 147q13 65 42.5 100t88.5 35z" />
    <glyph glyph-name="uni01aa" unicode="&#x1aa;" 
d="M883 -242q-147 0 -250 105.5t-103 255.5v721q-72 -72 -174 -72q-99 0 -170 69.5t-71 168.5q0 97 71 166t170 69q151 0 256 -108.5t105 -262.5v-739q0 -80 44.5 -133t115.5 -53h4q46 1 83.5 13t47.5 13h12q39 0 63.5 -27.5t24.5 -64.5q-1 -4 -3 -15t-3.5 -17t-8 -16
t-17.5 -19q-25 -22 -72 -35.5t-76 -16t-49 -2.5zM356 1071q-30 0 -50.5 -19.5t-20.5 -45.5q0 -28 20.5 -48t50.5 -20t51 20t21 46q0 27 -21 47t-51 20z" />
    <glyph glyph-name="uni01AB" unicode="&#x1ab;" 
d="M416 -299q0 50 40.5 86.5t82.5 36.5q9 0 52 -14.5t87 -14.5q72 0 127 47.5t72 128.5l8 39q-150 -43 -277 -43q-153 0 -238 59t-85 164q0 30 6 60l92 440h-72q-116 0 -116 74q0 131 161 131h72l37 180q14 63 43 99t88 36q82 0 82 -75q0 -29 -8 -60l-37 -180h405
q37 0 58.5 -21.5t21.5 -56.5q0 -22 -6 -41.5t-22 -40t-50 -33t-82 -12.5h-370l-84 -401q-6 -21 -6 -41q0 -40 34 -58t123 -18q79 0 148 14.5t107 31.5t75 31.5t59 14.5q35 0 57.5 -23.5t22.5 -58.5q0 -6 -4 -22l-39 -189q-35 -164 -161 -272.5t-279 -108.5q-108 0 -166.5 29
t-58.5 82z" />
    <glyph glyph-name="uni01AC" unicode="&#x1ac;" 
d="M279 80q0 23 6.5 42.5t22 39.5t49 31.5t81.5 11.5h133l168 784h-219q-96 0 -96 -22q0 -7 19.5 -35t19.5 -49q0 -53 -42.5 -90t-90.5 -37q-41 0 -79 48.5t-38 117.5q0 117 97.5 194.5t252.5 77.5h852l-84 -395q-14 -66 -42.5 -100.5t-88.5 -34.5q-80 0 -80 79q0 29 6 56
l41 190h-223l-168 -784h135q117 0 117 -74q0 -22 -6 -42.5t-22 -41.5t-50 -34t-82 -13h-473q-116 0 -116 80z" />
    <glyph glyph-name="uni01AD" unicode="&#x1ad;" 
d="M182 764q0 131 160 131h72l8 45q34 152 161 259.5t275 107.5q105 0 163 -28t58 -79q0 -43 -36.5 -85t-88.5 -42q-21 0 -57.5 14.5t-85.5 14.5q-62 0 -116.5 -49.5t-67.5 -118.5l-9 -39h406q37 0 58.5 -21.5t21.5 -56.5q0 -22 -6 -41.5t-21.5 -40t-49 -33t-81.5 -12.5
h-371l-86 -401q-6 -21 -6 -41q0 -40 34.5 -58t123.5 -18q79 0 148 14.5t107 31.5t75 31.5t59 14.5q36 0 58 -23t22 -59q0 -47 -53 -89t-132.5 -68.5t-167.5 -42t-163 -15.5q-153 0 -238.5 59t-85.5 164q0 30 6 60l95 440h-72q-117 0 -117 74z" />
    <glyph glyph-name="uni01AE" unicode="&#x1ae;" 
d="M1094 -100q0 -56 -69.5 -104t-211.5 -48q-129 0 -208 82.5t-79 212.5q0 31 11 92l182 854h-219l-41 -190q-26 -135 -131 -135q-80 0 -80 79q0 26 6 56l84 395h1057l-84 -395q-14 -66 -42.5 -100.5t-88.5 -34.5q-80 0 -80 79q0 29 6 56l41 190h-223l-183 -854
q-6 -27 -6 -51q0 -60 34.5 -95.5t92.5 -35.5q45 0 94.5 14.5t57.5 14.5q34 0 57 -24t23 -58z" />
    <glyph glyph-name="Uhorn" unicode="&#x1af;" 
d="M1282 1300q0 54 41.5 90.5t89.5 36.5q42 0 79.5 -48t37.5 -117q0 -21 -7 -50t-29 -69.5t-55.5 -73.5t-94.5 -56.5t-138 -23.5h-16l-121 -569q-28 -131 -117 -235.5t-207 -159t-241 -54.5q-164 0 -273.5 98t-109.5 255q0 41 10 96l121 569q-107 3 -107 76q0 24 6.5 44
t22.5 40.5t49.5 32.5t81.5 12h266q57 0 87 -15t30 -57q0 -24 -6 -44.5t-22 -42t-49.5 -34t-82.5 -12.5h-71l-125 -588q-4 -28 -4 -41q0 -79 62.5 -131.5t158.5 -52.5q109 0 200 65.5t111 159.5l125 588h-72q-116 0 -116 74q0 131 159 131h267q92 0 96 18v5q0 9 -18.5 33
t-18.5 50z" />
    <glyph glyph-name="uhorn" unicode="&#x1b0;" 
d="M1073 127q0 -21 -6.5 -41t-22.5 -40.5t-49.5 -33t-81.5 -12.5h-194l20 98q-92 -72 -157 -98.5t-150 -26.5q-137 0 -219 67.5t-82 190.5q0 36 10 88l78 371h-55q-42 0 -67 22t-25 58q0 50 34.5 87.5t124.5 37.5h238l-121 -569q-6 -24 -6 -43q0 -105 154 -105
q77 0 134.5 27.5t155.5 111.5l78 373h-92q-52 0 -73 23t-21 57q0 21 6.5 40.5t22.5 40t49.5 32.5t81.5 12h297q75 0 75 23q0 8 -19.5 32t-19.5 51q0 54 42.5 90.5t89.5 36.5q43 0 79.5 -48t36.5 -117q0 -118 -98.5 -195.5t-251.5 -77.5l-102 -485q106 0 106 -78z" />
    <glyph glyph-name="uni01b1" unicode="&#x1b1;" 
d="M624 910l25 120h-137l-21 -98q-22 -87 -86 -104q-13 -3 -27 -3q-1 0 -10 1.5t-13.5 3l-13.5 4.5t-14.5 8.5t-11.5 12.5t-9 18t-3 25q0 17 4 34l61 289h485l-97 -460q-34 -4 -68.5 -13t-81 -31t-83.5 -53.5t-70 -85.5t-47 -121q-9 -47 -9 -85q0 -103 52.5 -164t113.5 -61
h182q77 0 176.5 94t125.5 216q10 50 10 81q0 59 -21 102.5t-56 67.5t-67 36t-67 17l97 460h474l-61 -285q-37 -107 -119 -107l-9 1q-9 2 -15 4t-15.5 7t-16 12t-11 20t-4.5 29q0 17 4 34l20 94h-146l-25 -118q106 -36 168 -120t62 -209q0 -55 -13 -116q-25 -117 -79 -210
t-114.5 -146.5t-129 -88.5t-118.5 -47t-86 -12l-191 1q-34 5 -69.5 15.5t-80.5 36.5t-79 62.5t-57.5 99t-23.5 139.5q0 68 15 136q20 94 57 170t78 123t92 83t91 52.5t83 28.5z" />
    <glyph glyph-name="uni01b2" unicode="&#x1b2;" 
d="M902 332l185 872h244q3 0 15 -1t15 -2q25 -5 43 -23t18 -48q0 -10 -3 -22q-19 -90 -127 -90h-56l-146 -686q-38 -179 -159 -275t-321 -96q-167 0 -257 69.5t-90 203.5q0 51 11 102l145 682h-57q-3 0 -15.5 1t-15.5 2q-60 15 -60 72q0 7 2 19q0 1 3.5 10t5 12t5 11.5
t7 12.5t9 11.5t12 11t15 8.5t19 8t22.5 5t30 2h289q36 -3 45 -6q20 -6 36 -23.5t16 -44.5q0 -6 -2 -18q-1 -2 -4.5 -11t-5 -13.5t-6.5 -13.5t-9.5 -14t-12.5 -13t-16.5 -12.5t-20.5 -8.5t-26 -6q-12 -2 -29 -2h-50l-144 -678q-5 -21 -5 -48q0 -77 57 -111t133 -34
q216 0 256 185z" />
    <glyph glyph-name="uni01B3" unicode="&#x1b3;" 
d="M410 883q0 -54 -43 -90.5t-91 -36.5q-42 0 -79 48.5t-37 117.5q0 117 99 194.5t251 77.5h188q117 0 117 -74q0 -88 -102 -129l135 -278l252 278q-64 24 -64 78q0 51 35 88t127 37h188q117 0 117 -72q0 -32 -11.5 -57t-28 -39t-37 -22.5t-35 -11.5t-25.5 -3h-20l-441 -487
l-63 -297h133q119 0 119 -74q0 -23 -6.5 -43.5t-22.5 -41.5t-50 -33.5t-83 -12.5h-471q-119 0 -119 76q0 129 162 129h133l63 297l-233 487q-92 0 -96 -18v-4q0 -9 19.5 -34t19.5 -50z" />
    <glyph glyph-name="uni01B4" unicode="&#x1b4;" 
d="M133 768q0 57 44 92t116 35h184q117 0 117 -72q0 -60 -39 -96t-106 -37l135 -457l344 457q-55 0 -84 20.5t-29 57.5q0 21 7.5 41.5t24.5 40.5t50.5 32.5t79.5 12.5h217q92 0 96 18v5q0 9 -19.5 33.5t-19.5 49.5q0 54 42 90.5t89 36.5q44 0 81.5 -48t37.5 -117
q0 -65 -27.5 -116.5t-66.5 -80.5t-87 -47.5t-82.5 -24.5t-59.5 -6q-5 0 -14 1t-13 1l-662 -895h11q56 0 86 -15.5t30 -55.5q0 -23 -6.5 -44t-22 -42.5t-49 -34.5t-81.5 -13h-461q-52 0 -74 23.5t-22 56.5q0 21 6.5 40.5t22 40t49 32.5t81.5 12h205l158 211l-207 684
q-39 4 -60.5 24.5t-21.5 53.5z" />
    <glyph glyph-name="uni01B5" unicode="&#x1b5;" 
d="M1112 612q0 -24 -6.5 -44.5t-22.5 -42t-49.5 -34t-81.5 -12.5h-223l-274 -274h463l10 49q13 65 42.5 100t88.5 35q82 0 82 -76q0 -28 -8 -59l-54 -254h-929l43 205l276 274h-70q-56 0 -86 16.5t-30 57.5q0 53 34.5 92t124.5 39h232l305 305h-367l-10 -45
q-26 -135 -131 -135q-80 0 -80 80q0 25 6 55l54 250h835l-43 -199l-309 -311h61q58 0 87.5 -16t29.5 -56z" />
    <glyph glyph-name="uni01B6" unicode="&#x1b6;" 
d="M1014 444q0 -22 -6 -41.5t-22 -41t-50 -34t-82 -12.5h-180l-135 -110h358q13 53 46 81.5t79 28.5q82 0 82 -75q0 -29 -8 -60l-37 -180h-889l35 170l184 147q-30 4 -46.5 26.5t-16.5 53.5q0 21 6 39.5t21.5 39t49.5 32.5t82 12h156l209 170h-305q-18 -82 -47 -117.5
t-88 -35.5q-80 0 -80 79q0 26 6 56l47 223h838l-35 -166l-258 -209q86 -6 86 -76z" />
    </font>
</defs>
</svg>
